<svg xmlns="http://www.w3.org/2000/svg" width="2560" height="1440" version="1.0" viewBox="0 0 1920 1080"><path d="M1504 327.3c0 3.4.1 3.5 2.5 2.4 3.2-1.5 3-5.1-.2-5.5-2-.3-2.3.1-2.3 3.1zM1482.9 341.6c-6.4 1.9-14.1 9.1-17.6 16.2-3.8 8-4.5 24.1-1.5 35.9 2.8 11.1 9.2 27.1 16.8 42 3.5 7 6.4 13.1 6.4 13.6s.8 1.6 1.7 2.3c1 .7 1.5 1.6 1.1 2-.4.4-1.4.1-2.3-.6-.9-.7-1.8-1-2.2-.7-.3.4.2.9 1.1 1.3.9.3 1.3 1 1 1.5-.3.5.1 1.2 1 1.5.8.3 1.2 1.2.9 2.1-.5 1.3-.2 1.3 1.4.5 2.3-1.3 3.3-.7 3.3 2 0 1 .4 1.8.9 1.8s2 2.1 3.3 4.7c1.3 2.7 4.1 7.4 6.2 10.6 2 3.1 3.4 6.3 3 6.9-.4.6-.3.8.4.4.6-.3 2 1.1 3.3 3.3 2.4 4.3 2.5 5.8.3 5.3-.8-.2-1.4.2-1.4.8 0 .5-1.2 1-2.6 1-1.5 0-2.3.4-1.9 1 .4.6 1.5.8 2.5.5 1.4-.5 1.8-.1 1.7 1.4 0 1.1-.5 1.9-1 1.8-.5-.1-1.2.4-1.5 1.2-.3.9 0 1.1.9.6.8-.5 1.1-.4.6.1-.5.5-1.4.9-2 .9-.7.1-1.1.6-.9 1.3.2 1.4-1.1.9-14.8-5.6-19-9-36.7-15.1-55-18.8-11.6-2.3-32.4-2.4-40.7-.1-27.5 7.4-37 28.2-24.8 54.2 1.8 3.8 3.9 7.9 4.8 9 1.3 1.7 1.3 2.1-.1 3.1-.8.6-1.2 1.6-.8 2.2 1.1 1.7 2.6 1.5 2.6-.4 0-1 2.4.8 6.3 4.8 11.5 11.8 25.9 19.6 41.9 22.8 3.1.6 6.2 1.8 6.8 2.6 1.4 1.6 4.5 2 3.5.4-.4-.6.8-1 2.9-1 3 0 3.6.4 3.6 2.1 0 1.8.2 1.9 1.5.9 1.3-1 1.9-.9 3.5.5 2.3 2.1 3.9 1.3 2-1-1-1.3-.9-1.5.9-1.5 1.2 0 3 .6 4.1 1.2 1.7 1.1 2.6 1 5-.4 3.7-2.1 6.4-1.5 4.8 1.1-.7 1.2-1.9 1.6-3.4 1.3-1.5-.3-2.4 0-2.4.8s-1 .9-3 .5c-1.7-.4-3-.2-3 .3 0 1.3 4.3 2.3 5.4 1.2.4-.4 1.5-.6 2.2-.3 1.1.4 1.1 1-.2 3.4-.8 1.6-2.1 2.9-2.9 2.9-.8 0-1.5.5-1.5 1.1 0 .5.5.7 1.1.4.9-.6-.6 2.6-4 8.5-.5.8-1.8 3.6-3 6.2-1.4 3.2-2.7 4.8-3.9 4.8-2.7 0-3.3 1-1.8 3.1 1 1.5.7 3.4-2.2 12.1-2.9 8.4-3.6 12.2-4 20.8-.3 9.1-.1 11.3 1.8 16.4 4.6 12.2 16 19.6 29.8 19.6 7.9 0 14.1-1.7 22.7-6.3l6.4-3.4v10.1c.1 16.8 1.2 28.9 2.9 30.8 2 2.4 4.7 2.3 7.2-.2 2.4-2.4 2.5-5.4.8-30.7l-1.2-18.1 3-3.7c1.6-1.9 4.3-5.4 6.1-7.6 1.8-2.2 3.6-3.9 4-3.9.4 0 .8-.4.8-.9s1.6-3.4 3.5-6.5c2.7-4.3 3.9-5.4 5.3-5 1.5.5 1.8.2 1.3-1.4-.6-1.6-.1-2.1 2.3-2.7 1.6-.3 3.5-1.3 4.2-2.1 1.6-1.9 3.9-1.8 3.9.3-.1 19.7 1.2 47.1 2.9 57.8 5.1 33.6 12.8 56.8 22.3 67.2 4.8 5.1 6.4 6.1 13.1 7.9 4.5 1.2 5.3 1.1 10.1-1 8.3-3.7 12.4-10.7 11.3-19.1-.4-2.4-3.3-9.4-6.5-15.6-10.4-20.3-17-43.9-19.2-68.9-1.3-14.2-1-34.2.5-34.7.6-.1 3.8 5.5 7.2 12.5 11.2 22.7 27.3 45.9 42.7 61.2 6 6 8.8 11 6.2 11-.8 0-.8.2 0 .8.7.5 1.3 13.4 1.7 40.8.8 48.3 2.2 71.1 4.4 73.6s5.8 2.2 8.4-.5c2.3-2.4 2.3-2.5-.1-44.2-.5-8.8-.9-25.1-1-36.3v-20.3l2.3.7c6.1 1.9 11.7 6.6 13.6 11.6.7 1.9.7 19.5.2 54.5-.7 42.8-.6 52.3.5 54.4 2.5 4.9 8.1 5.3 12.5 1 2.7-2.7 2.9-3.5 2.9-10.1 0-3.9-1-17.8-2.1-30.8-1.2-13.3-2.2-32.5-2.3-43.7l-.1-20 3.1-6.6c3.1-6.4 3.4-6.7 7.5-7.4 10.8-1.8 20.6-10.3 23.6-20.4 1.2-4.2 1.4-8.1 1.1-16.1-.7-13-4.5-25.4-12.4-39.7-5.1-9.2-6.4-12.5-4.6-12.2 2.3.4 2.3-.4-.3-3.1-1.6-1.7-3.7-3-4.6-3-1 0-2.1-.5-2.4-1-.6-.9 3.8-1.5 10.5-1.3 2.6 0 11.2-1.3 14.3-2.3 1.2-.4 1.7 0 1.7 1.5 0 1.1.5 2.3 1.1 2.7.8.5 1-.1.7-2-.5-2.5-.2-2.7 5.1-4.2 3.1-.9 7.3-2.5 9.4-3.6 2.2-1.1 4.1-1.8 4.3-1.5.2.2-.1 11-.7 24.1-.6 13.1-.8 25.3-.5 27.1 1.9 9.7 10 8 11.7-2.4.4-3 .9-16.8 1-30.8l.1-25.4 4-3.7c2.2-2 4.5-3.6 5-3.4.5.1.7-.2.4-.7-.4-.5.7-3 2.4-5.4 4.9-7.3 6.3-12.3 6.4-22.2.1-7.8-.3-9.8-2.7-14.9-1.5-3.3-4.4-7.9-6.3-10.3-4.3-5.2-15.8-13.5-22-15.9-2.4-.9-4.4-2-4.4-2.5s-.6-.6-1.4-.3c-.7.3-2-.2-2.9-1-.8-.8-1.7-1.3-1.9-1.1-.7.7-11.3-3.1-11-3.8.5-1.5.1-2.1-.6-1-.5.9-2.7.7-8.7-.7-4.4-1-11.8-2.4-16.5-3.1-10-1.4-40.3-1.4-47.9.1-6.8 1.3-9.1 1.3-7.2.1.7-.5 1.1-1.3.8-1.8-.4-.6.7-.9 2.8-.6 2.6.3 3.5 0 3.5-1.2 0-.8.8-1.5 1.9-1.5 2.3 0 1.8-3.9-1-6.9-1.1-1.2-1.8-2.1-1.5-2.1.3 0-.1-1.8-.9-3.9l-1.3-3.9 7.1-9.4c3.9-5.1 7.5-9.5 7.9-9.6.4-.2.8-.8.8-1.3 0-.6 2.6-4.9 5.8-9.7 5-7.4 10.7-16.3 14.2-22.2 5.1-8.6 14.2-25.3 14.5-26.7.2-1 1.3-4.5 2.5-7.8 2.8-7.9 3.9-22.7 2.3-30.6-.6-3.3-2.5-8.5-4.2-11.5-1.6-3-2.9-6.1-2.7-6.7.1-.7.1-.9-.2-.4-.2.4-2.7-1.4-5.5-3.9-17-15.4-39.8-14.4-62.7 2.6-12.8 9.5-40 40.2-42.5 47.9-1.3 4.1-4.3 2.5-7.4-3.9-1.6-3.3-2.5-6-2.1-6 .5 0-.3-1.2-1.7-2.8-2.5-2.7-15.3-23.9-15.3-25.3 0-.4-.3-.9-.8-1.1-.4-.2-2.3-2.3-4.1-4.8-1.9-2.5-4.8-5.9-6.4-7.6-2.5-2.7-2.7-3.5-1.7-5.3 1-2 1-2.1-.9-.9-1.8 1.1-2.5.8-5.8-2.3-2.1-2-5.1-4.6-6.8-5.8-1.6-1.3-2.8-2.6-2.5-2.9.3-.4-.6-.9-2-1-1.4-.2-5.1-1.2-8.2-2.3-6.7-2.2-14.4-2.3-20.9-.3zm15.1 34.5c0 .6.4.8.9.5 1.4-.9 12.6 11.5 18.4 20.5 5 7.8 14 24.1 26.7 48.6l5.2 10.1-4.3 5.1c-2.5 2.8-4.7 4.7-5.2 4.2s-2.2-6-3.7-12.3c-3.1-12.7-5.7-18.8-7.8-18.8-.8 0-2.7.8-4.3 1.7-1.5.9-3 1.5-3.3 1.2-.2-.2-4.8-9.2-10.3-19.9-9.6-18.9-14.5-31.3-15.9-40-.7-4.1-.6-4.2 1.5-3.1 1.1.7 2.1 1.6 2.1 2.2zm155.1 11.7c7.2 8.1 3.6 21.5-13.4 49.7-10.8 17.9-17.9 27.9-18.7 26.4-.4-.8-1.8-5.7-3-10.9-2.6-11.2-5.7-19-7.6-19-.7 0-3.2 1-5.4 2.1-2.3 1.2-4.3 1.9-4.6 1.6-.4-.3-1.1-.1-1.8.4-.6.5-1.9 1.5-2.9 2.2-1.5 1-1.6 1.8-.8 3.9.5 1.4 1.7 6.1 2.6 10.5 1.9 8.9 1.7 8.1 4.7 19 2.6 9.5 2.5 9.8-5.9 19.5-2.9 3.3-5 6.5-4.7 7 .3.5 0 .7-.7.6-.6-.2-1.4.3-1.7 1.1-.3.9 0 1.1.9.6.8-.5 1.1-.4.6.1-.5.5-1.4.9-2 .9-.7.1-1.1.7-.9 1.5.2.8 0 1.2-.4.8-.9-1-3.5 1.2-2.8 2.3.3.5.1.8-.4.7-.9-.3-5.5 4.8-11.9 12.9-1 1.3-2.3 2.3-2.8 2.3-1.2 0-12-20.8-11.8-22.8 0-.6-.3-1.2-.8-1.2-.4 0-2.7-3.2-5-7.1l-4.2-7 7.3-7.4c7.3-7.3 7.4-7.4 11.6-6.8 5.6.7 12.7-2.6 15.9-7.6 1.3-2 3.3-7.3 4.5-11.9 1.5-5.6 4-11.3 7.7-17.4 3.1-5 5.6-9.7 5.7-10.5.7-4.8 24.9-31.3 28.5-31.3 1 0 2.1-.8 2.3-1.8.3-1.1 3-3.1 5.9-4.6 6.9-3.5 12.2-3.1 16 1.2zM1408.3 513c.9 0 1.7-.7 1.7-1.6 0-1.4 1-1.6 7.3-1.1 8.5.7 14.7 1.6 15.7 2.2.4.2 2.2.7 4.1 1 10.3 1.7 47.9 17.2 47.9 19.7 0 .5-.7 1.6-1.5 2.5-1.2 1.1-1.3 1.8-.4 2.9.8 1 .7 1.2-.8 1-1.3-.3-1.9.2-2 1.5-.2 2.4 1.6 2 4-.9 1-1.2 2.8-2.2 3.9-2.2 1.7 0 1.8.3.8 1.5-.6.8-.9 1.9-.5 2.5.4.6-.5 1.1-2.2 1.2-1.5 0-3.7.2-4.8.2-1.1.1-2.5.4-3.1.8-2.4 1.5-21.2 3-30.8 2.5-16.5-.9-29.6-5.5-38.8-13.6-5.5-4.9-12.6-17.6-11.1-20 1.4-2.2 5.5-3 7.4-1.4.8.7 2.3 1.3 3.2 1.3zm118.6 1.7c1.1 2.2 1 2.2-1.4 1.1-1.9-.9-2.2-1.4-1.3-2.5 1.2-1.5 1.1-1.6 2.7 1.4zm100.5 4.9c.3.8.2 1.2-.4.9-.6-.3-1-1-1-1.6 0-1.4.7-1.1 1.4.7zm-8.8 2.9c.4.9 1.5 2 2.7 2.6 1.8 1 1.9.9 1.3-1.6-.4-1.5-.3-2.4.2-2.1.5.3 1.2 1.7 1.4 3.1.4 1.9.1 2.5-1.2 2.5-1 0-3.3.2-5.1.5-1.9.3-2.8.3-2.1-.1 1.7-.8 1.5-2.4-.3-2.4s-1.9-1.2-.3-2.8c1.6-1.6 2.7-1.5 3.4.3zm-128.2 12.3c.3.5-.1.9-.9.9s-1.2-.4-.9-.9c.3-.4.7-.8.9-.8.2 0 .6.4.9.8zm3.7 7.1c-.7 1.3-1.7 1.8-2.7 1.4-1.4-.5-1.3-.9.7-2.4 2.8-2.1 3.5-1.8 2 1zm14.9 2.9c0 .7.5 1 1.1.6 1.5-.9 23.9 9.6 23.9 11.2 0 1.6-2.4 7.3-10.7 25.2-6.1 13.1-6.8 14.3-8.9 13.8-1.2-.3-2.4-.3-2.7.2-.2.4-.3.2-.1-.3.1-.6-2.2-2.3-5.1-3.9-2.9-1.5-6.1-3.6-7-4.7-1.7-1.8-1.6-2.2 2.5-8.8 2.3-3.9 4.8-9.2 5.6-11.8 2.9-9.3-1.1-18.2-9.4-21.4l-2.5-1 2.3-2.4 2.2-2.4 4.4 2.2c2.4 1.1 4.4 2.7 4.4 3.5zm175.5 12.7c26.6 5.6 45.5 15.2 45.5 23.3 0 7-11.2 14.5-26.2 17.6-9 1.9-17.6 2-28.4.5-8-1.1-24.3-5.4-25.7-6.8-.5-.5.6-2.9 2.4-5.4 4-5.7 4.2-10.8 1.3-28.6l-.5-3.4 11.8.6c6.5.3 15.4 1.3 19.8 2.2zm-37.5-.6c0 3-20.6 18.7-32 24.4-4.3 2.1-7.5 4.6-7.2 5.6.1.6-.2 1.1-.8 1.1-.5 0-1-.8-1-1.8-.1-1.1-.8-.4-2.1 1.8-1.4 2.6-1.8 2.8-1.3 1 .6-2.2.5-2.3-.9-1.2-1.3 1.1-1.7 1-2.6-.7-1.8-3.2-6.1-22.5-5.3-23.3.4-.4 9.5-2 20.2-3.7 10.7-1.7 20.6-3.2 22-3.4 4.9-.8 11-.7 11 .2zm-200 22c0 .5-.9.7-2 .4-1.1-.3-2-.7-2-.9 0-.2.9-.4 2-.4s2 .4 2 .9zm54.5 15.1c.3.6-.1.7-.9.4-1.8-.7-2.1-1.4-.7-1.4.6 0 1.3.4 1.6 1zm11.1 6.8c-.6.5-7.6-3.2-7.6-4 0-.5 1.8.2 3.9 1.4 2.2 1.2 3.8 2.4 3.7 2.6zm-13.8 15.7c2.3 1.5 4.2 3 4.2 3.2 0 .9-8.5 13.1-13.6 19.4-8.2 10.3-18.9 16.1-20.8 11.3-1.5-4 4.4-21.9 12.2-36.6l4.6-8.7 4.6 4.3c2.5 2.4 6.5 5.6 8.8 7.1zM1622 611c0 .5 5.6 6.5 12.4 13.4 16.8 16.8 29.2 33.8 37.6 51.8 3.2 6.9 5.9 17.3 4.7 18.4-1.4 1.5-14.6-8.9-24.8-19.3-15.4-15.8-29.2-35.1-38.7-54l-3.2-6.2 5.3-2.5c5.9-2.8 6.7-3 6.7-1.6zm-85.9 20.1c-1.2 1.2-2.5 1.8-2.8 1.5-.9-.9 1.8-3.6 3.5-3.6 1.2 0 1.1.5-.7 2.1zm153.4 5.9c.3.5.2 1-.4 1-.5 0-1.3-.5-1.6-1-.3-.6-.2-1 .4-1 .5 0 1.3.4 1.6 1z"/><path d="M1480.6 534.2c.3.5 1 .6 1.5.3 1.3-.9 1.1-1.2-.6-1.2-.8 0-1.2.4-.9.9zM1532 348c0 .5.4 1 .9 1 .6 0 1.3-.5 1.6-1 .3-.6-.1-1-.9-1-.9 0-1.6.4-1.6 1zM1539 366c2 1.3 3.3 1.3 2.5 0-.3-.6-1.4-1-2.3-1-1.5 0-1.5.2-.2 1zM1551.2 379.5c0 1.6.2 2.2.5 1.2.2-.9.2-2.3 0-3-.3-.6-.5.1-.5 1.8zM282.6 386.7c-.2 1-.7 3.2-1.1 5-.4 1.8-1.7 3.9-3.2 4.8l-2.5 1.7.7-3.1c.4-1.7.3-3.1-.2-3.1-.8 0-4 8.8-5.4 15-.7 3.2-.7 3.3.7 1.6.8-1.1 1.4-2.3 1.4-2.8 0-.4.4-.8.9-.8s.7.9.4 2c-.8 3.2 1.7 2.4 2.8-.9.6-1.6 1.7-3.2 2.6-3.5 1.1-.5 1.2-1 .4-1.9-.8-1-.7-1.9.4-3.3.8-1 1.5-2.7 1.5-3.7 0-.9.4-1.7.9-1.7s.9-1.6.8-3.5c-.1-3.9-.3-4.3-1.1-1.8zm-5.3 14.3c.6 2.2-.7 3.5-2.3 2.5-1.5-.9-1.2-4.5.4-4.5.7 0 1.6.9 1.9 2z"/><path d="M277.5 387.3c-.4 1-.5 2.1-.1 2.4 1 1 1.8-.4 1.3-2.4-.4-1.7-.4-1.7-1.2 0zM1560.7 386.7c-.4.3-.7 1.1-.7 1.7 0 .6.5.5 1.2-.2.6-.6.9-1.4.7-1.7-.3-.3-.9-.2-1.2.2zM1552.1 388.6c0 1.1.3 1.4.6.6.3-.7.2-1.6-.1-1.9-.3-.4-.6.2-.5 1.3zM412.4 398.7c-18.5 39.6-39.6 88.9-64.9 151.8l-18.2 45-6 2.2c-3.3 1.2-14.3 4-24.4 6.2-21.4 4.8-32.1 7.9-33.1 9.4-.8 1.3.1 6.7 1.4 8.3.4.6.6 1.9.2 2.8-.3.9 1.1 5 3.5 9.8 2.3 4.4 4.1 9 4.1 10 0 1.6.9 1.8 6.9 1.8 3.8 0 11.3-.9 16.6-2 15.7-3.2 15.1-3.7 10.4 7.7-7.4 18.2-12.3 39.8-9.1 39.8.7 0 1.6.5 2 1.1.4.6 2 1.4 3.6 1.8 2.1.5 3.2.2 4.2-1.1 1.3-1.7 1.3-1.7 1.4.2 0 1.4.7 2 2.5 2.1 1.4.1 2.5-.2 2.5-.7 0-1.5 3.1-1 6.5 1.1 2.9 1.8 3.3 1.9 3.9.4.6-1.6 2.9-1.6 8.2.1 1.9.6 2.5-.2 5.4-7.7 1.7-4.5 4.5-13.7 6.2-20.3 1.7-6.6 3.4-12.2 3.8-12.5 1.2-.8 2.4-5.3 2.1-7.7-.1-1.2.7-5.1 1.8-8.7 1.1-3.6 1.8-7.4 1.4-8.4-.3-.9-.3-1.4.1-1 .4.3 2.3-.4 4.2-1.7 1.8-1.2 6.6-3.1 10.6-4 4-1 8.6-2.4 10.1-3.2 1.5-.8 3.2-1.1 3.7-.8.4.3 3.2-.3 6.2-1.4 2.9-1.1 7.2-2.2 9.5-2.6 4.1-.6 4.2-.6 4.7 2.7.3 1.8.8 12.5 1.1 23.8.6 23.5 1.7 32.4 4.6 36.2 1 1.5 2.4 3.9 2.9 5.4.9 2.2.7 2.7-1 3.1-2.2.6-2.6 1.8-.9 2.9.6.3 1.5.1 1.9-.6.8-1.4 2 .9 2 4.1 0 1 .7 1.9 1.5 1.9 1.7 0 2.1-3.5.5-4.5-.5-.3-1-2.2-1-4.1 0-4.8 1.6-3.5 2.4 2 .4 2.4 1.3 5.2 2.1 6.2 1.4 1.7 1.4 1.5.9-2.6-.3-2.5-1-5.5-1.6-6.7-.6-1.2-.7-2.9-.2-4 .6-1.5.9-1.2 1.2 1.4.5 4.9 2.2 4 2.2-1.2 0-2.5.4-4.5.8-4.5.5 0 .7-2.4.4-5.4-.4-5.3-.3-5.5 1.8-4.9 1.9.5 2 .7.6 1.5-2 1.1-2.1 2.8-.1 2.8.8 0 2.2-1.4 3.1-3.1.8-1.7 1.1-2.8.5-2.5-.6.4-1.1 0-1.1-.8 0-.9.5-1.6 1-1.6.6 0 1-.7 1-1.5s-.6-1.5-1.4-1.5c-.8 0-1.8-.5-2.2-1.2-.5-.8 0-.9 1.4-.6 2.3.6 2.6-.3 1.2-3.7-.5-1.3-.3-2.6.7-3.7 1.1-1.2 1.3-2.8.8-5.5-.4-2.1-.7-5.9-.8-8.5-.1-2.5-.5-5-.9-5.4-.5-.4-.8-1.4-.8-2.2 0-.9.3-1.2.7-.9.9 1 4.3-2.3 4.3-4.2-.1-1.4-.2-1.4-1.4.2-1.3 1.6-1.4 1.6-2-.5-.9-3.6-.8-4 1.7-3.6 2.1.3 2.2.8 2.4 10.3.1 5.5.4 11.6.7 13.6.4 2.2 0 4.3-.9 5.6-1.4 1.9-1.3 2.7.4 7 1.9 4.6 2 4.7 2 1.6.1-1.7-.3-3.5-.9-3.8-.5-.3-1-1.4-1-2.3 0-1.5.2-1.5 1-.2s1 1.2 1-.3c0-.9.4-1.7.9-1.7.4 0 .2-2-.7-4.5-1.5-4.7-1-9.3.8-6.5.7 1.1 1 .6 1-1.8s-.5-3.2-1.7-3.3c-1.7 0-1.7-.1-.2-1.1 1.4-.9 1.5-1.6.6-3.5-.7-1.6-.7-3.3 0-5.8 1.3-4 .7-7.5-1.3-7.5-.8 0-1.1.6-.8 1.5 1 2.4-1.4 1.7-3.1-.9-1.6-2.4-1.1-6.1.7-5 .6.4.7-.2.3-1.6-.6-2-.5-2.1.8-.9.8.8 1.2 1.9 1 2.6-.3.7-.2 1.7.2 2.3.9 1.4 3.6-3.6 3.3-5.8-.2-.8.3-1.7 1-1.9.8-.3 1.2.8 1.2 3.7 0 2.3.4 3.9.8 3.6.5-.3.7-2.3.6-4.5-.1-2.3.2-4.1.7-4.1.5 0 .9 1.1.9 2.5s.5 2.5 1 2.5c.6 0 1-1.4 1-3 0-1.7.5-3 1.3-3 .7 0 1.8-.9 2.5-2 1.4-2.3 4.4-2.8 3.6-.5-.5 1.2 0 1.4 2.7.9 5-.9 6.1-1.3 5.5-2.3-.3-.4.9-.8 2.7-.7 2.8.1 3.2-.2 2.9-2.3-.5-3-3.2-7-4.9-7.1-.6 0-1.3 1-1.5 2.1-.5 3.6-11.8 6.1-11.8 2.7 0-.6-.8-1.6-1.7-2.3-1.6-1.2-1.6-3.1-.5-26.6 1.5-31.5 1.6-47.6.1-48.4-1.4-.9-1.5-.7-2.2 4.7-.6 4.5.6 6.8 1.6 3 .3-.9.5.6.6 3.5.1 7.2-1.2 10.2-2 4.3l-.6-4.5-.2 5c-.1 2.7-.6 6.8-1.1 9-.7 2.9-.8.3-.6-9 .3-10.2.1-13.3-1-14.3-.8-.7-1.4-2.3-1.4-3.4 0-1.7.3-1.9 1.2-1 .7.7 1.6 1.2 2 1.2 1 0 1.1-4.7.1-5.3-.5-.2-.2-.2.5-.1.6.2 1.2-.1 1.2-.5 0-.5-.6-1.1-1.2-1.4-1-.3-1-.9-.2-2.3 1.5-2.8 1.2-15-.3-14.7-1.6.4-1.7-4.6-.2-6.7.7-1.1.8-.6.4 1.9-.5 2.3-.4 3.1.4 2.7 1.3-.9 1.9-4.5 2.9-18.9.5-7 1.4-12.3 2.1-13 1-1 1.2 0 .9 4.5-.2 3.3.1 5.3.6 4.8s1-5.9 1.3-12c.2-6.2.8-12.3 1.3-13.6.6-1.5.5-2.6-.1-3-.8-.4-.7-.9.2-1.4 1.6-1 3.5-20.8 2.5-27.1l-.7-4.7-5.2-.6c-6.7-.9-16.5-4.2-19.9-6.7-1.5-1-3.4-1.9-4.2-1.9-.9 0-1.3-.6-1-1.3.4-1.2-5.2-4.7-7.6-4.7-.5 0-2.6 3.5-4.6 7.7zM402 454.1c0 .6-.4.7-1 .4-.5-.3-1-1.1-1-1.6 0-.6.5-.7 1-.4.6.3 1 1.1 1 1.6zm32 11.1c0 1.9-.2 2-1 .8-1.3-1.9-1.3-3 0-3 .6 0 1 1 1 2.2zm-29 1.4c0 .8-.5 1.2-1 .9-.6-.4-.8-1.1-.5-1.6.9-1.4 1.5-1.1 1.5.7zm34 .8c0 .8-.4 1.8-1 2.1-.5.3-1-.3-1-1.4 0-1.2.5-2.1 1-2.1.6 0 1 .6 1 1.4zm-29.7 5.4c-2.2.5-2.7-.6-1.2-2.4 1.2-1.5 1.4-1.4 2 .3.4 1.2.1 1.9-.8 2.1zm31.9.4c-.9.9-1.2.7-1.2-1.2s.3-2.1 1.2-1.2c.9.9.9 1.5 0 2.4zm-36.7.8c0 .7-.5 1.5-1.2 1.7-.7.3-1.1-.4-1-1.6.1-2.3 2.2-2.3 2.2-.1zm29.5 1.2c0 .5-.4.8-1 .8-.5 0-1-1-1-2.3 0-1.8.2-1.9 1-.7.5.8 1 1.8 1 2.2zm3.1 1.1c-1.3 1.3-1.5-.1-.4-3 .7-1.7.8-1.7 1.1.1.2 1-.1 2.3-.7 2.9zm7.3-2.8c-.4.8-.8 1.5-1 1.5-.2 0-.4-.7-.4-1.5s.4-1.5 1-1.5c.5 0 .7.7.4 1.5zm-14.3 4.8c-1 .9-1.1.8-.5-.6.3-1 .9-1.5 1.2-1.2.3.3 0 1.1-.7 1.8zm12.9.7c0 .6-.6 1-1.4 1-.8 0-1.7.6-2 1.2-.2.7-.4-.1-.3-1.9.1-2.7.4-3 1.9-2.2 1 .5 1.8 1.4 1.8 1.9zm-32.7 1.8c-.4 1.8-.8 2-1.9 1.1-1.9-1.5-1.8-2.7.4-3.1 2.2-.6 2.2-.6 1.5 2zm25.8 6.5c-.8.8-1.1.4-1.1-1.4 0-3.3 1.4-4.7 1.8-1.9.2 1.2-.1 2.7-.7 3.3zM430 484c0 .5-.2 1-.4 1-.3 0-.8-.5-1.1-1-.3-.6-.1-1 .4-1 .6 0 1.1.4 1.1 1zm-20.7 2c.3 1.1.1 2-.4 2-.4 0-1.3-.9-1.9-2-.8-1.6-.8-2 .3-2 .8 0 1.7.9 2 2zm31.4 1.6c-1 6.2-2.7 6.3-1.9.1.2-2 .9-3.7 1.4-3.7.7 0 .8 1.4.5 3.6zm-34.9 2.3c-.7 1.1-1.6 1.7-2 1.4-1-.5 1-3.3 2.3-3.3.5 0 .4.9-.3 1.9zm25.9 2.8c-.3 1-.5.2-.5-1.7s.2-2.7.5-1.8c.2 1 .2 2.6 0 3.5zm5.3-1.6c0 .6-.4.7-1 .4-.5-.3-1-1.1-1-1.6 0-.6.5-.7 1-.4.6.3 1 1.1 1 1.6zm-28.3 4.5c.1 2.1-.7 18.2-1.8 35.6-1 17.5-1.9 34.7-1.9 38.3v6.4l-3.7 1c-22.9 6-31 8.1-32 8.1-1.3 0-.5-2.9 3.8-13.2 3-7.3 2.5-9.5-1-4.8-1.2 1.7-1.7 3-1.1 3 .6 0 .8.4.5 1-1 1.7-2.5 1.1-2.5-1 0-1.1.4-2 .8-2 1.3 0 3-6.5 2.5-9.4-.3-1.4 0-3.3.7-4.1 1-1.2 1-1.9.2-2.7-.7-.7-1.2-1.9-1.2-2.7.1-1.3.3-1.3 1.1.2.6.9 1.5 1.4 2.1 1.1.8-.5.9-.1.5.9s-1 2.4-1.3 3.2c-.3.8-.1 1.5.5 1.5s1.1-.5 1.1-1.2c0-.6.3-.8.7-.5.3.4.1 1.8-.6 3.1s-1.1 3.2-.9 4.2c.3 1.4.9.9 2.5-2.4 1.2-2.3 1.8-4.2 1.3-4.2-1.1 0-2-9.7-1.1-12.2l.8-2.2 1.2 2.1c.6 1.2 1.1 2.8 1 3.5 0 1-.2 1-.6 0-.2-.6-.9-1-1.4-.7-1.3.8 1.3 3.3 2.8 2.8.7-.3 1.3-2.1 1.3-4.2 0-2.8-.3-3.3-1.1-2.1-.9 1.3-1 1.3-.6 0 .2-1 1.6-1.5 4-1.5 3.5 0 7.7-3 7.7-5.5 0-.5.9-1 2-1 1.2 0 2-.7 2-1.6 0-1.1-.5-1.4-1.6-1-.9.3-1.8.6-2 .6-.3 0-.9 1.1-1.4 2.5-.9 2.2-1.2 2.4-3 1.3-2.4-1.5-2.5-2.6-.5-5.2.8-1.1 1.5-2.9 1.4-4 0-1.4-.9-.4-2.4 2.9-2.8 5.8-3.1 5.1-1-2 .9-2.7 1.3-5.5 1.1-6.2-.7-1.7.3-4.3 1.7-4.3.8 0 .8.3 0 1.1s-.6 2 .6 4.2c1.6 3.2 1.6 3.2 1.9.7.2-1.4.8-3 1.3-3.6.5-.6.7-1.9.3-2.8-.8-2 .9-2.1 2.6-.1 1.8 2.2 2.5 1.1 2.6-4.1.1-3.5-.1-4.2-1.1-3.4-1.8 1.5-2.8-.3-2-3.3.5-2 .5-2-.9.3-1.3 2.3-1.5 2.3-2.2.6-1-2.5 1.2-3.7 5.9-3.1 3.3.3 3.7.2 3.7-1.9 0-1.3.7-2.9 1.6-3.7 1.3-1.1 1.4-.9.9 1.7-.6 2.7-.5 2.6 1.4-.8 2.5-4.5 2.6-5.5.6-3.8-2.1 1.8-2.9.6-1.3-1.9 1.9-3 3.3-2 3.5 2.5zm30.5 8.6c-.3 6.3-.8 9.5-1.5 9.1-.6-.3-.8-3.5-.4-8.2.5-6.6 1.5-11.8 2.2-10.9.1.2 0 4.7-.3 10zm-40.2-5.4c0 1.5-.2 1.5-1 .2-1.3-2-1.3-3.3 0-2.5.6.3 1 1.4 1 2.3zm44-1.3c-.7.9-1.5 1.3-1.7 1.1-.7-.7.7-2.6 1.9-2.6.6 0 .6.6-.2 1.5zm-7.9 1.8c-1 .9-1.1.8-.5-.6.3-1 .9-1.5 1.2-1.2.3.3 0 1.1-.7 1.8zm-3.1 1.2c0 1.4-.4 2.5-.9 2.5-.4 0-.6-1.1-.3-2.5.2-1.4.6-2.5.8-2.5.2 0 .4 1.1.4 2.5zm-3 1c0 .8-.4 1.5-1 1.5-.5 0-.7-.7-.4-1.5.4-.8.8-1.5 1-1.5.2 0 .4.7.4 1.5zm6 7.6c0 1.6-.4 2.8-.9 2.5-.8-.5-.3-5.6.5-5.6.2 0 .4 1.4.4 3.1zm-58.8 5.1c-.9.9-1.2.7-1.2-1.2s.3-2.1 1.2-1.2c.9.9.9 1.5 0 2.4zm59.3.9c1.1 1.7-.1 2.1-1.5.4-.8-.9-.8-1.5-.2-1.5.6 0 1.4.5 1.7 1.1zm-5 .9c.3.6-.4 1-1.7 1-1.8 0-2-.2-.8-1 1.9-1.2 1.8-1.2 2.5 0zm-44.8 3.5c-.4.8-1.1 1.5-1.7 1.5-.7 0-.7-.6 0-2.1 1.3-2.3 2.6-1.9 1.7.6zm52.5 5c-.2 1.9-.8 3.5-1.3 3.5s-.7-1-.5-2.3c.3-1.2.5-3.3.5-4.7.1-1.6.4-2.1.9-1.3.4.7.6 2.9.4 4.8zM427 522c0 1.1-.4 2-.9 2s-.7-.9-.4-2c.3-1.1.7-2 .9-2 .2 0 .4.9.4 2zm7 4.4c-1.6 1.6-2.2 0-1.4-3.6l.7-3.3.8 3c.5 1.7.5 3.3-.1 3.9zm7.4-1.8c.4.9.4 1.9.2 2.1-.8.8-2.6-.8-2.6-2.3 0-1.9 1.6-1.8 2.4.2zm-56.2 2.6c-.7.7-1.2.8-1.2.2 0-1.4 1.2-2.6 1.9-1.9.2.3-.1 1.1-.7 1.7zm-3.2.3c0 .8-.4 1.5-1 1.5-.5 0-.7-.7-.4-1.5.4-.8.8-1.5 1-1.5.2 0 .4.7.4 1.5zm52 3.8c0 .5-.4.5-1 .2-.5-.3-1-1.4-1-2.3 0-1.5.2-1.5 1-.2.5.8 1 1.9 1 2.3zm4 1.2c0 .8-.4 1.7-1 2-.6.4-1-.5-1-2s.4-2.4 1-2c.6.3 1 1.2 1 2zm-9 .5c0 1.1-.4 2-.9 2s-.7-.9-.4-2c.3-1.1.7-2 .9-2 .2 0 .4.9.4 2zm-50 2.4c0 .3-.4.8-1 1.1-.5.3-1 .1-1-.4 0-.6.5-1.1 1-1.1.6 0 1 .2 1 .4zm53.6 5.4c-1.2 1.2-1.8-.8-1-3.5l.8-2.8.4 2.8c.2 1.6.1 3.1-.2 3.5zm4.6.8c.5 3.9-.4 5.1-2.2 3-.9-1.1-.9-2 .1-3.7.9-1.7.9-2.4 0-2.7-.6-.2-1.1-.8-1.1-1.4 0-2.6 2.8 1.6 3.2 4.8zM382 538c0 .5-.2 1-.4 1-.3 0-.8-.5-1.1-1-.3-.6-.1-1 .4-1 .6 0 1.1.4 1.1 1zm7 0c0 .5-.4 1-.9 1-.6 0-1.3-.5-1.6-1-.3-.6.1-1 .9-1 .9 0 1.6.4 1.6 1zm56.7 10.5c-.6 1.9-1.2 3.4-1.3 3.2-.7-.7.9-7.6 1.6-7.2.5.3.3 2.1-.3 4zm-76.6 3.2c-.8 1.5-1 1.5-1.1.2 0-1.7 1-3.2 1.8-2.5.2.3-.1 1.3-.7 2.3zm73.4 6.2c0 3.8-.3 7.3-.7 7.7-.5.4-.8-1.6-.8-4.4 0-2.9-.5-5.2-1-5.2-.6 0-.3-1.1.6-2.5.9-1.4 1.7-2.5 1.8-2.5 0 0 .1 3.1.1 6.9zm-71.2-2.4c-.8 2.2-2.2 1.8-1.6-.5.3-1.1.9-1.7 1.4-1.5.4.3.6 1.2.2 2zm64.3 1.5c.8 0 1.4.5 1.4 1.1 0 2.3-3.5.3-3.7-2.1-.1-1.5 0-1.8.3-.8s1.2 1.8 2 1.8zm9.2 3.5c-.8.7-.9.5-.5-.7.3-1 .2-2-.3-2.3-.5-.3-.6-1.3-.3-2.2.5-1.3.9-1.1 1.5 1.2.5 1.9.3 3.3-.4 4zm-.2 5.1c-.4.9-.9 1.5-1.1 1.2-.3-.3-.3-1.3.1-2.2.4-.9.9-1.5 1.1-1.2.3.3.3 1.3-.1 2.2zm-25.2-.1c.3.8.1 1.5-.4 1.5-.6 0-1-.7-1-1.5s.2-1.5.4-1.5.6.7 1 1.5zm6.1-.5c.3.5.2 1-.4 1-.5 0-1.3-.5-1.6-1-.3-.6-.2-1 .4-1 .5 0 1.3.4 1.6 1zm14.5.5c0 .8-.4 1.5-1 1.5-.5 0-.7-.7-.4-1.5.4-.8.8-1.5 1-1.5.2 0 .4.7.4 1.5zm-3.5.6c.4.6.4 1.3 0 1.7-.4.4-1 .1-1.2-.6-.3-.6-.9-1-1.4-.6-.5.3-.9 0-.9-.5 0-1.4 2.7-1.4 3.5 0zm8.2 5.1c-.3.8-.6.5-.6-.6-.1-1.1.2-1.7.5-1.3.3.3.4 1.2.1 1.9zm-2.7 4.1c0 1.6.3 1.8.9.8 1.3-2.1 2.1.2 1.1 3.5-.4 1.6-.9 2.5-.9 2-.1-.5-.8-.3-1.6.4-1.1.9-1.2 1.7-.4 3.2 1.2 2.1.4 3.7-1 2.2-1.2-1.2-.1-15.5 1-14.8.5.3.9 1.5.9 2.7zm-73.7-.9c.3.8.3 1.7 0 2-.9.9-3.4-1.5-2.7-2.5.8-1.3 2.1-1.1 2.7.5zm34.7 6.2c0 .2-.7.4-1.5.4s-1.5-.4-1.5-1c0-.5.7-.7 1.5-.4.8.4 1.5.8 1.5 1zm-38.5.4c.3.5.1 1-.4 1-.6 0-1.1-.5-1.1-1 0-.6.2-1 .4-1 .3 0 .8.4 1.1 1zm37.9 3.5c-.6 1.6-2.4 2.1-2.4.7 0-1.1 1.1-2.2 2.1-2.2.5 0 .6.7.3 1.5zm-2.4 3.4c0 .5-.9 1.1-2.1 1.4-1.6.4-1.8.3-.8-.9 1.3-1.6 2.9-1.9 2.9-.5zm4 .1c0 .5-.4 1-1 1-.5 0-1-.5-1-1 0-.6.5-1 1-1 .6 0 1 .4 1 1zm29.2 11.2c-.7.7-1.2.8-1.2.2 0-.6.3-1.4.7-1.7.3-.4.9-.5 1.2-.2.2.3-.1 1.1-.7 1.7zm7.6 2.4c-.4.3-1.2-.5-1.8-1.8-1.2-2.2-1.2-2.2.6-.6 1 1 1.5 2 1.2 2.4zm-40.8-.1c0 .8-.4 1.5-1 1.5-.5 0-.7-.7-.4-1.5.4-.8.8-1.5 1-1.5.2 0 .4.7.4 1.5zm-5.4 4.2c-1.1 1.1-1.9-.6-1.1-2.4.8-1.7.8-1.7 1.2 0 .3 1 .2 2.1-.1 2.4zm4.4-.3c0 .3-.4.8-1 1.1-.5.3-1 .1-1-.4 0-.6.5-1.1 1-1.1.6 0 1 .2 1 .4zm-7.7 3.6c-.4 1.7-.8 1.8-2 .8-1.3-1-1.3-1.3.4-1.9 1-.4 1.9-.8 2-.8 0-.1-.1.8-.4 1.9zm4.7-1c0 .5-.5 1-1.1 1-.5 0-.7-.5-.4-1 .3-.6.8-1 1.1-1 .2 0 .4.4.4 1zm25.9 9.2c.1.5-.5.8-1.3.8-.9 0-1.2-.8-.8-2.7.5-2.5.6-2.5 1.3-.8.4 1.1.8 2.3.8 2.7zM351 638.5c-.7 2-1.4 3.4-1.7 3.1-.3-.2.1-2 .8-4 1.7-4.6 2.5-3.8.9.9zm78.4 7c-.4.8-.8 1.5-1 1.5-.2 0-.4-.7-.4-1.5s.4-1.5 1-1.5c.5 0 .7.7.4 1.5zM415 656.6c0 .8-.4 1.2-1 .9-.5-.3-1-1.3-1-2.1s.5-1.2 1-.9c.6.3 1 1.3 1 2.1zm12-.2c0 .2-.7.9-1.5 1.6-1.2 1-1.5 1-1.5-.4 0-.9.7-1.6 1.5-1.6s1.5.2 1.5.4zm-8 3.8c0 1.6-.3 1.9-1.1 1.1-.6-.6-.8-1.6-.5-2.2 1.1-1.7 1.6-1.3 1.6 1.1zm6 2.6c0 1.5-.2 1.5-1 .2-1.3-2-1.3-3.3 0-2.5.6.3 1 1.4 1 2.3zm2.3 1.2c.3 1.1.1 2-.4 2s-.9-.9-.9-2 .2-2 .4-2 .6.9.9 2zm-16.3 2c0 1.9-1.1 2.6-2.3 1.4-.8-.8.3-3.4 1.4-3.4.5 0 .9.9.9 2zm9 7c0 1.1-.4 2-1 2-.5 0-1-.9-1-2s.5-2 1-2c.6 0 1 .9 1 2zm-2.7 3.6c.7-.1.9-.1.5.1-.5.3-.8 1.4-.8 2.6 0 1.2-.4 1.7-.9 1.1-1.2-1.3-2.1-7-1.3-7.9.4-.4.8.5 1 1.8.2 1.4.9 2.5 1.5 2.3z"/><path d="M401.1 506.8c-.7 1.3-1.1 2.6-.8 2.8.8.8 2.9-2.5 2.5-3.8-.3-.8-.9-.4-1.7 1zM391.5 540.1c-.4.6-.5 1.2-.2 1.5.2.3.7-.2 1-1.1.7-1.7.1-2-.8-.4zM379 551.6c0 .8.5 1.2 1 .9.6-.3 1-1 1-1.6 0-.5-.4-.9-1-.9-.5 0-1 .7-1 1.6zM386 554.6c0 .8.5 1.2 1 .9.6-.3 1-1 1-1.6 0-.5-.4-.9-1-.9-.5 0-1 .7-1 1.6zM376 570.6c0 .8.5 1.2 1 .9.6-.3 1-1 1-1.6 0-.5-.4-.9-1-.9-.5 0-1 .7-1 1.6zM777.7 414.2c-19.5 42.9-36.4 82.7-59.6 140.3-8.6 21.4-16 39.5-16.4 40.2-1.1 1.8-13.7 5.5-32.7 9.8-24.2 5.4-30.7 7.4-31.3 9.6-.3 1.1-.1 1.9.4 1.9s.9 1.3.9 3c0 1.6.4 3 .8 3 .5 0 .7 1.3.4 2.9-.3 1.9.7 5 3.2 9.6 2 3.8 3.6 7.9 3.6 9.2 0 2.2.3 2.3 7.8 2.3 4.2 0 11.5-.9 16.2-2 10.1-2.3 14.4-2.5 13.7-.8-8.1 19.7-11.6 31-13.2 42-.8 6-.8 6.3.8 6.3.6 0 1.7.7 2.2 1.5 1.3 1.9 5.6 2.4 6.7.8.6-.9 1-1 1.6-.2 1 1.6 5.2 2.8 5.2 1.5 0-1.8 4-1.2 7 .9 2.5 1.8 2.9 1.8 3.4.4.6-1.6 1-1.6 9-.2 1.7.2 2.5-1.2 5.2-8.2 1.8-4.7 4.5-13.7 6-20 1.5-6.3 3.1-11.7 3.4-12 2-1.5 4-7.7 2.1-6.6-.5.3.2-3.1 1.5-7.6s2.1-9.1 1.8-10.3c-.4-1.1-.3-1.7.1-1.3.4.4 2.1-.2 3.8-1.4 2.8-2 20-7.5 25.7-8.2 1.4-.2 4.3-1.1 6.5-1.9 2.2-.9 6-1.8 8.5-1.9l4.5-.3.6 9.5c.4 5.2.7 14.7.8 21 .2 17.9 1.7 27.3 5.4 34.2 2.7 4.9 3 6 1.7 6.7-.8.6-1.8.7-2.2.5-.4-.3-.8-.1-.8.4 0 .6.7 1.2 1.5 1.6.8.3 1.5.1 1.5-.5s.5-.7 1-.4c.6.3 1 2 1 3.6 0 2.4.4 3 1.8 2.7 1.8-.3 2.5-3.4.7-3.1-.6.1-.8-1.8-.6-4.5l.4-4.7 1.6 6.4c.9 3.6 2.1 6.6 2.8 6.8 1.1.4.7-2.1-1.6-9.7-.4-1.4-.4-3.5 0-4.5.4-1.1.8-1.6.9-1 .1.5.3 1.4.5 2 .1.5.3 1.7.4 2.5.2.8.7.1 1.2-1.5.5-1.7.6-3.8.3-4.8-.3-.9-.1-1.7.5-1.7s1.1-.9 1.1-2-.7-2-1.5-2-1.5-.5-1.5-1.1c0-.5.4-.8.9-.5.5.3 1.1-.8 1.4-2.4.5-2.2 1.1-2.8 2.2-2.4 1.4.6 1.4.8-.1 1.9-1.2.9-1.4 1.4-.5 1.9 1.4.9 4.1-1.1 4.1-2.9 0-.8.3-1.5.8-1.8.4-.2.1-.2-.5-.1-1.5.4-1.7-1.2-.3-2.1 1.5-.9 1.2-3.5-.4-3.5-.8 0-1.8-.5-2.2-1.2-.5-.8 0-.9 1.5-.5 2.1.5 2.3.3 1.7-2.8-.4-2-.2-4.2.5-5.2 1.2-1.9 0-16.9-1.6-20.7-.6-1.4-.5-1.8.6-1.4 1.7.6 3.8-2 3.8-4.7 0-1.8-.1-1.7-1.4.5-1 1.8-1.4 2-1.5.8 0-.9-.3-2.3-.6-3.2-.5-1.2 0-1.6 1.9-1.6 2.6 0 4.2 2.3 3 4.3-.9 1.5-.4 18.4.7 21.2.6 1.6.6 2.7-.1 3-.5.4-.7 1.6-.4 2.8.5 1.7.4 1.9-.4.7-2.2-3.2-2 0 .3 5.1 1.8 3.8 2.5 4.7 2.5 3.1.1-1.3-.4-3.2-.9-4.3-.8-1.5-.7-2.7.7-5.1 1.4-2.3 1.5-3.2.6-3.5-.8-.3-1.3-2.2-1.2-5.1 0-3.6.3-4.2.9-2.7.7 1.6.9 1.3.9-1.7.1-2-.5-3.9-1.1-4.2-1-.5-1-.7-.1-1.2.8-.4.9-1.3.2-3.3-.7-1.8-.6-3.7.1-5.5 1.2-3.4.3-7.6-1.7-7.6-1.3 0-1.3.3-.3 1.5.7.9 1.1 1.7.9 1.9-.5.5-3-1.4-4.7-3.5-1.3-1.7-.6-5.3.9-4.3.5.3.9 0 .9-.5 0-.6.5-1.1 1.1-1.1.6 0 .8.9.4 2s-.2 2 .4 2c1.4 0 3.6-4.1 3.2-6.3-.3-2 1.4-2.3 2.2-.4.3.7.3 2.5 0 4-.3 1.6-.1 2.7.6 2.7.6 0 1-1.7.8-4.5-.3-5.6 2-7.2 2.6-1.7l.4 3.7.1-3.8c.1-2.5.7-3.7 1.7-3.7.8 0 1.9-.9 2.5-2 1.2-2.3 4-2.7 4-.7 0 1 1 1.2 3.8.7 2-.3 3.6-1.1 3.5-1.7-.1-.6 1.2-.9 3.2-.6 4.1.4 4.4-.8 1.8-6.1-2-4-4-4.6-5.2-1.4-1 2.6-8.8 5.3-10.8 3.6-.7-.5-1-1.4-.7-1.9.3-.5-.3-.9-1.2-.9-1.6 0-1.7-1.7-1.1-23.3.4-12.7 1-29.7 1.3-37.7.7-14.2.6-14.6-1.4-14.7-1.7-.1-2.1.6-2.4 4-.3 2.3-.1 4.9.3 5.7.7 1.3.8 1.2.9-.2 0-.9.4-1.9.9-2.3 1.2-.7.2 10.7-1.1 12-.6.6-.7-.3-.3-2.6.4-2.3.3-3.9-.4-4.3-.8-.5-1.1 1.8-1.1 7.3 0 4.7-.4 8.1-1 8.1-1.2 0-1.2-9.6-.1-18.5.7-5.2.5-6.2-1.1-7.3-1-.7-1.8-2.3-1.8-3.5 0-1.6.3-1.8 1.2-.9.7.7 1.6 1.2 2 1.2 1 0 1.1-4.7.1-5.3-.5-.2-.3-.3.4-.1.6.1 1.8-.5 2.7-1.5 1.8-2 2-3.1.6-3.1-.5 0-1 .7-1 1.5s-.4 1.5-.9 1.5c-1.6 0-2.3-2-1.3-3.3 1.4-1.7 2.4-12 1.3-13.6-.5-.7-1.4-1-2-.7-1.6 1-1.4-3.6.3-5.9 1.3-1.8 1.4-1.7.9 1-.4 2.7-.3 2.8.8 1 .7-1.1 1.5-7.3 1.9-14.5.3-6.9 1.1-13.4 1.8-14.5 1-1.7 1.1-1.1 1.2 3.8 0 10.2 1.7 5.2 1.8-5.5.1-5.7.6-11.8 1.2-13.7.5-1.9.7-3.8.3-4.4-.3-.5-.1-1.2.5-1.6 1.4-.8 2.8-23.3 1.8-28.4-.6-3.4-.9-3.5-5.9-4.2-6.5-.9-18.8-5.2-20.3-7.1-.6-.8-1.9-1.4-2.8-1.4-1 0-1.6-.6-1.4-1.2.4-1.1-6-4.8-8.2-4.8-.4 0-5.5 10.5-11.3 23.2zm-3.9 40.3c-.3.3-.9-.2-1.2-1.2-.6-1.4-.5-1.5.5-.6.7.7 1 1.5.7 1.8zm9.2 4.9c0 .3-.4.8-1 1.1-.5.3-1 .1-1-.4 0-.6.5-1.1 1-1.1.6 0 1 .2 1 .4zm22.7 6.3c-.3 1-.5.4-.5-1.2 0-1.7.2-2.4.5-1.8.2.7.2 2.1 0 3zm5.3 1.8c0 1.4-.4 2.5-1 2.5-1.1 0-1.4-3.3-.3-4.3 1.1-1.1 1.3-.8 1.3 1.8zm-27.6 4.7c.6.5.2.8-1 .8-2.8 0-3.6-1-2.2-2.8 1-1.2 1.3-1.2 1.7-.1.2.8.9 1.7 1.5 2.1zm30.6.4c0 .8-.4 1.4-1 1.4-.5 0-1-.9-1-2.1 0-1.1.5-1.7 1-1.4.6.3 1 1.3 1 2.1zm2.6 2.1c-1.1 1.1-1.7-.4-.9-2.3.7-1.8.8-1.8 1.1-.1.2 1 .1 2.1-.2 2.4zm-40.4.5c-.9.9-1.2.7-1.2-1.2s.3-2.1 1.2-1.2c.9.9.9 1.5 0 2.4zm29.8.6c0 .7-.4 1-1 .7-.5-.3-1-1.6-1-2.8 0-1.8.2-1.9 1-.7.5.8 1 2.1 1 2.8zm4-1.3c0 .8-.4 1.5-1 1.5-.5 0-.7-.7-.4-1.5.4-.8.8-1.5 1-1.5.2 0 .4.7.4 1.5zm-7 3c0 .8-.4 1.5-1 1.5-.5 0-.7-.7-.4-1.5.4-.8.8-1.5 1-1.5.2 0 .4.7.4 1.5zm11.7 2.3c-1 .2-1.7.9-1.8 1.5 0 .7-.4.3-.8-.8-1-2.5.8-3.9 2.8-2.2 1.2 1 1.2 1.2-.2 1.5zm-32.2 1.2c-.5 1.7-1 1.9-2.1.9-1.9-1.5-1.8-2.7.4-3.1 2.3-.6 2.5-.3 1.7 2.2zm26.3 6.1c-1.8 1.1-2.1.4-1.3-2.8l.7-2.8.9 2.4c.7 1.7.6 2.7-.3 3.2zM802 484c0 .5-.2 1-.4 1-.3 0-.8-.5-1.1-1-.3-.6-.1-1 .4-1 .6 0 1.1.4 1.1 1zm-20.6 1.6c.9 2.2-.3 3.2-1.4 1.4-1.2-1.9-1.2-3-.1-3 .5 0 1.2.7 1.5 1.6zm31.2 5c-.4 1.4-1 2.2-1.5 2-.8-.6-.5-4.8.7-7.6.8-2.2 1.5 2.6.8 5.6zm-34.8-.6c-1.4 2.2-2.4 1.9-1.5-.5.4-.8 1.1-1.5 1.7-1.5.6 0 .6.7-.2 2zm27.2 1.6c0 1.4-.4 2.2-1 1.9-.5-.3-1-1.7-1-3.1 0-1.4.4-2.2 1-1.9.6.3 1 1.7 1 3.1zm4-.5c0 .6-.4.7-1 .4-.5-.3-1-1.1-1-1.6 0-.6.5-.7 1-.4.6.3 1 1.1 1 1.6zm-28 8.3c0 4-.6 17.1-1.4 29.2-.8 12-1.8 27.6-2.2 34.6l-.6 12.8-4.2 1.1c-2.2.6-9.7 2.6-16.6 4.5-6.9 1.9-13 3.4-13.7 3.4-1.8 0-.6-5.2 2.8-12.8 1.6-3.5 2.9-6.8 2.9-7.3 0-1.7-1.9-.9-2.5 1.1-.3 1.1-1.1 2-1.6 2-.6 0-.7.9-.4 2 .5 1.4.2 2-.9 2-2.1 0-2-.8.5-5.9 2-4.2 1.9-10.8-.2-9.5-.5.3-.9-.2-.9-1.1 0-1.1.5-1.5 1.5-1.1 2.1.8 3.1-2 1.5-3.9-.9-1-.9-1.5-.1-1.5.6 0 1.1.5 1.1 1.1 0 .5.5.7 1 .4.6-.3 1 .1 1 .9s-.5 1.8-1 2.1c-.6.4-.8 1.1-.4 1.6.3.6 1.2.5 2.1-.3 1.1-.9 1.4-2.4.9-5.8-.6-4.4.6-8.2 2-6.7.4.4 1.3-.1 2-1.1 1-1.4 1-1 .1 2-.6 2-1.4 3.2-1.8 2.6-.4-.5-.9-.6-1.2-.2-.5 1 1.2 2.8 3.1 3.2.7.1 1.2-1.1 1.2-3.2 0-3.9 2.3-6.4 4.3-4.7 1.1.8 1.7.5 2.8-1.6 1.1-2.1 1.1-2.7.1-3.1-.7-.2-1.9-1-2.7-1.9-.8-.8-1.5-1.1-1.5-.7 0 .4-.2.5-.5.2s.2-2.5 1-4.9c.9-2.4 1.5-5.9 1.3-7.8-.3-3.6 1.5-5.4 2.6-2.6.3.9.2 1.3-.4 1-1.3-.8-1.3-.2.1 2.9 1.3 2.8 3 2.6 2.2-.2-.2-1 .2-2.4 1.1-3.1.8-.7 1.2-2 .8-2.9-.5-1.5-.4-1.5 1.2.1 2.4 2.3 3.9 1.1 3.2-2.5-.5-2.4-.2-3 1.8-3.8 2.7-1 4-5.4 2.4-8.4-.7-1.4-.6-2.2.7-3.5 1.5-1.5 1.6-1.4 1 1.4-.4 2.5-.4 2.6.4.9.5-1.2 1.4-2.5 2-2.9.6-.3 1.1-1.3 1.1-2.2 0-1.2-.3-1.3-1.3-.4-2.1 1.7-2.9 0-1.1-2 2.6-2.9 3.4-1.3 3.4 6.5zm30.2 10.1-.9 7-.2-9c-.1-10.1 1.2-17.4 1.7-9.5.1 2.5-.1 7.6-.6 11.5zm-44.5-13.9c-.3.3-1.2.4-1.9.1-.8-.3-.5-.6.6-.6 1.1-.1 1.7.2 1.3.5zm49.1 1.6c-.2.6-1 1.4-1.6 1.6-.7.2-1-.2-.6-1.2.7-1.8 2.8-2.2 2.2-.4zm-43.8 1.9c0 .5-.4.9-1 .9-.5 0-1-.7-1-1.6 0-.8.5-1.2 1-.9.6.3 1 1 1 1.6zm36-.6c0 .8-.4 1.5-1 1.5-.5 0-.7-.7-.4-1.5.4-.8.8-1.5 1-1.5.2 0 .4.7.4 1.5zm-3 1.9c0 .8-.4 1.8-1 2.1-.5.3-1-.3-1-1.4 0-1.2.5-2.1 1-2.1.6 0 1 .6 1 1.4zm-30 3.3c0 .1-.5 1.3-1.1 2.7-1.1 2.4-4.9 4.3-4.9 2.4 0-.5-.4-.6-1-.3-.5.3-1 .1-1-.5s-.4-.8-1-.5c-.5.3-1-.3-1-1.4 0-1 .6-2.1 1.3-2.4 1.2-.4 8.7-.5 8.7 0zm31.7 7c-.3 1-.5.2-.5-1.7s.2-2.7.5-1.8c.2 1 .2 2.6 0 3.5zm-57.7 2.5c0 1.6-.3 1.9-1.1 1.1-.6-.6-.8-1.6-.5-2.2 1.1-1.7 1.6-1.3 1.6 1.1zm59 2.9c0 .6-.4.7-1 .4-.5-.3-1-1.1-1-1.6 0-.6.5-.7 1-.4.6.3 1 1.1 1 1.6zm-5.5-.1c.3.5-.1 1-1 1s-1.3-.5-1-1c.3-.6.8-1 1-1 .2 0 .7.4 1 1zm-44.9 4.8c-1.2 1.1-1.8-.7-1-3l.8-2.3.4 2.3c.2 1.3.1 2.6-.2 3zm-2.6-1.4c0 .3-.4.8-1 1.1-.5.3-1 .1-1-.4 0-.6.5-1.1 1-1.1.6 0 1 .2 1 .4zm52.2 4.6c.6 0 .6.6-.2 1.5-1.8 2.2-2.7 1-2.1-2.7.4-2.6.6-2.8.9-1.1.2 1.3.8 2.3 1.4 2.3zm-7.8-1.5c-.4.8-1 1.5-1.5 1.5-.4 0-.6-.7-.3-1.5.4-.8 1-1.5 1.5-1.5.4 0 .6.7.3 1.5zm10.9 1.7c-.8 4.6-1.3 4.8-1.3.5 0-2.1.4-3.7 1-3.7.5 0 .7 1.4.3 3.2zm3.7 1.5c0 1.3-.3 1.3-1.5.3-.8-.7-1.2-1.6-.9-2.1.8-1.3 2.4-.1 2.4 1.8zm-56 .8c0 .8-.4 1.5-1 1.5-.5 0-.7-.7-.4-1.5.4-.8.8-1.5 1-1.5.2 0 .4.7.4 1.5zm-3.5.4c.3.5.1 1.2-.5 1.6-.5.3-1-.1-1-.9 0-1.8.6-2.1 1.5-.7zm51.5 4.6c0 .5-.5.3-1-.5s-1-2-1-2.5c0-.6.5-.3 1 .5s1 1.9 1 2.5zm4 1.6c0 1-.4 1.9-1 1.9-.5 0-1-1.2-1-2.6 0-1.4.4-2.3 1-1.9.6.3 1 1.5 1 2.6zm-8.6 1.3c-.3.9-1 1.3-1.6 1-.5-.3-.4-1.2.3-2 1.5-1.8 2.2-1.3 1.3 1zm3.8 3.1c.3 1.4.1 2.8-.3 3.1-.5.3-.9-.9-.9-2.5 0-3.8.6-4 1.2-.6zm2.8-.5c0 .5-.5 1-1.1 1-.5 0-.7-.5-.4-1 .3-.6.8-1 1.1-1 .2 0 .4.4.4 1zm-53 1c0 .5-.4 1-1 1-.5 0-1-.5-1-1 0-.6.5-1 1-1 .6 0 1 .4 1 1zm6.5 0c.3.5-.1 1-.9 1-.9 0-1.6-.5-1.6-1 0-.6.4-1 .9-1 .6 0 1.3.4 1.6 1zm47.9 4c-.1 3.6-.5 4.2-2 2.6-.7-.7-.8-2-.3-3.4 1.2-3.1 2.4-2.7 2.3.8zm9.2 4.2c-.3 1.3-.6 3.1-.6 4.2 0 1.2-.5 1.6-1.5 1.2-1.7-.6-1.8.2-1.6 7.9.1 2.7-.3 5.7-.9 6.5-.7 1.1-1 .1-1-3.7 0-2.8-.2-5.8-.6-6.6-.3-.8.6-2.8 2-4.5 1.5-1.6 2.6-3.9 2.6-5.1 0-1.2.5-2.1 1.1-2.1.7 0 .9.9.5 2.2zM812 549c0 .5-.4 1-1 1-.5 0-1-.5-1-1 0-.6.5-1 1-1 .6 0 1 .4 1 1zm-70.4 2.6c-.4.9-.9 1.5-1.1 1.2-.3-.3-.3-1.3.1-2.2.4-.9.9-1.5 1.1-1.2.3.3.3 1.3-.1 2.2zm66.7 5.9c1.4.4 1.7.8.9 1.2-1.7.7-4.2-1.5-4.1-3.6.1-1.5.2-1.5.6 0 .2 1 1.4 2 2.6 2.4zm9.7.4c0 1.7-.4 3.2-.9 3.5-.5.3-.9-1-.9-2.9s.4-3.5.9-3.5.9 1.3.9 2.9zm-.6 7.6c-.4.8-1 1.3-1.5 1-.4-.3-.6-1.2-.3-2 .4-.8 1-1.3 1.5-1 .4.3.6 1.2.3 2zm-74.4-1.1c0 .3-.4.8-1 1.1-.5.3-1 .1-1-.4 0-.6.5-1.1 1-1.1.6 0 1 .2 1 .4zm48.2 3.2c-.8 1.4-.9 1.3-.9-1 0-1.8.3-2.4.9-1.8.7.7.7 1.6 0 2.8zm6.3-2.6c.3.5.1 1-.4 1-.6 0-1.1-.5-1.1-1 0-.6.2-1 .4-1 .3 0 .8.4 1.1 1zm14.2 1.2c-.3.8-.6.5-.6-.6-.1-1.1.2-1.7.5-1.3.3.3.4 1.2.1 1.9zm-2.7.3c0 .8-.4 1.5-.9 1.5s-1.4-.7-2.1-1.5c-1-1.3-.9-1.5.9-1.5 1.2 0 2.1.6 2.1 1.5zm9 4.6c0 .6-.4.7-1 .4-.5-.3-1-1.1-1-1.6 0-.6.5-.7 1-.4.6.3 1 1.1 1 1.6zm-4.1-.4c-.1.5-.1 2 0 3.5.1 2 .5 2.6 1.6 2.2 2.6-1.1 1.8 3.9-.9 5.2-2.3 1.1-2.3 1.1-2.1-5 .2-3.4.3-6.2.4-6.4.2-.6 1.1-.1 1 .5zm-72.9 5.6c0 .4-1 .3-2.1-.4-1.7-.9-1.9-1.3-.8-2 1.3-.8 2.8.5 2.9 2.4zm33.5 3.7c.3.5.2 1-.4 1-.5 0-1.3-.5-1.6-1-.3-.6-.2-1 .4-1 .5 0 1.3.4 1.6 1zm-.1 4.5c-.4.8-.8 1.5-1 1.5-.2 0-.4-.7-.4-1.5s.4-1.5 1-1.5c.5 0 .7.7.4 1.5zm39.4 1.8c.5 2.4-1.5 2.1-2.1-.4-.3-1.3-.1-1.9.6-1.6.7.2 1.3 1.1 1.5 2zM772 588c0 .5-.4 1-1 1-.5 0-1-.5-1-1 0-.6.5-1 1-1 .6 0 1 .4 1 1zm4 0c0 .5-.2 1-.4 1-.3 0-.8-.5-1.1-1-.3-.6-.1-1 .4-1 .6 0 1.1.4 1.1 1zm29.6 11.7c-1 1-1.9-.5-1-1.8.6-1.1.8-1.1 1.2 0 .2.7.1 1.5-.2 1.8zm7.4 1.1c0 1.5-.2 1.5-1 .2-1.3-2-1.3-3.3 0-2.5.6.3 1 1.4 1 2.3zm-40 1.3c0 .5-.4.9-1 .9-.5 0-1-.7-1-1.6 0-.8.5-1.2 1-.9.6.3 1 1 1 1.6zm-6.4 3.6c-1.1 1.1-1.9-.6-1.1-2.4.8-1.7.8-1.7 1.2 0 .3 1 .2 2.1-.1 2.4zm2.4 1.8c-1.3 1.4-2.6 2.3-2.8 2-.7-.6 2.9-4.4 4.2-4.4.5-.1-.1 1-1.4 2.4zm-5.7 1.6c-.4 1.5-.9 1.7-1.7.9-.8-.8-.7-1.3.4-2 .8-.5 1.6-1 1.7-1 0 0-.1.9-.4 2.1zm32.8 4.2c-1 .9-1.1.8-.5-.6.3-1 .9-1.5 1.2-1.2.3.3 0 1.1-.7 1.8zm-2.1 2.8c0 1.1-.7 1.9-1.6 1.9-1.3 0-1.4-.3-.4-1.5.6-.8.8-2 .4-2.6-.4-.8-.3-.9.4-.5s1.2 1.6 1.2 2.7zm-70.4 22c-.9 1.9-1.5 2.6-1.6 1.7 0-2.1 2.3-7.4 2.7-6.1.2.5-.3 2.5-1.1 4.4zm77.6 8.1c-.7.7-1.2.8-1.2.2 0-1.4 1.2-2.6 1.9-1.9.2.3-.1 1.1-.7 1.7zM787 656c0 1.1-.2 2-.4 2s-.6-.9-.9-2c-.3-1.1-.1-2 .4-2s.9.9.9 2zm12 .4c0 .2-.7.9-1.5 1.6-1.2 1-1.5 1-1.5-.4 0-.9.7-1.6 1.5-1.6s1.5.2 1.5.4zm-8.3 4.8c-.3.7-.5.2-.5-1.2s.2-1.9.5-1.3c.2.7.2 1.9 0 2.5zm9.3 4c0 .6-.9.2-2-1s-2-2.6-2-3.2c0-.5.9-.1 2 1s2 2.5 2 3.2zm-17.4 2.5c-1.1 1.1-1.9-.6-1.1-2.4.8-1.7.8-1.7 1.2 0 .3 1 .2 2.1-.1 2.4zm9.7 5.4c-.3 1.2-.9 1.7-1.5 1.1-1-1 0-4.4 1.2-3.7.5.3.6 1.4.3 2.6zm-3.4 5.4c.1 2.3-.2 2.6-.9 1.5-.5-.8-.9-3.1-.9-5 0-2.9.2-3.1.9-1.5.5 1.1.9 3.3.9 5z"/><path d="M760.2 527.9c-1.4 3.8-1.1 4.9.7 2.7.7-.8 1.1-2.5.9-3.8-.3-2-.5-1.9-1.6 1.1zM765.7 532.8c-1 1-1.7 2.5-1.7 3.3.1 1.1.4 1 1.4-.4.7-.9 1.8-1.7 2.5-1.7.6 0 1.1-.7 1.1-1.5 0-2-1.3-1.9-3.3.3zM763.6 539.9c-.4.7-.5 1.5-.2 1.8.9.9 1.9-.4 1.4-1.8-.4-1.1-.6-1.1-1.2 0zM751.6 550.9c-.4.7-.5 1.5-.2 1.8.9.9 1.9-.4 1.4-1.8-.4-1.1-.6-1.1-1.2 0zM758.5 554c.3.5.8 1 1.1 1 .2 0 .4-.5.4-1 0-.6-.5-1-1.1-1-.5 0-.7.4-.4 1zM748.6 557.2c-1.8 2.6-2.1 5.1-.5 4.6 1.4-.5 4.1-6.8 2.9-6.8-.5 0-1.6 1-2.4 2.2zM748.7 568.6c-.4.4-.7 1.4-.7 2.3 0 1.1.3 1.2 1.1.4.6-.6 1-1.6.7-2.3-.2-.6-.7-.8-1.1-.4zM1214.7 392.7c-.3 1-4.9 11.2-10.2 22.8-17.3 37.4-40.5 92.2-65.9 156.1l-9.6 24-8.3 2.7c-4.5 1.4-15.4 4.2-24.2 6.2-8.8 1.9-19.5 4.5-23.8 5.6l-7.8 2.2.6 4.1c.4 2.2 1 4.5 1.3 5.1.4.5.5 2 .4 3.2-.2 1.1 1.1 5 2.9 8.5 1.8 3.4 3.5 7.6 3.8 9.3.7 2.9.9 3 7.1 3.3 3.9.2 11.2-.6 18.2-1.9 6.5-1.3 12-2 12.4-1.7.3.3-1.5 5.7-4 12-6.3 15.7-10.8 35.9-8.4 37.4.7.5.9.2.4-.7-.4-.8.1-.4 1.1.7 2 2.3 9.1 4.5 7.9 2.5-.4-.6-.3-1.1.2-1.1.6 0 1.2.7 1.6 1.5.3.8 1.2 1.2 2.1.9.9-.4 1.5-.1 1.5.7.1.9.4.8 1.1-.4 1.3-2.1 3.8-2.2 6.8-.1 1.9 1.4 2.6 1.4 4.7.3 2-1 3.1-1 6 0 2 .7 3.7 1.1 3.8.9 1.9-2.3 10.3-29.7 11.3-36.6.3-2.3 1.1-4.2 1.8-4.2.6 0 1.2-.6 1.3-1.3 0-.6.4-2.3.8-3.6.5-1.8.4-2.2-.5-1.7-.9.6-1 .3-.3-1 2-3.7 4.5-14.3 3.8-16-.4-1-.4-1.5 0-1.1.4.3 2-.5 3.6-1.8 1.6-1.4 5.5-3.2 8.6-4.1 3.1-.8 8-2.3 10.7-3.2 2.8-.9 6.2-1.7 7.6-1.8 1.4-.1 4.1-.9 6-1.7 3.2-1.5 12.8-3.4 13-2.6 0 .2.4 11.9.9 25.9 1 26.8 2.2 34.9 5.8 39.5 3.4 4.2 2.8 7.3-1.2 6.6-.5-.1-.4.5.4 1.4.9 1.1 1.6 1.2 2.6.4 1-.8 1.3-.3 1.6 2.3.2 2.2.9 3.4 2.1 3.6 1.4.3 1.8-.1 1.5-1.5-.2-1-.9-1.7-1.4-1.6-.5.1-.8-1.5-.6-3.5.6-6 .8-6 2.1 0 .7 3.1 1.9 6.2 2.8 7 1.5 1.1 1.6 1.1.8-.7-1.6-4-1.8-7.5-.3-8 .9-.4 1.5-2.2 1.6-4.8.1-2.3.5-4.3 1-4.4.4-.2.5-2.8.4-5.8-.3-4.7-.2-5.4 1.2-4.9 1.3.5 1.4.9.5 2-1.8 2.2-.1 2.9 2.1.9 1.6-1.4 1.8-2.1.8-3.3-1-1.1-.9-1.7.5-2.7 2.3-1.7 2.2-2.2-1-4l-2.8-1.6 2.8.4c1.5.2 2.7.3 2.7.2 0-.1-.5-1.6-1.1-3.3-.9-2.6-.8-3.5.6-4.8 1.3-1.3 1.5-2.5.9-4.8-.4-1.7-.9-5.5-1-8.4-.1-2.9-.4-5.6-.8-5.9-1.1-1.1-.6-3.3.6-3.1 1.4.4 3.9-4.2 3.1-5.6-.4-.5-.9-.1-1.3.9-.7 1.9-.7 1.8-1.9-.3-1-1.8-.9-2.3.4-2.8 3.7-1.5 4.2 0 3.7 10.8-.2 5.8.1 11.4.6 12.8 1 2.3 1.1 2.1 1.2-2 0-3.3.3-4.1 1-3 .7 1.1 1 .7 1-1.7 0-1.7-.6-3.4-1.2-3.6-1-.4-1-.7 0-1.5.9-.6 1-1.6.4-3.3-.5-1.4-.5-3.7 0-5.7 1-3.5.3-7.2-1.4-7.2-.5 0-.8.7-.4 1.5.8 2.1-.7 1.9-2.7-.3-2.1-2.3-2.1-3.9-.3-5.8 2-1.9 2.6-1.8 2.6.8 0 2 .1 2.1 2 .3 1.4-1.2 1.8-2.5 1.4-4.1-.4-1.3-.2-2.4.4-2.4 1.4 0 2.1 2.2 1.5 5.3-.3 1.6-.1 2.7.6 2.7.6 0 1.1-1.8 1.1-4.4 0-5.6 1.7-7 2.3-1.9l.4 3.8.1-3.8c.1-2.5.7-3.7 1.7-3.7.8 0 1.9-.9 2.5-2 1.2-2.2 4-2.7 4-.7 0 1.7 7 1 7.6-.8.4-.8 1.6-1.1 3.5-.8 2.4.3 2.9.1 2.9-1.7 0-2.8-3.1-8-4.7-8-.7 0-1.3-.5-1.3-1 0-.6-.7-1-1.5-1s-1.5.4-1.5 1c0 .5.7 1 1.6 1 1.1 0 1.4.6.8 2.2-.3 1.3-.7 2.3-.8 2.3-4.4 1.6-9.3 2.2-10.3 1.3-.7-.6-1-1.4-.7-1.9.3-.5-.2-.9-1.2-.9-1.8 0-1.8 1 .2-57 .7-18.2.6-18.6-1.4-18.7-1.6-.1-2.1.5-2.4 3.8-.4 4.9.5 6.9 2.1 4.3.9-1.6 1-1.2 1 2.1-.1 2.2-.5 5.3-.9 7l-.8 3-.1-3.7c0-2-.5-3.9-1.1-4.3-.5-.3-1.1 2.9-1.3 8.2-.2 5.3-.3 3.6-.3-4.2.1-11.1-.2-13.3-1.6-14.8-2.5-2.4-2.3-4 .3-3.2 1.9.6 2.1.4 1.7-2.3-.2-1.7-.1-2.9.4-2.6 1 .6 3.8-2 3.8-3.5 0-.6-.4-1.1-1-1.1-.5 0-1 .7-1 1.5s-.5 1.5-1.1 1.5c-.7 0-.8-1.4-.3-4.3 1.4-7.1 1.1-13.2-.6-13.2-1.6-.1-1.8-5.1-.2-6.7.5-.5.7.6.5 2.4-.4 3-.3 3.1.9 1.3.7-1.2 1.5-7.5 1.9-15.1.7-14.1 2.8-22 2.9-11 0 4.3.3 5.7 1.1 4.9.6-.6 1-5.3 1.1-10.9 0-5.5.6-11.6 1.3-13.7.7-2.1.9-4 .4-4.3-.5-.3-.9-1-.9-1.5 0-.6.4-.8.9-.5 1.7 1.1 3.2-24.4 1.7-29.1-.5-1.6-1.8-2.2-5.4-2.7-7.8-1.1-20.4-5.8-21-7.8-.3-1.4-.8-1.6-1.7-.8-1 .8-1.5.8-2 0-.4-.6-.4-1.4-.1-1.7.6-.6-6.2-4.3-8-4.3-.6 0-1.4.8-1.7 1.7zM1210 460c0 .5-.5 1-1.1 1-.5 0-.7-.5-.4-1 .3-.6.8-1 1.1-1 .2 0 .4.4.4 1zm24 4.6c0 .8-.4 1.4-1 1.4-.5 0-1-.9-1-2.1 0-1.1.5-1.7 1-1.4.6.3 1 1.3 1 2.1zm4.3 4.1c-.3.9-.9 1.1-1.5.5-.5-.5-.6-1.7-.2-2.6.5-1.3.9-1.4 1.4-.5.5.7.6 1.9.3 2.6zm-33.3-2.3c0 .3-.4.8-1 1.1-.5.3-1 .1-1-.4 0-.6.5-1.1 1-1.1.6 0 1 .2 1 .4zm5.4 5.8c.6.5.2.8-1 .8-2.8 0-3.6-1-2.2-2.8 1-1.2 1.3-1.2 1.7-.1.2.8.9 1.7 1.5 2.1zm30.6.4c0 .8-.4 1.2-1 .9-.5-.3-1-1.3-1-2.1s.5-1.2 1-.9c.6.3 1 1.3 1 2.1zm2.7 1.6c-.3.7-.5.2-.5-1.2s.2-1.9.5-1.3c.2.7.2 1.9 0 2.5zm-39.7-.8c0 .8-.4 1.8-1 2.1-.5.3-1-.3-1-1.4 0-1.2.5-2.1 1-2.1.6 0 1 .6 1 1.4zm29.3 1.1c.4.8.2 1.7-.3 2-.6.4-1-.3-1-1.4 0-2.5.6-2.7 1.3-.6zm3.8 1.2c-.8 1.5-1 1.5-1.1.2 0-1.7 1-3.2 1.8-2.5.2.3-.1 1.3-.7 2.3zm-7 2c-1.2 2-1.4 1.4-.5-1.2.4-.9.9-1.4 1.1-1.1.3.2 0 1.3-.6 2.3zm12.9 1.3c0 .6-.6 1-1.4 1-.8 0-1.6.6-1.8 1.2-.3.7-.7.2-1-1-.4-1.2-.2-2.2.4-2.2.5 0 .6-.5.2-1.1-.4-.8 0-.8 1.5 0 1.1.7 2.1 1.6 2.1 2.1zm-33 1.1c0 2.5-1 2.9-3.1 1.1-2.5-2.2-2.4-2.7.6-2.7 1.6 0 2.5.6 2.5 1.6zm19.4 3.4c.3.8.1 1.5-.4 1.5-.6 0-1-.7-1-1.5s.2-1.5.4-1.5.6.7 1 1.5zm6.7 3.8c-1.3 1.3-2.1-.5-1.4-3.3l.6-2.4.9 2.4c.5 1.4.5 2.7-.1 3.3zm-27.7-1.7c.8 2.1.8 2.4-.3 2.4-.5 0-1.1-.9-1.4-2-.6-2.4.8-2.7 1.7-.4zm30.7 6.7c-.8.8-1.1-.1-1.1-2.9 0-5.3 1.4-6.7 1.8-1.9.2 2.1-.1 4.2-.7 4.8zm-33.9-2.1c-.6.6-1.5.8-1.9.4-.4-.4-.1-1.1.7-1.6 1.9-1.2 2.7-.3 1.2 1.2zm26.8.9c0 1.6-.4 2.8-.9 2.5-.8-.5-.3-5.6.5-5.6.2 0 .4 1.4.4 3.1zm4-.5c0 .8-.5 1.2-1 .9-.6-.4-.8-1.1-.5-1.6.9-1.4 1.5-1.1 1.5.7zm-27.9 1.6c.4 3.5-.4 21.6-1.7 41.2-.8 12.1-1.4 26.5-1.4 32.1v10.2l-17.3 4.7c-9.5 2.5-17.7 4.6-18.4 4.6-1.5 0-.1-5.9 3.2-13.4 1.8-4.1 2.3-6.2 1.6-6.9-.8-.8-1.1-.6-1.1.5 0 .9-.4 2-1 2.3-1.2.7-.2-11.1 1.1-13.7.6-1 .5-1.9-.1-2.3-.5-.3-1-1-1-1.6 0-.5.9-.4 2 .3 1.3.8 1.6 1.6 1 2.2-.6.6-1 1.6-1 2.3 0 1.1.4 1.1 2 .1 2.2-1.4 2.6-4.8.9-6.5-.9-.9-.9-2 .1-4.4l1.3-3.1 1.4 2.7c1.5 2.8.9 5-.7 2.5-.6-1-1-1.1-1-.3 0 1.5 3.5 3.5 4.4 2.6.3-.3.6-2.1.6-4 0-3.6 2.5-5.7 4-3.2.7 1 1.2.6 2.1-1.4 1.1-2.5 1-2.9-1.2-4.5-1.3-.9-2.7-1.6-3.1-1.5-.4.2 0-1.6.8-3.8.7-2.3 1.4-5.6 1.4-7.3 0-4 1.4-6.5 2.3-4.1.5 1.1.3 1.4-.5.9-.8-.5-.9-.2-.4 1.2 1.6 3.7 1.8 5.4.8 5.4-.5 0-1.5 1.3-2.1 3-.5 1.6-.8 3-.6 3 1.3 0 5.6-8.5 5.2-10.1-.3-1 .2-2 1-2.3 1-.4 1.2-1.3.8-2.8-.5-1.8-.4-2 .4-.8.6.8 1.1 1.1 1.1.6 0-.5.6-.3 1.4.3 1.1.9 1.5.8 2-.5.3-.9.2-2.2-.3-2.8-.6-.7-.6-1.7-.1-2.6 1.5-2.4 1.1-3.4-.7-1.9-1.5 1.2-1.6 1.2-.9-.6.5-1.5.4-1.7-.5-.8-1.6 1.6-3.9.5-3.9-1.8 0-2 .5-2.2 6-2.3 2.8-.1 3.6-.6 3.8-2.3.2-1.2 1.1-2.7 1.9-3.5 1.5-1.1 1.6-1 1 .7-.7 2-.7 2 .8.1.8-1.1 1.5-2.7 1.5-3.5 0-1.3-.2-1.3-.9-.2-.5.7-1.4 1.1-2 .7-.7-.4-.4-1.3.7-2.6 2-2.2 3.2-2.5 3.3-.8zm-14.1 3.2c0 .2-.7.6-1.5 1-.8.3-1.5.1-1.5-.4 0-.6.7-1 1.5-1s1.5.2 1.5.4zm44.1 16.8c-.8 2.8-.9 2.1-1-4.7-.1-10.8 1.3-15.6 1.7-5.8.2 4-.1 8.7-.7 10.5zm-39.1-12.9c0 .5-.4.5-1 .2-.5-.3-1-1.4-1-2.3 0-1.5.2-1.5 1-.2.5.8 1 1.9 1 2.3zm44-2.4c0 .6-.4 1.3-1 1.6-.5.3-1-.1-1-.9 0-.9.5-1.6 1-1.6.6 0 1 .4 1 .9zm-11.4 5.8c-1 2.6-1.8.8-.9-2.3.5-2.1.8-2.4 1.1-1.1.2 1 .1 2.5-.2 3.4zm-3.5-.4c-1 .9-1.1.8-.5-.6.3-1 .9-1.5 1.2-1.2.3.3 0 1.1-.7 1.8zm6 7.8c-.5 1.3-1 1.9-1 1.2-.1-1.5 1-4.5 1.5-4 .3.2 0 1.5-.5 2.8zm-57.8 3.4c-.7 2.1-1.3 1.9-1.3-.6 0-1.1.4-1.8 1-1.4.5.3.7 1.2.3 2zm58.7 2.1c0 .8-.4 1.2-1 .9-.5-.3-1-1-1-1.6 0-.5.5-.9 1-.9.6 0 1 .7 1 1.6zm-5 .4c0 .5-.8 1-1.7 1-1.5 0-1.6-.2-.3-1 1.9-1.2 2-1.2 2 0zm-44.7 3c-.3 1.1-.9 2-1.4 2-1.1 0-1.1-.3-.3-2.4.9-2.3 2.3-2 1.7.4zm48.7 5c.5 0 .7.7.4 1.5-1.1 2.8-2.4 1.5-2.3-2.3.1-2.3.3-2.8.6-1.5.2 1.3.8 2.3 1.3 2.3zm3.4.4c-.3 2.1-.9 3.5-1.1 3.2-.3-.3-.2-2.1.1-4.2.4-2 1-3.4 1.2-3.1.3.3.2 2.1-.2 4.1zm-11.2-1.2c-.7.7-1.2.8-1.2.2 0-1.4 1.2-2.6 1.9-1.9.2.3-.1 1.1-.7 1.7zm14.8 2.4c0 .8-.4 1.2-1 .9-.5-.3-1-1.3-1-2.1s.5-1.2 1-.9c.6.3 1 1.3 1 2.1zm-55.2.6c-.2.6-1 1.4-1.6 1.6-.7.2-1-.2-.6-1.2.7-1.8 2.8-2.2 2.2-.4zm-3.8 1.2c0 .3-.4.8-1 1.1-.5.3-1 .1-1-.4 0-.6.5-1.1 1-1.1.6 0 1 .2 1 .4zm51.4 4.5c-.6.6-2.4-1.9-2.4-3.4.1-.6.7-.1 1.5.9.8 1.1 1.2 2.2.9 2.5zm3.2 2.9c-1.2 1.1-1.8-.7-1-3l.8-2.3.4 2.3c.2 1.3.1 2.6-.2 3zm-8.5.5c-1.3 1.3-1.5-.1-.4-3 .7-1.7.8-1.7 1.1.1.2 1-.1 2.3-.7 2.9zm5.1 1.2c-.5 3.9-2.2 5.9-2.2 2.5 0-1.9 1.6-6 2.3-6 .2 0 .1 1.6-.1 3.5zM1182 538c0 .5-.4 1-1 1-.5 0-1-.5-1-1 0-.6.5-1 1-1 .6 0 1 .4 1 1zm7 0c0 .5-.7 1-1.5 1s-1.5-.5-1.5-1c0-.6.7-1 1.5-1s1.5.4 1.5 1zm47.6 3.9c0 3.3-.3 3.7-1.7 2.8-1.7-1-1.5-3 .4-5.5 1.4-1.8 1.5-1.6 1.3 2.7zm8.8 6.5c-.3 2.1-.8 3.5-1.1 3.2-.2-.2-.1-2 .3-4 .3-2.1.8-3.5 1.1-3.2.2.2.1 2-.3 4zm-76.1 2.1c-.3.9-.8 1.4-1 1.1-.3-.3-.2-.9.2-1.5.9-1.6 1.5-1.3.8.4zm72.9 6.7c-.6 11.1-.5 10.8-1.8 9.8-.6-.6-1.4-.7-1.7-.3-.4.3-.7-.1-.7-1.1s.5-1.4 1.1-1c.9.5 1-.9.7-5-.3-3.1-.1-5.6.3-5.6.3 0 .9-.9 1.2-2 .9-3.7 1.2-2.1.9 5.2zm-71.6-1.6c-.4.9-.9 1.5-1.1 1.2-.3-.3-.3-1.3.1-2.2.4-.9.9-1.5 1.1-1.2.3.3.3 1.3-.1 2.2zm65.2 3.3c-.6.2-1.7-.4-2.5-1.5-2.1-2.9-1.5-3.4 1.2-1.1 1.3 1.2 1.9 2.4 1.3 2.6zm9.2-1.4c0 1.9-.3 3.5-.7 3.5-.7 0-.9-4.5-.4-6.5.4-1.8 1.1.1 1.1 3zm-20 7.6c0 .5-.4.9-1 .9-.5 0-1-.7-1-1.6 0-.8.5-1.2 1-.9.6.3 1 1 1 1.6zm20-.7c0 .8-.4 1.8-1 2.1-.5.3-1-.3-1-1.4 0-1.2.5-2.1 1-2.1.6 0 1 .6 1 1.4zm-75 .6c0 .5-.2 1-.4 1-.3 0-.8-.5-1.1-1-.3-.6-.1-1 .4-1 .6 0 1.1.4 1.1 1zm49 .7c0 .5-.5 1.5-1 2.3-.7 1.2-.9 1-.7-.8.1-1.9 1.7-3.3 1.7-1.5zm17.4.8c.7 1.9-.5 1.9-3 0-1.9-1.4-1.9-1.4.2-1.5 1.2 0 2.4.7 2.8 1.5zm-65.5 4.9c-1.2 1.3-3.4-.8-2.5-2.3.5-.8 1.1-.7 2.1.2.8.7 1 1.6.4 2.1zm74.1-.3c0 .6-.4.7-1 .4-.5-.3-1-1.1-1-1.6 0-.6.5-.7 1-.4.6.3 1 1.1 1 1.6zm-4 3.5c0 2.2.2 2.5 1.5 1.4s1.5-.7 1.5 2.4c0 2.5-.4 3.5-1.1 3-1.6-1-2.9 1.7-2.2 4.6.6 2.2.5 2.4-1 1.1-1.1-.9-1.4-1.8-.8-3 .5-.9.8-4 .7-6.9 0-2.8.2-5.2.7-5.2.4 0 .7 1.2.7 2.6zm-72.6 1.5c-.3.5-1.4.4-2.6-.2-1.6-.9-1.8-1.3-.7-2 1.5-.9 4.2.8 3.3 2.2zm33.1 3.9c.3.5.2 1-.4 1-.5 0-1.3-.5-1.6-1-.3-.6-.2-1 .4-1 .5 0 1.3.4 1.6 1zm-37.5 1.4c0 .8.6 1.6 1.3 1.9.6.3.3.5-.8.4-1.3-.1-2.1-.8-2.1-1.9 0-1 .4-1.8.8-1.8s.8.6.8 1.4zm38 3.1c0 .8-.4 1.5-1 1.5-.5 0-1-.7-1-1.5s.5-1.5 1-1.5c.6 0 1 .7 1 1.5zm-2.5 3.5c.3.5-.1 1-.9 1-.9 0-1.6-.5-1.6-1 0-.6.4-1 .9-1 .6 0 1.3.4 1.6 1zm35.5.4c0 .3-.4.8-1 1.1-.5.3-1 .1-1-.4 0-.6.5-1.1 1-1.1.6 0 1 .2 1 .4zm-32 8.6c0 .5-.5 1-1.1 1-.5 0-.7-.5-.4-1 .3-.6.8-1 1.1-1 .2 0 .4.4.4 1zm45 1c0 .5-.2 1-.4 1-.3 0-.8-.5-1.1-1-.3-.6-.1-1 .4-1 .6 0 1.1.4 1.1 1zm-15 1c0 .5-.5 1-1.1 1-.5 0-.7-.5-.4-1 .3-.6.8-1 1.1-1 .2 0 .4.4.4 1zm6.8 2.1c-.3.8-.7.3-1.1-1-.4-1.7-.3-2.1.5-1.3.5.5.8 1.6.6 2.3zm-40.2 1.6c-1 1-1.9-.5-1-1.8.6-1.1.8-1.1 1.2 0 .2.7.1 1.5-.2 1.8zm-4.9 3c-1.1 1-2.6-.8-2-2.3.5-1.5.7-1.4 1.5.1.6.9.7 1.9.5 2.2zm1.3 1.8c-1.3 1.4-2.6 2.3-2.8 2-.4-.4 3.8-4.4 4.7-4.5.3 0-.6 1.1-1.9 2.5zm-4.7.2c-.7.2-1.3 1.2-1.3 2.1 0 1.3-.3 1.3-1.2.4-1-1-1-1.5.2-2.2.8-.5 2-.9 2.5-.9.6 0 .4.3-.2.6zm31.8 5.6c-1 .9-1.1.8-.5-.6.3-1 .9-1.5 1.2-1.2.3.3 0 1.1-.7 1.8zm-2.1 2.2c0 1.4-.3 2.5-.7 2.5-.5 0-.8-1.1-.8-2.5s.3-2.5.8-2.5c.4 0 .7 1.1.7 2.5zm-.3 7.7c-.3.8-.6.5-.6-.6-.1-1.1.2-1.7.5-1.3.3.3.4 1.2.1 1.9zm-69.7 14.3c-.7 2-1.4 3.4-1.7 3.1-.3-.2.1-2 .8-4 1.7-4.6 2.5-3.8.9.9zm77.7 8.7c-.3.8-.6.5-.6-.6-.1-1.1.2-1.7.5-1.3.3.3.4 1.2.1 1.9zm-15 11c-.3.7-.5.2-.5-1.2s.2-1.9.5-1.3c.2.7.2 1.9 0 2.5zm11.7.3c-.4.8-.7 1.5-.9 1.5-.2 0-.5-.7-.9-1.5-.3-.9 0-1.5.9-1.5s1.2.6.9 1.5zm-6.7 2.5c.1 1.1-.2 2-.8 2-.5 0-.9-.9-.9-2s.4-2 .8-2 .8.9.9 2zm5.7 1.5c.3.8.1 1.5-.4 1.5-.6 0-1-.7-1-1.5s.2-1.5.4-1.5.6.7 1 1.5zm2.3 3.7c-.3.7-.5.2-.5-1.2s.2-1.9.5-1.3c.2.7.2 1.9 0 2.5zm-16.7 1.5c0 2-.3 2.4-1.1 1.6-.7-.7-.9-1.9-.6-2.7 1-2.4 1.7-1.9 1.7 1.1zm9.7 6.3c-.2 2.9-1.7 2.4-1.7-.6 0-1.4.4-2.3.9-1.9.6.3.9 1.4.8 2.5zm-3.8 5c0 2.9-.2 3.1-.9 1.5-.5-1.1-.9-3.4-.9-5-.1-2.3.2-2.6.9-1.5.5.8.9 3.1.9 5zm4.9 6c-.1 3.1-1.8 3.2-1.8.1 0-1.5.8-3.1 1.6-3.1.1 0 .2 1.3.2 3z"/><path d="M1201.2 506.2c-1.4 1.4-1.6 4.2-.3 3.4.7-.5 2.3-4.6 1.7-4.6-.1 0-.7.5-1.4 1.2zM1192.6 533.2c-1.8 2.6-2 3.8-.6 3.8.6 0 1-.6 1-1.4 0-.7.9-1.6 2-1.9 1.1-.3 2-1 2-1.6 0-1.9-2.8-1.2-4.4 1.1zM1190.4 540.1c-.3.6-.1 1.6.5 2.2.8.8 1.1.5 1.1-1.1 0-2.4-.5-2.8-1.6-1.1zM1179.1 551.6c0 1.1.3 1.4.6.6.3-.7.2-1.6-.1-1.9-.3-.4-.6.2-.5 1.3zM1185.6 554.5c.4.8.8 1.5 1 1.5.2 0 .4-.7.4-1.5s-.4-1.5-1-1.5c-.5 0-.7.7-.4 1.5zM1176 556.9c-1.2 2.4-1.3 5.1-.1 5.1.5 0 1.1-.8 1.4-1.8.2-.9.8-2.5 1.2-3.5 1-2.4-1.2-2.2-2.5.2zM1175.7 570c-.3 1.1-.1 2 .4 2s.9-.9.9-2-.2-2-.4-2-.6.9-.9 2zM287.7 395.1c.6 2.2 2.3 2.6 2.3.5 0-.8-.6-1.6-1.4-1.9-1-.4-1.2 0-.9 1.4zM637.5 394c-.3.4-.2 1.6.2 2.6.4 1.1.3 1.5-.5 1-.6-.3-2.3.9-3.8 2.9s-3.3 3.4-4 3.1c-.9-.3-1.6.4-2 1.8-.3 1.3-1.4 2.6-2.5 2.9-1 .3-1.9 1.3-1.9 2.2 0 1.5.2 1.6 1.8.4 1.5-1.3 1.6-1.2.3.3-.7 1-1.8 1.5-2.4 1.1-.6-.4-.8 0-.4 1 .3.9.2 1.9-.3 2.2-.4.3-1 0-1.2-.6-.2-.6-1.7.8-3.2 3.2-1.8 2.7-2.5 4.4-1.7 4.7.6.2.8.8.5 1.4-.4.6-.9.6-1.4-.3-.6-.8-2.3 1-5.4 5.7-2.5 3.8-8.8 13.2-14 20.8-5.2 7.7-9.2 14.4-8.9 14.9.3.6.1.7-.4.4-1.1-.7-4.6 3.9-4.6 6 0 .7-.3 1.1-.5.8-.8-.8-4.2 3.7-4.2 5.5 0 1-.9 2.8-2.1 4.1l-2.1 2.4.6-2.5c.3-1.4 1-8.1 1.6-15 .7-6.9 1.7-18.4 2.5-25.5 1.3-12.6.8-33.8-.9-37.6-.9-2.1-5.1-4-6.3-2.8-1.1 1.1-8.8 1.4-12.7.5-1.6-.4-3.4-.2-4.2.5-1 .8-2.5.9-5.8 0-7-1.7-7.6-1.5-7.6 2.3 0 1.9-.5 3.8-1 4.1-.6.4-1 1.2-.8 1.8.4 2.7-1.5 27.7-2.2 27.7-.4 0-1 3.6-1.4 8.1-.9 11-2.5 18.1-4.5 19.6-1.5 1.2-1.5 1.4.2 2.7 1.6 1.2 1.6 1.7.2 5.6-.8 2.3-1.5 5.8-1.5 7.7 0 2-.4 3.2-1 2.8-.5-.3-1 0-1 .9 0 .8.6 1.7 1.3 1.9.7.3.5.6-.5.6-1.3.1-1.8 1-1.8 3.3 0 7.1-5.1 47.4-8.4 66.8-1.9 11.3-3.8 24.3-4.1 29-.4 4.7-1.3 10.2-2.1 12.3-.8 2.1-1.6 6.5-1.9 9.8-.2 3.4-.7 6.9-1 7.9-.3 1-.1 2.1.5 2.5.5.3 1.1 3.2 1.1 6.3.1 3.1.3 4.8.6 3.7.7-3.4 1.3-4.8 1.8-4.3.3.3-.1 5.4-1 11.3-2.4 17.4-1.6 18.1 2.4 2 2-8.3 4-14.5 4.3-13.9.4.6.3 2.6-.2 4.5-1.3 4.6-1.3 11.9 0 9.9.5-.8 1-2.7 1-4.2 0-3.1.9-5.8 1.9-5.8.4 0 .6 1.4.3 3-.2 1.7.1 3.7.8 4.5.6.8.9 1.9.5 2.5-.3.5-.1 1 .4 1 .6 0 1.1.5 1.1 1.1 0 .5-.4.7-1 .4-.5-.3-1.2.6-1.6 2-.3 1.3-1 2.2-1.5 1.9-.5-.3-.9.6-.9 1.9 0 2 .4 2.3 2.5 1.9 2.7-.5 3.1-1.2 1.4-2.9-.9-.9-.8-1.6.4-2.8 1.1-1 1.5-2.8 1.3-4.8-.2-1.8.1-3.5.7-3.9.5-.3 1.4-3.2 1.8-6.3.4-3.2 1.3-6.3 2-6.9.9-.8 1-.6.4.9-1 2.9-1.4 12.5-.4 12.5.9 0-.1 7.4-1.1 7.8-.4.2-.5 3.2-.2 6.8.4 5.9.3 6.4-1.3 5.8-1.4-.6-1.6-.4-1 .7.5.8.8 2.7.6 4.3-.5 4.7 1.6 2.1 2.8-3.5.6-2.7.8-6.8.5-9.1-.5-2.8-.3-4.2.6-4.8.7-.4 1.5-3.1 1.8-5.9.2-2.8.8-4.8 1.3-4.5.5.3.9-.4.9-1.5 0-1.2.5-2.1 1-2.1.6 0 1 1.3 1 3 0 1.6.5 3 1 3 .6 0 .5.6-.2 1.4-.7.7-1.9 1.1-2.7.8-1.1-.4-1.1-.1-.1 1.8 1 1.8 1.4 2 2.2.9 1-1.4.7-.2-.8 3.6-.3.8-.1 1.5.5 1.5 1.5 0 3.1-4.3 3.1-8.1 0-1.6.5-2.9 1.1-2.9 1.9 0 .7 13.7-1.4 15.7-1.6 1.6-1.7 1.6-1.7 0 0-.9.5-1.7 1.1-1.7.5 0 .7-.5.4-1-.3-.6-1.1-1-1.7-1-.6 0-.8.3-.5.7.4.3-.1 1.2-1.1 1.9-1.4 1-1.5 1.6-.5 3.2.6 1.1.8 2.3.3 2.8-.4.5-.6 2.4-.3 4.2.5 3 .6 3.1 1.9 1.5 1.3-1.6 1.4-1.1.8 4.2-.6 5.5-.6 5.9 1 4.6 1-.8 1.6-2.9 1.7-5.5v-4.1l1.5 4.5c1.7 5.5 1.9 8.3.4 6-.7-1.1-1-.6-1 2 0 3.5 1.9 8.3 2 5 0-.8.9-7.4 2-14.5 2-13.5 2.7-31.5 1.1-31.5-1.7 0-1.8-3.8-.5-12.1.8-5.2 1-8.5.4-8.7-.6-.2-1-.8-1-1.3 0-.6.4-.8.9-.5 1.2.8 2.8-5.3 4.5-16.9.9-5.5 1.9-11.8 2.5-14 1.7-7.5 1.2 1.1-.7 12.6-1.7 9.7-1.7 10.7-.3 11.7s1.3 1.4-.6 3.1c-2.3 1.9-3.4 7.9-1.3 6.6.6-.4.8-1.6.5-2.8-.5-1.6-.4-1.8.3-.8 1.4 2 3.2-1.6 3-6 0-1.9.7-5.8 1.6-8.8 1.8-6.1 2.2-15.6.6-13.1-.8 1.2-1 1.1-1-.7 0-4.5 1.9-3 7 5.7 3 4.9 5.7 8.7 6.2 8.4.4-.3.6.1.3.8-.3.7 1 3.5 2.7 6.3 1.8 2.7 3.9 6.3 4.8 8 4.1 7.6 7.4 13.1 8.5 14.5.7.8 4.1 6.4 7.5 12.5 3.5 6 9.5 15.9 13.5 22 3.9 6 9.8 15.3 13 20.5 5.8 9.5 16.5 25 17.2 25 .2 0-.3-1.4-1.2-3-.9-1.7-1.4-3-1.1-3 .2 0 1.1-.3 2-.6.9-.3 1.6-.1 1.6.6 0 .6-.5.8-1.1.4-.7-.4-1-.1-.7.7.3.8 1.2 1.3 2.2 1.1.9-.2 1.6.2 1.6.8 0 .6-.5.8-1.1.4-.7-.4-1-.1-.7.7.3.8 1 1.3 1.6 1.2.7-.2.9.4.5 1.4-.4 1-.2 1.4.5.9 1.1-.6 5.3 4.6 11.5 14.1 4.3 6.8 4.1 5-.3-2.2-4.2-6.8-4.7-8-3-7 .6.3 1 .2 1-.4 0-1.1-2-2.6-3.4-2.6-.5 0-1.1-.6-1.4-1.4-.3-.9 0-1.1.8-.6.7.4.6-.4-.4-2.4-1.2-2.1-2.1-2.9-3.4-2.5-1.3.5-1.4.4-.3-.4.7-.5 1-1.5.6-2.2-.6-.9-.9-1-1.5 0-.5.9-.9.9-1.4.1-.4-.6-.2-1.1.4-1.1.6 0 .8-.5.5-1-1.4-2.3 1.6-.8 4.4 2.2 1.7 1.8 3.1 2.8 3.1 2.3 0-.6-.9-1.8-2-2.8-2.2-1.8-2.7-4.7-.9-4.7.8 0 .7-.6-.2-1.7-1.1-1.3-1.1-1.7-.1-2.1 1-.3 1-.7.1-1.8-.7-.8-.9-1.7-.6-2 .3-.4-.1-1.3-.9-2.1s-1.2-1.8-.9-2.3c.3-.5-.5-1.6-1.7-2.4-1.5-1.1-2.4-1.2-2.9-.5-.3.6-.6-.1-.6-1.5 0-1.6.4-2.3 1.1-1.9 1.7 1.1 3.7 1.2 3 .2-.3-.5 0-.9.6-.9.7 0 .9.8.5 1.9-.4 1.4.1 2.5 2 3.7 1.4.9 2.4 2.3 2.1 3-.7 1.9 1.7 4.5 3.3 3.5 1.2-.8 1.2-1.3-.3-3.5-.9-1.5-1.4-3.1-1.1-3.6.3-.5-.3-1.4-1.3-1.9-1.1-.6-3.6-4.3-5.7-8.3-2.1-4-4.7-8.6-5.9-10.3-3.5-5-5.7-9.5-5.1-10.5 1.1-1.7 3.5-1.1 3.5.9 0 1.1.5 2.3 1.1 2.6.6.4.8 1.3.5 2.1-.3.8-.1 1.3.3 1.1 1.6-.4 6.4 5.7 6.6 8.3.2 3.5 1.4 5.3 3 4.6.7-.2 1.9.1 2.6.7 1 1 1.1.9.3-.3-4.7-7.1-6.3-9.8-6.9-12-.7-2.3-.5-2.2 2.1.9 1.6 1.8 3.1 4.3 3.4 5.5.3 1.1 1.4 2.2 2.4 2.4 1.4.3.9-.9-2.3-5.4-2.2-3.1-4.1-6.3-4.1-7 0-.7-1.6-3.1-3.5-5.4-1.9-2.3-3.5-4.7-3.5-5.4 0-.7-2.5-5.5-5.6-10.7-3.1-5.1-6-10.5-6.5-11.8-.8-2.1-.7-2.3 1.1-1.8 2.6.7 2.5-.3-.5-6.3-1.4-2.7-2.5-5.6-2.5-6.3 0-.8-.9-2.2-2-3.2s-1.8-2-1.5-2.3c.2-.3-.3-1.7-1.3-3.1-3.2-4.9-4.2-6.6-5.7-10.1-.9-1.9-2-3.7-2.4-4-.5-.3-2.1-3-3.6-6s-5.3-10-8.5-15.5-7.8-14.1-10.3-19.2c-2.6-5-5.1-9.4-5.6-9.8-.6-.3-.7-1.3-.4-2.2.4-1 .2-1.4-.5-.9-1.9 1.2-2.3-1.3-.6-3.9.9-1.4 1.4-2.8 1.1-3.1-.3-.3-.8.4-1.2 1.5-.7 2.3-2 2.7-3.1.9-.4-.6.2-1.9 1.4-2.9 1.2-.9 2.2-2 2.2-2.4 0-.4 1-1.7 2.2-3 1.9-2 2.4-2.1 3.6-.8 1.2 1.2 1.2 1.7-.4 3.6-1.1 1.2-2.2 2.4-2.5 2.7-1 .8-2 6-1.2 6 .5 0 2.8-2.8 5.2-6.3 2.5-3.4 4.6-5.6 4.9-4.9.2.7-1.4 3.6-3.6 6.5s-4.5 6.3-5.2 7.7l-1.2 2.5 2.5-2.5c3.4-3.3 14-20 12.7-20-.5 0-1.4.9-2 2.1-1.1 2-1.2 2-2.5.2-2-2.6-1.8-4 1.2-7.9 2-2.7 2.3-3.8 1.4-4.3-1-.7-1-1.5.3-4 1.6-3 2.5-3.5 5.4-3.2.6.1 1.2-.3 1.2-.9 0-.5-.5-1-1.1-1-.5 0-.7-.5-.3-1.1.4-.7 1-.7 1.6-.1 1.3 1.3-.8 7.7-3 9.4-1 .7-3 3.7-4.6 6.6-2.5 4.8-2.6 5.3-.8 4.3 1.1-.6 2.5-2.4 3-4.1.6-1.6 1.6-3 2.1-3 .6 0 1.1-.7 1.1-1.6 0-.8.5-1.2 1-.9.7.4.7 1.2.2 1.8-1.4 2-3.2 6.7-2.4 6.4 1.3-.4 1.2 1.3-.2 4.1-1.3 2.6-1.3 2.8.4 2.9 1 .1 2.5-.9 3.4-2.1 1.8-2.9 1.1-6.7-1.1-5.9-1.1.4-1.4.2-1.1-.8.3-.8 1.5-1.3 2.7-1.2 1.1.2 2.1-.2 2.1-.8 0-.5-.5-.7-1.1-.3-.8.4-.9-.1-.4-1.7.9-2.8 6.6-10.1 7.4-9.4.2.3-.1 1.1-.7 1.7-.7.7-1.2 1.7-1.2 2.3.1.5 1-.1 2-1.4 1.2-1.3 2-1.8 2-1s1 .4 2.5-1.1c1.8-1.9 2.3-3.1 1.8-4.9l-.6-2.4-2.3 2.8c-1.3 1.6-2.6 2.7-2.9 2.4-1-1 3.7-6 5.1-5.5.7.3 2-.4 2.7-1.5.8-1.1 2.1-1.7 2.9-1.4.9.4 1.9-.4 2.6-2 1.5-3.2 1.5-3.8.2-3-.5.3-1 .1-1-.5 0-.7.7-1 1.5-.6 1.9.7 6.9-5.8 6.1-7.9-.3-.9-.2-1.4.3-1 1.3.7 9.2-9.4 25.3-32.4 12.1-17.3 13.8-20.1 13.8-23.6 0-4.5-1.2-7.1-2.9-6.1-2.1 1.3-8-.5-8.3-2.5-.2-1.1-.7-1.9-1.1-1.9-.4 0-1.5-.6-2.3-1.5-1.4-1.4-4.1-2-7.1-1.6-.7.1-1.3-.3-1.3-.9 0-1.8-8.5-4.6-9.5-3zM543 406.7c0 2.2-.2 2.5-1 1.3-1.3-2-1.3-4 0-4 .6 0 1 1.2 1 2.7zm84 62.7c0 .3-.4.8-1 1.1-.5.3-1 .1-1-.4 0-.6.5-1.1 1-1.1.6 0 1 .2 1 .4zm-2 3c0 .3-.4.8-1 1.1-.5.3-1 .1-1-.4 0-.6.5-1.1 1-1.1.6 0 1 .2 1 .4zm-23 4.4c0 .4-.9 1.3-2 2-2.3 1.4-2.6.8-.7-1.3 1.3-1.6 2.7-1.9 2.7-.7zm-9.7 1.7c-.3.9-.8 1.4-1 1.1-.3-.3-.2-.9.2-1.5.9-1.6 1.5-1.3.8.4zm27.7.9c0 .3-.4.8-1 1.1-.5.3-1 .1-1-.4 0-.6.5-1.1 1-1.1.6 0 1 .2 1 .4zm3 0c0 .3-.4.8-1 1.1-.5.3-1 .1-1-.4 0-.6.5-1.1 1-1.1.6 0 1 .2 1 .4zm-44.3 4.8c-.3.8-.6.5-.6-.6-.1-1.1.2-1.7.5-1.3.3.3.4 1.2.1 1.9zm18.3.3c0 .8-.4 1.5-1 1.5-.5 0-1-.7-1-1.5s.5-1.5 1-1.5c.6 0 1 .7 1 1.5zm8 0c0 .8-.4 1.5-1 1.5-.5 0-1-.7-1-1.5s.5-1.5 1-1.5c.6 0 1 .7 1 1.5zm-12.1 4.6c-2.2 1.4-3.3 1-1.9-.6.7-.8 1.7-1.2 2.2-.9.6.4.5 1-.3 1.5zm16.9-1.4c-2.9 6.4-8.8 12.6-8.8 9.3 0-.6.5-1 1-1 .6 0 1.5-1.1 2-2.5s1.4-2.5 1.9-2.5 1.1-.9 1.4-2c.3-1.1 1-2 1.7-2 .6 0 1 .3.8.7zm-35.8 3.9c-1.8 2.1-2.4 1-.9-1.8.8-1.4 1.4-1.8 1.7-1 .2.7-.2 1.9-.8 2.8zm16 .3c0 .6-.4 1.3-1 1.6-.5.3-1-.1-1-.9 0-.9.5-1.6 1-1.6.6 0 1 .4 1 .9zm-9 3c0 .4-.9 2-2.1 3.5-2.3 2.9-4.6 2.6-2.7-.4.7-1 1.5-1.7 1.9-1.4.4.2.9-.3 1.3-1.1.6-1.6 1.6-2 1.6-.6zm-8 5.5c0 .3-.4.8-1 1.1-.5.3-1 .1-1-.4 0-.6.5-1.1 1-1.1.6 0 1 .2 1 .4zm16.9 5.1c-2.5 3.6-4.9 5.3-4.9 3.3 0-1.4 6.2-8 6.8-7.3.3.2-.6 2-1.9 4zm-16.4.8c-.9 1.5-1.3 3.2-.9 3.9.4.7.4 1-.1.6-.4-.4-1.4-.3-2.2.3-1.7 1.5-1.6-.1.2-2.5.8-1 1.2-2.2 1-2.6-.3-.5.2-1.1 1.1-1.4.9-.3 1.2-1.1.8-1.8-.5-1-.4-1 .5-.2 1 .9.9 1.7-.4 3.7zm6.5.2c-.7.9-1.5 1.3-1.8 1-.3-.2.1-1.1.8-2 .7-.9 1.5-1.3 1.8-1 .3.2-.1 1.1-.8 2zm3.5.4c-.3 1.2-1 2.1-1.5 2.1s-.4-1.1.2-2.5c1.3-2.9 2.3-2.6 1.3.4zm-4.2 6.2c-.8 1.6-1.8 3.1-2.3 3.4-1.1.7-2.2-2.4-1.3-3.8.4-.7.8-1.5.9-2 .1-.4.2-.9.3-1.1 0-.2.9-.2 2 .1 1.7.4 1.7.7.4 3.4zm9.7-2.2c0 1.2-2 2.5-2.7 1.8-.7-.7.6-2.7 1.8-2.7.5 0 .9.4.9.9zm11.5 1c-.3.6-1.1 1.1-1.7 1.1-.6 0-.6-.6.2-1.5 1.4-1.7 2.6-1.3 1.5.4zm-26.2 5c-.2.6.2 1.1.8 1.1.5 0 .7.5.4 1-.4.6-1.2.5-2.1-.4-1.7-1.8-1.9-3.9-.1-3.3.6.2 1.1 1 1 1.6zM544 579.1c0 .5-.4.9-1 .9-.5 0-1-.7-1-1.6 0-.8.5-1.2 1-.9.6.3 1 1 1 1.6zm10.7 7.6c-.3 1-.5.2-.5-1.7s.2-2.7.5-1.8c.2 1 .2 2.6 0 3.5zM536 586c0 .5-.5 1-1.1 1-.5 0-.7-.5-.4-1 .3-.6.8-1 1.1-1 .2 0 .4.4.4 1zm18.2 7.7c-1 2.8-1 2.8-1.1-1.2-.1-2.8.2-3.6 1-2.8.8.8.8 1.9.1 4zm-14.2 5.7c0 .8-.4 1.8-1 2.1-.5.3-1-.3-1-1.4 0-1.2.5-2.1 1-2.1.6 0 1 .6 1 1.4zm58.5 6.6c.3.5.1 1-.4 1-.6 0-1.1-.5-1.1-1 0-.6.2-1 .4-1 .3 0 .8.4 1.1 1zm-61 6c-.3.5-1.1 1-1.6 1-.6 0-.7-.5-.4-1 .3-.6 1.1-1 1.6-1 .6 0 .7.4.4 1zm2.2 7.2c-.3.8-.6.5-.6-.6-.1-1.1.2-1.7.5-1.3.3.3.4 1.2.1 1.9zm3.1 3.4-1.2 2.9-.4-2.8c-.4-3.1 2-7.3 2.6-4.5.2.8-.3 2.8-1 4.4zm-8.2 3.1c-1.1 1.1-1.7-.4-.9-2.3.7-1.8.8-1.8 1.1-.1.2 1 .1 2.1-.2 2.4zm-10.9 5.5c-.3.7-.5.2-.5-1.2s.2-1.9.5-1.3c.2.7.2 1.9 0 2.5zm22.2 7.5c.1 1.4-.5 2.3-1.4 2.3-.8 0-1.5.5-1.5 1 0 .6.7 1.3 1.5 1.6.8.4 1.5 1.1 1.5 1.6 0 .6-.7.8-1.5.4-1.2-.4-1.5.6-1.5 5.9 0 4.6-.4 6.5-1.3 6.5-.8 0-1.2-1.2-1.1-3.3.4-6.2 2.3-19.2 3-21.2.8-1.9.9-1.8 1.5.5.4 1.4.7 3.5.8 4.7zm79.1-2.2c.7.9.9 1.9.5 2.3-.4.4-1 .1-1.2-.6-.3-.6-1.1-1.2-1.9-1.2-.8 0-1.4-.5-1.4-1 0-1.5 2.6-1.2 4 .5zm6.5 1.5c.3.5.2 1-.4 1-.5 0-1.3-.5-1.6-1-.3-.6-.2-1 .4-1 .5 0 1.3.4 1.6 1zm-2.2 3.9c1.3 2.7 1.3 3-.2 3.6-1 .4-2.2-.2-3.4-1.6-2-2.5-1.5-3.8.7-2 1.2 1 1.4.9.9-.8-.8-3 .3-2.6 2 .8zm4.2-.9c.3.5.1 1-.4 1-.6 0-1.1-.5-1.1-1 0-.6.2-1 .4-1 .3 0 .8.4 1.1 1zm-10.5 6.5c1.2 1.9 2.5 3.4 3 3.2.9-.2 1.1.3.9 3.5-.1 1.8-.2 1.9-.6.5-.2-.9-.9-1.5-1.4-1.2-.5.4-.9-.1-.9-1.1 0-.9-1.1-2.7-2.5-4-2.5-2.3-3.3-4.4-1.6-4.4.5 0 1.9 1.6 3.1 3.5zm13-2c0 .9.7 1.8 1.5 2.1.8.4 1.5 1.3 1.5 2.1 0 1.9-1.4.9-4-2.7-1.8-2.5-1.9-3-.6-3 .9 0 1.6.7 1.6 1.5zm-20.2 4.1c-.4.3-1.2-.5-1.8-1.8-1.2-2.2-1.2-2.2.6-.6 1 1 1.5 2 1.2 2.4zm-76.8 4.8c0 .3-.4.8-1 1.1-.5.3-1 .1-1-.4 0-.6.5-1.1 1-1.1.6 0 1 .2 1 .4zm81.4 1.5c.3.5-.1 1.1-.9 1.4-.9.4-1.2.1-.8-.9.6-1.6 1-1.7 1.7-.5zm7.4 3.1c-1.3 2.1-2.9 2.2-3.6.2-.2-.7.2-1 1.1-.6.8.3 1.8.1 2.2-.5.3-.6.8-1.1 1.1-1.1.2 0-.1.9-.8 2zm-1.7 5.7c2.1 3.4 2.3 4.9.4 3.5-.6-.4-2.1-2.7-3.4-5.2-2.8-5.3-.5-4 3 1.7zm5.9-3.3c0 .7.9 2.3 2 3.6 1.1 1.3 2 2.7 2 3.2s.4.7.9.4c1.4-.9 3.2 2 2.5 3.8-.5 1.4-1.1 1.2-3.5-1.5-1.5-1.7-3.2-2.8-3.7-2.5-.5.3-1.7-.5-2.6-1.9-1.5-2.2-1.5-2.5-.1-2.5 1.2 0 1.4-.6.9-2.6-.5-1.9-.4-2.5.5-2 .6.4 1.1 1.3 1.1 2zm-9 3.9c0 1.3.5 2.8 1.2 3.5.7.7.8 1.2.2 1.2-1.1 0-3.4-4.2-3.4-6 0-.6.5-1 1-1 .6 0 1 1 1 2.3zm22-.3c0 .5-.4 1-1 1-.5 0-1-.5-1-1 0-.6.5-1 1-1 .6 0 1 .4 1 1zm-25.6 7.1c-.3.5.7 2.6 2.1 4.6 2.7 4 3.5 7.1.9 3.8-.9-1.1-2.4-3.6-3.4-5.6-1.5-2.8-1.6-3.6-.5-3.6.8 0 1.2.4.9.8zm7.4 1.4c-.3.3-.9-.2-1.2-1.2-.6-1.4-.5-1.5.5-.6.7.7 1 1.5.7 1.8zm9.6 7.2c1.6 2.6 3.1 4.2 3.3 3.5.3-.7 0-1.9-.6-2.6-1.1-1.3-.5-2.6 1.1-2.6.5 0 .6.5.3 1-.4.6-.1 1.8.6 2.6 1 1.3 1 1.7-.1 2.4s-1.1 1.3.3 3.4c2.2 3.3 2.1 3.9-.3 2.4-1.1-.7-2-2.1-2-3 0-1-.4-1.8-1-1.8-.5 0-1-.7-1-1.5s-.4-1.5-.9-1.5-1.4-1.4-2.1-3c-1.7-4.1-3.3-4.9-2.4-1.3.4 1.5 1.8 4 3.2 5.5 2.2 2.4 2.3 2.9 1.1 4.5-1.1 1.4-1.1 1.5 0 .9.8-.5 1.7-.3 2.2.5 1.3 2 1.1 3.1-.3 2.2-1.8-1.1-3.2-1-4 .1-.4.6-.4-.8-.1-3.1.3-2.7.1-4.3-.7-4.8-.9-.5-1.1-.4-.6.3.4.7.2 1.2-.4 1.2-.7 0-.9-.7-.6-1.6.4-.9-.3-3.2-1.4-5.1-2.4-4.1-2.4-4.3-.3-4.3 1.3 0 1.4-.3.5-1.2-.7-.7-1.2-1.7-1.2-2.3.1-1.4 3.9 3.4 7.4 9.2zm-.4-8.9c0 1.3-1.2 2.2-2.2 1.6-1-.6-.1-2.4 1.3-2.4.5 0 .9.4.9.8zm-8 15.2c.3.3 1.7 2.3 3 4.5l2.4 4-2.3-2c-1.3-1.1-3.2-3.7-4.2-5.7-2-4-2.6-6.6-.7-3.3.6 1.1 1.4 2.2 1.8 2.5z"/><path d="M631 666c0 .5.5 1 1 1 .6 0 1-.5 1-1 0-.6-.4-1-1-1-.5 0-1 .4-1 1zM287 400.6c0 .8.5 1.2 1 .9.6-.4.8-1.1.5-1.6-.9-1.4-1.5-1.1-1.5.7zM537.7 400.7c-.4.3-.7 1.1-.7 1.7 0 .6.5.5 1.2-.2.6-.6.9-1.4.7-1.7-.3-.3-.9-.2-1.2.2zM307.7 401.7c-1 .9-.8 3.3.2 3.3.5 0 1.1-.9 1.4-2 .5-2-.3-2.6-1.6-1.3zM1572 402.5c0 .8.7 1.5 1.5 1.5.9 0 1.2-.6.9-1.5-.4-.8-1-1.5-1.5-1.5s-.9.7-.9 1.5zM1082 406c0 1.7-.3 2-1.2 1.3-.7-.6-2.5-1.3-4-1.7-2.2-.5-2.8-.3-2.8 1 0 1.2-.4 1.4-1.2.7-2.3-1.7-5.8-1.3-6.9.9-1.1 2-1.2 2-2.4.4s-1.4-1.6-2.8.4c-1.1 1.6-2.1 2-3.7 1.5-1.8-.6-3 .2-6.6 4-2.4 2.6-4.4 5.4-4.4 6.1 0 .8-.9 1.4-2 1.4-2.1 0-2.8-2.4-1-3.5.6-.3 1-1.1 1-1.8 0-.6-.9-.2-2.1 1-2 2-2.1 2.2-.4 5.7 1.6 3.3 1.6 3.8.2 5.4-.8.9-3.3 5.3-5.4 9.7-2.2 4.4-6.1 12-8.6 16.8-2.6 4.8-4.7 9.8-4.7 11.1 0 1.3-.6 2.9-1.4 3.6-.8.6-2.7 4.4-4.1 8.3-1.5 4-3.4 8.8-4.3 10.7-.8 1.9-1.5 4.1-1.3 4.7.1.7-.4 1.3-1.2 1.3-1.2 0-4.8 6.6-5.3 9.8-.2.8-1 2.2-1.8 3.1-.9 1-1.6 3-1.6 4.4 0 1.5-.4 3.5-.9 4.5-.4.9-1.6 3.4-2.6 5.5-1 2-2 3.6-2.2 3.4-.5-.6 4.6-16.8 6.7-21.2 1.1-2.3 2-5.4 2-6.9s.4-2.5 1-2.1c.6.4 1-.6 1-2.1 0-5.3-1.5-2.2-10.4 22.3-4.6 12.4-7.8 23.4-7.1 24.1.2.2 1.4-1.9 2.6-4.6 1.3-2.8 2.7-4.8 3.2-4.5.5.3.6-.4.2-1.7-.6-2-.5-2.1.8-.9.9.9 1.2 1.8.6 2.3-.5.6-.9 1.8-.9 2.9 0 1-1.1 3.3-2.5 5.1-1.7 2.2-2.7 5-2.9 8.1-.3 3.1-1 5.1-2 5.7-2.2 1.3-2.1 4.2.2 3.4 1.1-.4.9 0-.5 1-2.6 1.8-3.1 3.9-.8 3 2.1-.8 1.9 1.6-.4 4.5-1 1.3-2.3 5.3-2.9 8.9-.6 3.6-1.6 7.8-2.3 9.5-1.3 2.9-1.4 2.9-1.7-3.3-.2-4.8-.6-6.3-1.6-5.9-1 .4-1.7-1.5-2.5-7.6-.7-4.5-1.4-9.3-1.7-10.7-.3-1.4-.9-30.4-1.4-64.5-.8-59-1.3-68.6-3.8-67.1-.4.3-2.5.1-4.5-.3-2-.5-3.7-.5-3.9-.1-.2.5-2.5.4-5.3-.1-3.6-.7-5.6-.6-7.2.2-1.7.9-3.2 1-5.8.2-2.9-.9-3.7-.8-4.6.5-.6 1.1-1.2 1.3-1.5.6-.4-.9-1.4-.9-3.8-.2-3.2 1-3.7 1.9-8.4 13.7-12.6 31.2-24.1 66.5-32.2 98.1-2.3 9.1-5 19.1-6.1 22.2-1 3.2-1.9 7.2-1.9 9.1 0 1.8-.4 3.7-.9 4.2-1.4 1.5-2.5 10.9-1.2 10 .6-.3 1.1-1.9 1.1-3.5s.5-3.2 1.1-3.6c.8-.4.9.4.4 2.7-1.1 5.7-1.6 7-2.5 6.4-1.6-1-2 1.3-.8 4 .9 2 .9 2.8-.2 3.8-1 1-1.2.7-.7-1.3.6-2.4.5-2.4-.9-.5-2.2 2.9-4.4 11.3-4.3 15.9.1 4 .2 4 1.6-1.9.8-3.3 1.9-6.5 2.5-7 .7-.7.8-.4.4 1-.6 2.1-5.6 24.5-5.6 25.2 0 .2-.3.2-.7 0-.5-.3-.9 2.3-1 5.6-.1 3.4-1.5 11-3.2 16.9-1.7 5.8-3.3 12.6-3.6 15-.5 4.1-.4 4 1.9-2.2 1.4-3.6 2.5-5.8 2.5-5 .1.8.4 2.6.7 4 .4 1.7.3 2.1-.3 1.2-.7-.9-1.2-.6-2.1 1.3-1.6 3.4-1.6 6.8 0 5.9.8-.5.9-.2.5.9-.3 1-.2 1.7.4 1.7.6 0 .8.8.4 1.9-.4 1.3 0 2 1.6 2.4 1.4.4 2 1.1 1.6 2.1-.7 1.6.4 2.2 1.7.9 1.2-1.2 8-.2 9.7 1.3 1.3 1.1 2.6 1.3 5 .7 4.7-1.2 6.8-6 11.3-25.3 4-17.1 7.7-30.6 10.1-36.3.9-2.1 1.3-4.2 1-4.7-.3-.5.1-2.6.9-4.7s1.7-5.8 2-8.3c.6-4.2 1.5-7.4 8-27.6 1.4-4.5 2.6-9.1 2.6-10.2 0-1.2.4-2.3.9-2.6.4-.3 1.1-2.5 1.4-4.8.3-2.4 1.4-5.8 2.3-7.7 1-2 1.3-3.6.7-4-.6-.4-.6-1.9 0-4.1.5-1.9 1.2-2.9 1.4-2.2.3.6.8 1 1.3.7.4-.3 1.1 3.4 1.5 8.2 4.3 59.1 8 79.9 15.7 90.4 2 2.6 2.2 2.7 3.4 1.1.7-.9 1.4-1.3 1.4-.7 0 1.2 15.8 1.2 20.8.1 2.5-.6 3.2-.4 3.2.8 0 1.3.5 1.4 2.6.6 1.4-.6 4-1 5.8-1 3 0 3.6-.6 7.3-7.3 5.3-9.3 9.7-21.3 17.2-46.7 5.7-19.4 9.9-31.9 12.2-36.3.8-1.3 1.4-1.6 2.1-.9.8.8.6 1.6-.6 2.7-.9.9-1.6 3.3-1.6 5.3s-1.2 12.9-2.6 24.2c-1.4 11.3-2.7 27.6-2.9 36.5-.2 8.8-.8 18.9-1.4 22.5-.6 3.6-1 9.9-1 14s-.1 8.8-.1 10.5c-.2 2.8-.2 3.6.1 6.7.1.7-.2 6.9-.6 13.8-.8 13.9.4 24.6 3.5 31.7 1.3 3 2.3 4.1 3.4 3.7.8-.3 2.4-.1 3.5.6 1.2.6 2.1.7 2.1.1 0-1.5 3-2.2 5.1-1 1.5.7 2.3.6 3.5-.6 1.9-1.8 2.5-1.9 5.9-.3 1.6.7 2.9.8 3.3.2 1.1-1.4 4.2-1.6 4.2-.3 0 .8.7.6 1.8-.5 1.4-1.2 2.8-1.4 5.2-.9 2.9.5 3.2.4 2.7-1.1-.4-1 .2-3.4 1.3-5.6 2.5-4.9 2.5-7 .2-7-1 0-3.1-1.3-4.7-3l-2.8-2.9.1-19.2c.3-39.7 2.7-75 7.2-108.7 4-29.5 12.7-83 14-86.7.5-1.2.3-4.4-.2-7.2-1.1-5.4-.4-9.9 1.1-7.5.9 1.4 6.2-17 8.5-29.7 1.6-8.3 1.9-21 .7-26.5-.7-3.6-3.1-4.7-3.1-1.6zm-31 14c0 .5-.2 1-.4 1-.3 0-.8-.5-1.1-1-.3-.6-.1-1 .4-1 .6 0 1.1.4 1.1 1zm-8.2 16c-.1 3.4-.9 3.8-2.9 1.4-1.1-1.4-1-1.8.6-3 2.5-1.8 2.4-1.9 2.3 1.6zm-2.7 5.1c.9 1.7.8 2-.2 1.4-.9-.6-1.1-.3-.6.9.8 1.9-1.5 6-2.7 4.9-.4-.4-1.1-.1-1.6.7-.8 1.2-1 1.2-1 .2 0-.8.9-2.5 2-3.9s2-3.4 2-4.4c0-2.5.7-2.4 2.1.2zm-4.3 12.6c-1.6 3.8-2.1 4.3-3.5 3.5-1-.6-.7-1.5.9-3.5 2.8-3.5 4.1-3.5 2.6 0zm1.2 4.3c0 .5-.4 1-1 1-.5 0-1-.5-1-1 0-.6.5-1 1-1 .6 0 1 .4 1 1zm-4 1.9c0 1-1.1 3.5-2.5 5.5s-2.5 4.6-2.5 5.7c0 2.1-4 9.9-5.1 9.9-1.5 0-2.9-2.9-2.3-4.5.7-1.7.8-1.7 2-.1.7 1 1.5 1.3 1.8.7.4-.5.1-1.3-.4-1.6-.7-.5-.5-1.2.7-2.1 1.7-1.2 1.7-1.3.1-1.4-1 0-1.8-.3-1.8-.6 0-.9 2.8-3.4 3.7-3.4.5 0 .9-1.5.9-3.4 0-3.7 1.8-6.6 4-6.6.8 0 1.4.8 1.4 1.9zm-3 15.1c0 .5-.4 1-1 1-.5 0-1-.5-1-1 0-.6.5-1 1-1 .6 0 1 .4 1 1zm6.3 5c-.3 1.1-.9 1.7-1.5 1.4-.5-.3-.4-1.2.3-2 1.6-1.9 1.8-1.8 1.2.6zm-15 1.6c1.3.5 1.2 1.4-.5 6.5-2 5.8-1.8 8.9.3 5.9.9-1.3 1-1.3.6 0-.2.8-1.2 1.4-2.1 1.3-1.7-.1-2.7 1.5-5 8.1-.3 1-.9 1.7-1.2 1.4-.2-.3 0-1.6.5-2.9.6-1.7.5-2.8-.6-3.8-1.1-.9-1.2-1.6-.4-2.4.6-.6 1.1-2.4 1.1-3.9 0-1.7.8-3.3 2-4 1.1-.7 2-2.2 2-3.4 0-3 .9-3.8 3.3-2.8zm13.7 2.4c0 .5-.5 1-1.1 1-.5 0-.7-.5-.4-1 .3-.6.8-1 1.1-1 .2 0 .4.4.4 1zm-10 1.7c0 .5-.5 1.5-1 2.3-.8 1.2-1 1.1-1-.8 0-1.2.5-2.2 1-2.2.6 0 1 .3 1 .7zm7.6 3.9c-.4 1.4-.9 2.4-1.2 2.1-.3-.2-.2-1.7.2-3.1.3-1.5.9-2.5 1.1-2.2.3.3.2 1.7-.1 3.2zm-9.3 9.5c-.4 1.6-.8 1.7-1.4.7-1.3-1.9-1.1-2.8.5-2.8.9 0 1.2.7.9 2.1zm-10.3 2.3c0 .8-.5 1.8-1 2.1-1.4.9-5-.4-5-1.8 0-.8.3-.8 1.2.1 1.6 1.6 2.8 1.5 2.8-.3 0-.8.5-1.5 1-1.5.6 0 1 .6 1 1.4zm12.1 6.3c-1.2 2-1.4 1.4-.5-1.2.4-.9.9-1.4 1.1-1.1.3.2 0 1.3-.6 2.3zm-14.7-.2c-.4.8-1.1 1.2-1.6.9-.6-.4-.5-1 .3-1.5 1.9-1.2 1.9-1.1 1.3.6zm9.6-.1c0 .8-.4 1.8-1 2.1-.5.3-1-.3-1-1.4 0-1.2.5-2.1 1-2.1.6 0 1 .6 1 1.4zm-8.2 4.1c-.7 2.1-1.9 4-2.6 4.3-1.1.3-1.1 0-.3-1.4.6-1.1 1.6-3.2 2.1-4.8 1.6-4.3 2.2-2.5.8 1.9zm11.7-.5c.3.5.2 1-.4 1-.5 0-1.3-.5-1.6-1-.3-.6-.2-1 .4-1 .5 0 1.3.4 1.6 1zm-4.5 1c0 .5-.4 1-1 1-.5 0-1-.5-1-1 0-.6.5-1 1-1 .6 0 1 .4 1 1zm-2.6 1.5c.3.9-.1 3-.9 4.8l-1.4 3.2.6-4.4c.5-3.5.3-4.2-.7-3.6-.9.5-1.1.4-.6-.3 1-1.7 2.3-1.5 3 .3zm5.6 2c-.7.9-1.5 1.3-1.7 1.1-.7-.7.7-2.6 1.9-2.6.6 0 .6.6-.2 1.5zm-13 2.5c0 .5-.5 1-1.1 1-.5 0-.7-.5-.4-1 .3-.6.8-1 1.1-1 .2 0 .4.4.4 1zm14 5.1c-.7 1.1-1.4 1.8-1.7 1.5-.8-.8.5-3.6 1.7-3.6.7 0 .7.6 0 2.1zm-16.4 2.4c-.3.8-1 1.5-1.5 1.5-.7 0-.6-1 .1-2.6 1.2-2.6 2.5-1.6 1.4 1.1zm11.4 1c-.6 1.5-1.3 2.5-1.6 2.3-.2-.3.1-1.7.7-3.2.7-1.4 1.4-2.4 1.6-2.2.2.2-.1 1.6-.7 3.1zm-13.9 6.8c-.7.7-1.5.6-2.6-.3-2.1-1.7-1.9-2.5.8-3.7 1.8-.9 2.3-.7 2.5 1 .2 1-.1 2.4-.7 3zm12.9-1c0 .2-.9 1.2-1.9 2.1-1.9 1.7-1.9 1.7-1.4-.3.3-1.2 1.2-2.1 1.9-2.1.8 0 1.4.2 1.4.3zm-7.9 5.8c-.6 1.6-1 1.8-1 .7-.1-2.2 1.2-5.5 1.6-4.2.2.6-.1 2.2-.6 3.5zm-6.5-.6c-.1 2.9-1.6 3.5-1.6.7 0-1.6.8-3.2 1.6-3.2.1 0 .1 1.1 0 2.5zm-1.6 5.1c0 .8-.4 1.4-.9 1.4s-1.7.7-2.6 1.6c-.9.9-1.8 1.4-2.1 1.1-.3-.3.4-1.4 1.5-2.4 1.2-.9 2.1-2.3 2.1-3.1 0-.7.5-1 1-.7.6.3 1 1.3 1 2.1zm-5.3 9.6c-.3.7-.5.2-.5-1.2s.2-1.9.5-1.3c.2.7.2 1.9 0 2.5zm-2.6 8.4c-1.4 3.9-1.6 4.2-1.9 2-.3-2.6 1.3-6.6 2.7-6.6.5 0 .1 2.1-.8 4.6zM889 560c0 .5-.5 1-1.1 1-.5 0-.7-.5-.4-1 .3-.6.8-1 1.1-1 .2 0 .4.4.4 1zm-2.4 8.7c-1.1 1.1-1.7-.4-.9-2.3.7-1.8.8-1.8 1.1-.1.2 1 .1 2.1-.2 2.4zm104.6.7c.3 1.6 0 2.7-.9 3-1.6.7-2.8-1.7-1.9-3.9.8-2.3 2.3-1.8 2.8.9zm-4.1 11.9c-1.8 1.8-2.2.2-.9-3.4l1.3-3.4.3 2.9c.2 1.6-.1 3.3-.7 3.9zm-1.7 4.2c.6 1.6-1.3 5.5-2.6 5.5-.4 0-.3-1.2.2-2.6.6-1.4.8-3 .4-3.5-.3-.5-.1-.9.4-.9.6 0 1.3.7 1.6 1.5zm36.3 26.2c-.3 1-.5.4-.5-1.2 0-1.7.2-2.4.5-1.8.2.7.2 2.1 0 3zm-147.1 22.9c-.4 2-1 3.4-1.2 3.1-.3-.3-.2-2.1.2-4.1.3-2.1.9-3.5 1.1-3.2.3.3.2 2.1-.1 4.2zm-2.6 11.9c-1.5 4.1-2.1 2.6-.8-2.1.6-2.1 1.3-3.2 1.5-2.3.2.8-.1 2.8-.7 4.4zm-1.5 14.5c.3.5.1 1-.4 1-.6 0-1.1-.5-1.1-1 0-.6.2-1 .4-1 .3 0 .8.4 1.1 1z"/><path d="M1017.6 488.9c-.4.7-.5 1.5-.2 1.8.9.9 1.9-.4 1.4-1.8-.4-1.1-.6-1.1-1.2 0zM305.5 409.1c-.9 4-.2 4.6 1.2.9.6-1.7.7-3.2.3-3.5-.5-.3-1.1.9-1.5 2.6zM288.6 408.9c-.3.5.1 1.4.9 2.1.8.7 1.5 2 1.6 2.9 0 .9.5.3.9-1.3.5-1.6.7-3.3.4-3.8-.7-1.1-3.1-1-3.8.1zM272.4 413.5c-1.7 4.2-1.7 4-.1 5.7.9.8 1.1 2.1.6 3.3-.7 1.9-.8 1.9-.8-.3-.1-3.3-1.8-2.7-3.1 1.3-.6 1.9-1.6 3.8-2.2 4.1-1 .7-1 .1.8-7.1.4-1.5.1-1.4-1 .5-3.1 4.9-8 22.3-7.9 27.7.1 2.9-.2 5.3-.6 5.3-.3 0-.5 1.8-.3 4 .3 2.9-.3 5.5-2.2 9.4-1.4 2.9-2.6 6.1-2.6 7 0 .9-.7 2.7-1.6 4.1-1.2 1.9-1.3 3.3-.6 7.7 1.2 6.2 1 6.8-2 6-1.7-.4-2-.2-1.5 1.1.3.9.2 1.9-.3 2.2-.5.3-.9 1.3-.9 2.3 0 4.3-1.2 8.8-2.7 9.9-.8.6-1.4 2-1.2 3.1.2 1-.3 2.7-1.1 3.6-.8.9-1.4 3.1-1.4 4.9 0 1.8-.5 3.5-1.1 3.9-.5.4-1 2.3-1 4.2 0 2-.3 3.6-.7 3.6-.4 0-1 1.2-1.3 2.7-.4 1.6-1.6 6.1-2.8 10.1-1.7 5.8-2.4 7-3.4 6.1-1.9-1.6-1.8 1 .1 3.5.8 1.1 1.5 2.5 1.5 3 0 .6-.5.4-1.1-.4-.8-1.1-.9-.4-.6 2.7.4 3.1.1 4.3-.8 4.3-.8 0-1.6 1.9-2 4.7-.5 3.2-.9 4.2-1.5 3.3-1.5-2.4-2.9 3.2-2.4 9.7.3 3.9.1 5.2-.5 3.8-.7-1.6-1-1.7-1.4-.5-1.7 4.4-2.7 10.2-2.2 12.3.9 3.3-1 9.9-3.4 11.9-2.5 2.1-3 1.3-3.8-5.2-.3-2.8-1-5.3-1.4-5.6-.5-.2-.6-1.7-.3-3.3.4-1.9 0-3.3-1.2-4.5-1.4-1.5-1.6-2.3-.7-4.6.6-1.6.7-3.4.2-4.1-.4-.8-.5-2.5-.2-3.8.5-2 .3-2.3-1.1-1.8-2.1.8-2.1-1.2 0-2.7 1.4-1.1 1.4-1.6.1-4.8-.8-1.9-1.3-4.7-1-6.1.4-1.8-.1-2.9-1.5-3.8-1.7-1-1.9-1.7-1-3.3.6-1.2.8-4.4.4-8.5-.4-3.6-.7-8.8-.6-11.4.1-2.7-.5-5.8-1.3-7-1.9-3-2.7-7.7-1.3-7.7.7 0 .7-.3-.1-.8-.9-.6-.9-1.7.2-4.7 1.7-4.9 1.9-8.2.3-9.1-.8-.5-.9 0-.5 1.6.3 1.3.2 1.9-.3 1.4-1.4-1.5-2.5-12.8-1.1-12 .6.4 1.1 1.8 1.1 3.2 0 1.3.4 2.4.8 2.4 1.2 0 .1-7.4-1.2-8.2-.7-.5-.8-.8 0-.8.7 0 .9-1.9.6-5.3-.2-2.9.1-12.9.7-22.2.6-9.4.8-20.2.4-24.2-.6-7-.6-7.1-3.7-7.8-1.7-.4-3.9-.7-4.8-.6-1 .1-1.8-.3-1.8-1 0-.9-.3-.9-1.4 0-1.2 1-1.6.8-2.1-1-.5-1.5-1-1.8-1.5-.9-.5.8-.9.7-1.4-.5-.3-1-1.2-1.5-2.1-1.1-.8.3-1.5.1-1.5-.4 0-2-1.9-.9-2.3 1.2l-.4 2.3-.2-2.3c-.2-3.7-7.5-5.6-10.4-2.7-1.3 1.3-1.6 1.2-2.2-.3-.8-2.1-2 .4-7.6 16.6-3.6 10.4-13.7 46-15.4 54.2-.4 1.9-1.1 4.1-1.6 5-1.1 2-14.8 58-19.8 80.5-6.7 30.2-9.5 45.9-8.3 46.3 1.4.4.3 3.2-1.3 3.2-1.5 0-2.2 3.9-4 24-1.9 19.6-1.9 18.5 0 17 1.3-1 1.5-.9 1.5 1.1 0 3.1 1.5 5.3 2.9 4.5.7-.5 1.1.2 1.1 1.6 0 1.3.7 3.3 1.5 4.5 1.7 2.5 7.9 4.8 11.4 4.4 1.3-.2 2.7.2 3.1.9.4.6 2.3 1.5 4.4 2l3.6.8 2.5-8.2c3.6-12 6.7-25.8 13-58.1 7-36.1 12.9-61.4 14-60.3.2.2 1.3 9.6 2.5 20.8 3.9 36.9 7.9 56.2 15.3 72.4 2.1 4.7 3.3 6.3 3.7 5.2.5-1.5.8-1.5 2.9.3 1.3 1.2 3.1 2.1 4 2.1.9 0 3 .7 4.6 1.6 4.2 2.2 31.7 3.3 34 1.4 4.4-3.6 8.9-15.9 15-40.5 2-8.2 4.1-15.7 4.6-16.6.5-1 2.3-8.6 3.9-17.1 5.6-27.7 11.1-48.8 28-107.3 5.5-18.7 11.3-39.4 13-46 1.8-6.6 4-13.5 5.1-15.3 1-1.7 1.4-3.2.9-3.2-.5 0-1.2.9-1.5 2-.4 1.1-1.1 1.7-1.7 1.4-.6-.4-.6-.9-.1-1.3.6-.3 1.3-2 1.6-3.8.5-2.6.3-3.1-.8-2.6-.8.3-1.5.9-1.5 1.4 0 .5-.8.9-1.7 1-1.1 0-1.3.3-.6.6 1.9.7.4 5.3-2.6 7.9-2.4 2-2.4 2.2-.7 3.9 1.2 1.2 1.4 2 .6 2.5-.6.4-.8 1.4-.4 2.3.5 1.3 0 1.7-2 1.7-2.1 0-2.6.5-2.6 2.4s-.8 2.7-3.7 3.7c-3.2 1-3.5 1.3-2 2.4 1.9 1.3 2.3 3.5.7 3.5-.5 0-1-.7-1-1.5s-.5-1.5-1.1-1.5c-.7 0-.8.7-.4 1.7s.9 2.9 1.1 4.2c.4 2.1.3 2.2-1.1.7-.9-.9-1.3-2-1-2.6.3-.5.2-1-.4-1-.5 0-1.2.6-1.5 1.2-.3.7-.2-.7.1-3.2.3-2.5.9-4.9 1.4-5.5.5-.5.9-1.8.9-3s.4-2.5 1-3.1c.5-.5 1.3-3.7 1.6-7.1.9-8-1-9.3-3.1-2.1-1.5 5.1-3.5 9.3-3.5 7.4 0-.6-.7-.1-1.5 1-1.3 1.6-1.4 1.6-.9.1.3-.9.1-1.7-.5-1.7s-1.1.8-1.2 1.7c0 1-.3 1.3-.5.7-.3-.6.2-2.4 1.1-4 .8-1.6 1.5-2.3 1.5-1.6 0 2.6 1.9.1 2.6-3.3.3-2 1.2-3.5 2-3.5 1.7 0 1.8-2.7.2-3.3-.8-.3-.5-.6.6-.6 1.2-.1 1.6-.6 1.2-1.7-.3-.9-.6-2-.6-2.5s-.4-.9-.9-.9-1.1 1.7-1.4 3.8c-.4 2.1-1.3 4.6-2.2 5.7-1.4 1.9-1.5 1.8-.5-.8 1.4-3.8 1.3-3.9-1-2-1.3 1.2-1.8 2.4-1.4 4 .4 1.6.1 2.5-1 2.9-1.1.4-1.4 1.3-1.1 2.5.4 1.1.2 1.9-.5 1.9s-1 .6-.7 1.4c.3.8-.1 1.7-.9 2-.8.3-1.4 0-1.4-.6 0-1.2 1.7-6.9 3.1-10.3.4-1.1 1.4-4 2.1-6.4 1-3.6 1-4.5 0-4.9-.8-.2-.9-.8-.4-1.5 1.4-1.8 2.1-5.7 1.1-5.7-.6 0-1.7 1.6-2.5 3.5zm-1 13c-.4.8-.8 1.5-1 1.5-.2 0-.4-.7-.4-1.5s.4-1.5 1-1.5c.5 0 .7.7.4 1.5zm-7.3 6.8c-1 .9-1.1.8-.5-.6.3-1 .9-1.5 1.2-1.2.3.3 0 1.1-.7 1.8zm4.9 1.7c0 .5-.5 1-1.1 1-.5 0-.7-.5-.4-1 .3-.6.8-1 1.1-1 .2 0 .4.4.4 1zm-6.8 4.2c-.8.8-.9.4-.5-1.3.4-1.3.8-1.8 1.1-1 .2.7-.1 1.8-.6 2.3zm6.8 5.8c-.7.4-1 1.2-.6 1.8.3.6-.2 1.5-1.1 2.1-1.4.8-1.5 1.3-.5 1.9 1 .7.9 1.2-.4 2.3-1.6 1.3-1.7 1.1-1.1-2.8.4-2.3 1.2-5.4 1.8-7 1-2.6 1.1-2.7 2.1-.9.7 1.3.7 2-.2 2.6zm7-2.7c0 .7-.5 1.8-1.1 2.4-.6.6-1.2 3-1.3 5.3-.1 2.7-.8 4.5-1.9 5.2-2.1 1.1-2.1.7-.4-3.5.8-1.8 1.7-4.9 2.1-7 .6-3.5 2.6-5.3 2.6-2.4zm-4.2 4.3c-.8 2.7-1.3 3.3-1.6 2-.4-1.7 1.7-7 2.4-6.3.2.2-.2 2.1-.8 4.3zm-9-.8c.6 1.8-1.5 1.4-2.2-.4-.4-1-.1-1.4.6-1.2.6.2 1.4 1 1.6 1.6zm28.8 3.2c-.1 3.6-1.9 6-3.4 4.5-.3-.3 0-.5.7-.5s.9-.5.6-1c-.5-.8 1.4-7 2.1-7 .1 0 .1 1.8 0 4zm-27.6 8c0 1.1-.4 2-.9 2s-.7-.9-.4-2c.3-1.1.7-2 .9-2 .2 0 .4.9.4 2zm12.4 7.9c-1.6 1.5-1.6 1.5-.9-.4.4-1.1 1-2.9 1.3-4 .6-1.8.7-1.8 1 .4.2 1.3-.4 3.1-1.4 4zm6.9-1.7c-.5.9-3.3 1.1-3.3.2 0-.3.5-1.5 1.2-2.7 1.1-2.1 1.1-2.1 1.8-.2.4 1.1.6 2.3.3 2.7zm-13.2.5c-1.2 2-1.4 1.4-.5-1.2.4-.9.9-1.4 1.1-1.1.3.2 0 1.3-.6 2.3zm-9.1 2.9c0 .8-.5 1.2-1 .9-.6-.4-.8-1.1-.5-1.6.9-1.4 1.5-1.1 1.5.7zm22 1c0 .8-.4 1.2-1 .9-.5-.3-1-1-1-1.6 0-.5.5-.9 1-.9.6 0 1 .7 1 1.6zm-8.3 2.6c-.3.8-.6.5-.6-.6-.1-1.1.2-1.7.5-1.3.3.3.4 1.2.1 1.9zm-15.2 1.6c-.1 1.6-.5 3.4-.9 4-.4.7-.4 1.7 0 2.4s.3.8-.4.4-1-1.8-.6-3.4c1.5-6.8 2.3-8.2 1.9-3.4zm-63.6 4.6c-.9.8-1 .7-.5-.7.3-1 .7-2.4.7-3 .1-.7.3-.4.6.7.3 1-.1 2.3-.8 3zm76.9 1.7c-.6 1.6-1.2 2.8-1.5 2.6-.7-.7.8-5.7 1.8-5.7.4 0 .3 1.4-.3 3.1zm-81.1 23.1c-.1 4.6-.3.9-.3-8.2s.2-12.8.3-8.3c.2 4.6.2 12 0 16.5zm73.8-22.2c-.3.5-1 1-1.6 1-.5 0-.9-.5-.9-1 0-.6.7-1 1.6-1 .8 0 1.2.4.9 1zm-9 3.1c-.6 1.7-.9 1.9-1.6.8-1.2-1.9-1.1-3.2.1-2.4.6.3 1 .1 1-.6s.3-1 .6-.6c.3.3.3 1.5-.1 2.8zm-59.8 1.1c-.3.7-.5.2-.5-1.2s.2-1.9.5-1.3c.2.7.2 1.9 0 2.5zm63.4-.5c-.8 1.5-1 1.5-1.1.2 0-1.7 1-3.2 1.8-2.5.2.3-.1 1.3-.7 2.3zm9 7.6c-.8.8-1.1.7-1.1-.4 0-2 1.3-3.4 1.8-1.9.3.7-.1 1.7-.7 2.3zm-7.1-1.9c0 .3-.4.8-1 1.1-.5.3-1 .1-1-.4 0-.6.5-1.1 1-1.1.6 0 1 .2 1 .4zm-8.4 5.3c-1 2.6-1.8.8-.9-2.3.5-2.1.8-2.4 1.1-1.1.2 1 .1 2.5-.2 3.4zm-64.9 1.5c-.3.8-.6.5-.6-.6-.1-1.1.2-1.7.5-1.3.3.3.4 1.2.1 1.9zm60.9 2.5c-1.1 1.1-1.7-.4-.9-2.3.7-1.8.8-1.8 1.1-.1.2 1 .1 2.1-.2 2.4zm3.9 1.1c-.3.3-1.1 0-1.8-.7-.9-1-.8-1.1.6-.5 1 .3 1.5.9 1.2 1.2zm-63.5 4.9c0 1.7-.4 3.5-1 3.8-.6.4-1-1.4-1-4.7 0-3.8.3-4.9 1-3.8.5.8 1 2.9 1 4.7zm7 2.2c-.7 1.1-.9.3-.9-2.9.1-4.2.1-4.3.9-1.6.6 1.7.5 3.6 0 4.5zm69-5.4c0 .8-.4 1.5-1 1.5-.5 0-.7-.7-.4-1.5.4-.8.8-1.5 1-1.5.2 0 .4.7.4 1.5zm-16.4 3.3c-1 1-2.9-1.5-2.1-2.8.6-.9 1-.8 1.7.4.6 1 .7 2 .4 2.4zm7.5-.1c-1.2 2-1.4 1.4-.5-1.2.4-.9.9-1.4 1.1-1.1.3.2 0 1.3-.6 2.3zm-7.1 4.5c0 1.5-1.9.8-2.9-1.1-1.4-2.5 0-3.7 1.6-1.5.7 1 1.3 2.1 1.3 2.6zm-4 3.3c0 1.4-.4 2.5-1 2.5-1.1 0-1.4-3.3-.3-4.3 1.1-1.1 1.3-.8 1.3 1.8zm-56.3 2.2c-.3 1-.5.4-.5-1.2 0-1.7.2-2.4.5-1.8.2.7.2 2.1 0 3zm3 8.5c-.2 2.4-.4.5-.4-4.2s.2-6.6.4-4.3c.2 2.4.2 6.2 0 8.5zm4.7-8.7c.3.8.1 1.5-.4 1.5-.6 0-1-.7-1-1.5s.2-1.5.4-1.5.6.7 1 1.5zm48.9 4.5c-.7 2.8-1.3 2.5-1.3-.6 0-1.4.4-2.3.9-2 .5.3.7 1.5.4 2.6zm-48.6 3.7c-.3 1-.5.2-.5-1.7s.2-2.7.5-1.8c.2 1 .2 2.6 0 3.5zm45.7-2.2c-.4.8-.8 1.5-1 1.5-.2 0-.4-.7-.4-1.5s.4-1.5 1-1.5c.5 0 .7.7.4 1.5zm-52.9.5c.3.5.1 1-.4 1-.6 0-1.1-.5-1.1-1 0-.6.2-1 .4-1 .3 0 .8.4 1.1 1zm-52.4 5.3c-1 .9-1.1.8-.5-.6.3-1 .9-1.5 1.2-1.2.3.3 0 1.1-.7 1.8zm55.9 4.6c0 .6-.4 1.3-1 1.6-.5.3-1-.1-1-.9 0-.9.5-1.6 1-1.6.6 0 1 .4 1 .9zm-3.3 8.3c-.2 1.3-.4.3-.4-2.2s.2-3.5.4-2.3c.2 1.3.2 3.3 0 4.5zm3.3-3.1c0 .6-.4.7-1 .4-.5-.3-1-1.1-1-1.6 0-.6.5-.7 1-.4.6.3 1 1.1 1 1.6zm.3 12.9c.3 1.1.1 1.8-.4 1.4-.5-.3-.9-1.2-.9-2 0-2 .7-1.7 1.3.6zm44.1 1.6c.3.8.2 1.2-.4.9-.6-.3-1-1-1-1.6 0-1.4.7-1.1 1.4.7zm-43.7 6.6c-.3.7-.5.2-.5-1.2s.2-1.9.5-1.3c.2.7.2 1.9 0 2.5zm1.3 8.5c0 2-.3 3.3-.7 2.9-.5-.4-.8-2.3-.8-4.1 0-1.8.3-3.1.8-2.8.4.2.7 2 .7 4zm28 12c-1.1 1.7-1.1 1.7-.6 0 .3-1 .6-2.4.7-3 0-.9.2-.9.5 0 .3.7 0 2-.6 3zm-103.4 22c-1.1 1.1-1.9-.6-1.1-2.4.8-1.7.8-1.7 1.2 0 .3 1 .2 2.1-.1 2.4zm-2.5 9.9c-.7 3.1-.9 3.4-1 1.2-.1-2.7.9-6.2 1.5-5.5.3.2 0 2.2-.5 4.3zm84.6 14.6c-.3.8-.6.5-.6-.6-.1-1.1.2-1.7.5-1.3.3.3.4 1.2.1 1.9zm-21 22c-.3.7-.5.2-.5-1.2s.2-1.9.5-1.3c.2.7.2 1.9 0 2.5z"/><path d="M279.6 414.3c.3 1 .9 1.5 1.2 1.2.3-.3 0-1.1-.7-1.8-1-.9-1.1-.8-.5.6zM286.5 414.1c-.4.6-.5 1.3-.2 1.6.7.7 2.7-.6 2.7-1.8 0-1.2-1.7-1.2-2.5.2zM303 416c-1.3.8-1.2 1 .3 1 .9 0 1.7-.5 1.7-1 0-1.2-.1-1.2-2 0zM285.8 419.1c-2 1.1-2.3 3.6-.8 5.9.7 1.2 1.2 1.2 2.2.2.9-.9.9-1.2-.5-1.2-1.9 0-2.1-.8-.9-2.8.5-.8 1.6-1 2.8-.5 1.7.6 1.7.5.5-1-.7-.9-1.4-1.7-1.5-1.7 0 0-.9.5-1.8 1.1zM296.1 426.6c0 1.1.3 1.4.6.6.3-.7.2-1.6-.1-1.9-.3-.4-.6.2-.5 1.3zM1425.8 428.1c-4.5 2.6.2 13.9 5.8 13.9 5.2 0 6.9-8.5 2.7-13.2-1.8-2-5.8-2.3-8.5-.7zM1477 437c0 .5.5 1 1 1 .6 0 1-.5 1-1 0-.6-.4-1-1-1-.5 0-1 .4-1 1zM1401.4 439.4c-1.2 3 .4 4.7 3.8 4.4 2.8-.2 3.3-.7 3.3-2.8 0-2.1-.5-2.6-3.3-2.8-2.2-.2-3.4.2-3.8 1.2zM286.6 441.6c-.9 2.2.3 3.2 1.4 1.4 1.2-1.9 1.2-3 .1-3-.5 0-1.2.7-1.5 1.6zM1480 447c2 1.3 3.3 1.3 2.5 0-.3-.6-1.4-1-2.3-1-1.5 0-1.5.2-.2 1zM1024 450.4c0 .9.5 1.6 1 1.6.6 0 1-.4 1-.9 0-.6-.4-1.3-1-1.6-.5-.3-1 .1-1 .9zM1022 455.7c0 2.2.2 2.5 1 1.3 1.3-2 1.3-4 0-4-.5 0-1 1.2-1 2.7zM1692 459c0 1.1.7 2 1.5 2 1.7 0 1.8-.2.9-2.4-.9-2.3-2.4-2-2.4.4zM1020.1 461.6c0 1.1.3 1.4.6.6.3-.7.2-1.6-.1-1.9-.3-.4-.6.2-.5 1.3zM1670.2 463c0 1.4.2 1.9.5 1.2.2-.6.2-1.8 0-2.5-.3-.6-.5-.1-.5 1.3zM1685 465.8c0 1.4.6 2.2 1.6 2.2 1.4 0 1.5-.3.3-1.8-.7-.9-1.5-1.9-1.6-2.1-.2-.2-.3.5-.3 1.7zM1014.1 471.7c-1 2.4-1 2.6.2 1 .8-.9 1.9-1.7 2.6-1.7.6 0 1.1-.5 1.1-1 0-2.1-2.7-.9-3.9 1.7zM449.5 471.2c-1.1 3.6-1.4 8.7-.6 9.2.5.3 1.1-1.8 1.3-4.9.3-5.4.1-6.7-.7-4.3zM821.6 471.6c-1 2.5-.7 9.4.4 9.4.6 0 1-2.5 1-5.5 0-5.7-.3-6.6-1.4-3.9zM1248.7 471.7c-1.1 1-.8 8.1.3 8.8.6.4 1-1.3 1-4.4 0-5.2-.1-5.6-1.3-4.4zM1681 472.2c0 1.8 1.8 3.4 2.8 2.4.3-.4-.2-1.4-1.1-2.3-1.6-1.6-1.7-1.6-1.7-.1zM619 484.9c-.7 1.5-.7 2.1 0 2.1 1.2 0 2.5-2.8 1.7-3.6-.3-.3-1 .4-1.7 1.5zM1503.4 489.7c-.2 4 0 4.3 2 3.7 1.1-.3 2.8-1.3 3.6-2.1 1.3-1.3 1.3-1.4-.5-1.1-1.4.2-2.1-.3-2.3-1.9-.6-4.2-2.7-3.2-2.8 1.4zM447.6 495.9c-.4.7-.5 1.5-.2 1.8.9.9 1.9-.4 1.4-1.8-.4-1.1-.6-1.1-1.2 0zM596 496c0 .5.5 1 1 1 .6 0 1-.5 1-1 0-.6-.4-1-1-1-.5 0-1 .4-1 1zM820.2 497c0 1.4.2 1.9.5 1.2.2-.6.2-1.8 0-2.5-.3-.6-.5-.1-.5 1.3zM1247 496.9c0 2.5.6 2.7 1.3.6.4-.8.2-1.7-.3-2-.6-.4-1 .3-1 1.4zM606 498.5c-.7.8-1 2-.7 2.7.4.8.6.7.6-.5.1-.9.6-1.7 1.2-1.7s.8.7.5 1.6c-.4 1-.1 1.4.6 1.2 1.9-.7 2.1-3.5.4-4.1-.8-.3-2 .1-2.6.8zM605.5 504c-.3.5-.1 1 .4 1 .6 0 1.1-.5 1.1-1 0-.6-.2-1-.4-1-.3 0-.8.4-1.1 1zM1635.8 503.7c.7.3 1.6.2 1.9-.1.4-.3-.2-.6-1.3-.5-1.1 0-1.4.3-.6.6zM1642 505c0 .5.5 1 1 1 .6 0 1-.5 1-1 0-.6-.4-1-1-1-.5 0-1 .4-1 1zM603.5 507c-.3.5-.1 1 .4 1 .6 0 1.1-.5 1.1-1 0-.6-.2-1-.4-1-.3 0-.8.4-1.1 1zM446 508.6c0 .8.5 1.2 1 .9.6-.3 1-1 1-1.6 0-.5-.4-.9-1-.9-.5 0-1 .7-1 1.6zM445 513.7c0 1.5 1.9 3.7 2.6 3.1.3-.4-.1-1.4-1-2.3-.9-.9-1.6-1.3-1.6-.8zM818 515c.6 1.1 1.5 2 2 2 1.7 0 1.1-1.5-1.1-2.8-1.9-1.2-1.9-1.1-.9.8zM1245.2 515.2c.5 1.5 2.8 2.3 2.8 1 0-.5-.7-1.3-1.6-1.6-1-.4-1.4-.1-1.2.6zM591.9 519.7c-.6 3.3-.5 5.3.2 5.3 1.6 0 2.1-2.2.8-3.1-1.3-.8-1.2-1 1-1.3 2.1-.3 2.3-1.6.3-1.6-1.2 0-2.3.3-2.3.7zM588.2 525.6c-.9 1-.9 1.4-.1 1.4s.8.4-.1 1.5c-1 1.2-1 1.5.3 1.5 1.6 0 2.8-3.2 1.8-4.8-.4-.6-1.1-.5-1.9.4zM1364.5 536c-.3.5.1 1 .9 1 .9 0 1.6-.5 1.6-1 0-.6-.4-1-.9-1-.6 0-1.3.4-1.6 1zM986.3 547.1c-3.2 9.1-2.9 13.3.3 5 1.4-3.6 2.4-7.6 2.2-9-.2-2-.8-1.1-2.5 4zM1760.8 555.7c.7.3 1.6.2 1.9-.1.4-.3-.2-.6-1.3-.5-1.1 0-1.4.3-.6.6zM983 560.9c-.7 1.5-.7 2.1 0 2.1 1.2 0 2.5-2.8 1.7-3.6-.3-.3-1 .4-1.7 1.5zM983.1 567.9c-.1.7-.7 1.1-1.6.7-.9-.3-1.5 0-1.5.9 0 1.7.9 1.9 2.9.6.7-.5 1.1-1.5.8-2.2-.5-1.2-.6-1.2-.6 0zM1764.2 573.1c.2.6.8 1 1.3 1s1.1-.4 1.3-1c.2-.6-.4-1.1-1.3-1.1s-1.5.5-1.3 1.1zM460.6 579.5c-.3.8-.1 1.5.4 1.5 1.3 0 2.2-1.8 1.1-2.4-.5-.3-1.1.1-1.5.9zM832.6 579.5c-.3.9 0 1.5.9 1.5 1.6 0 2-1.6.6-2.4-.5-.3-1.1.1-1.5.9zM1260.6 578.9c-.4.7-.5 1.5-.2 1.8.9.9 1.9-.4 1.4-1.8-.4-1.1-.6-1.1-1.2 0zM1437.5 580c-.3.5-.1 1 .4 1 .6 0 1.1-.5 1.1-1 0-.6-.2-1-.4-1-.3 0-.8.4-1.1 1zM1422.4 584.5c-.4.9-.2 2.1.4 2.7 1.5 1.5 4.4.1 4-1.9-.4-2.3-3.6-2.9-4.4-.8zM1446.4 585.2c.3 1.3.6 2.6.6 3 0 1 4-.3 4-1.4 0-.5-.5-.6-1.1-.3-.6.4-1.3-.2-1.6-1.4-.3-1.2-1-2.1-1.5-2.1-.6 0-.8 1-.4 2.2zM1436.5 587c-.9 2.7 1.1 5 4.2 5s4-2.6 1.8-5c-2.3-2.6-5.2-2.5-6 0zM458.5 587c-.3.5-.2 1 .4 1 .5 0 1.3-.5 1.6-1 .3-.6.2-1-.4-1-.5 0-1.3.4-1.6 1zM831 587.1c0 .5.5.7 1 .4.6-.3 1-.8 1-1.1 0-.2-.4-.4-1-.4-.5 0-1 .5-1 1.1zM1258 587c0 .5.7.7 1.5.4.8-.4 1.5-.8 1.5-1 0-.2-.7-.4-1.5-.4s-1.5.4-1.5 1zM1787 589.5c-.8.9-.8 1.5-.2 1.5 1.2 0 2.6-1.9 1.9-2.6-.2-.2-1 .2-1.7 1.1zM458 590c0 .5.6 1 1.4 1 .8 0 1.8-.5 2.1-1 .3-.6-.3-1-1.4-1-1.2 0-2.1.4-2.1 1zM830 590c0 .5.9 1 2 1s2-.5 2-1c0-.6-.9-1-2-1s-2 .4-2 1zM467.3 591.1c-.9.9-.8 1.5.3 2.6.8.8 1.4 2.5 1.4 3.8 0 1.9.4 2.2 2.3 1.7 1.2-.3 2.5-1 2.9-1.6.4-.6 1.7-1.1 3-1.1 1.3-.1 3.2-.4 4.3-.7 1.1-.4 4.1-.9 6.8-1.3 2.6-.3 4.5-1 4.2-1.4-.2-.5-4.3-.2-9.1.6-6.1.9-9 1-9.9.3-.7-.6-1.9-.9-2.6-.8-.9.2-1.3-.4-1.1-1.5.3-1.9-.9-2.2-2.5-.6zM839.6 591.3c-1.7 1.2-1.7 1.4-.2 2 1 .4 1.6 1.8 1.6 3.5 0 2.6.3 2.8 3 2.4 1.6-.2 2.7-.8 2.4-1.3-.3-.5.1-1 .8-1.1.7 0 2.4-.2 3.8-.4 4.7-.5 13.3-2.3 13.8-2.9.9-.9-4.7-.6-11.6.6-5.1.9-6.6.9-7.2-.1-.5-.7-1.5-1-2.5-.6-1.4.5-1.6.2-1.2-1.4.6-2.3-.2-2.5-2.7-.7zM1267 591c-1.2.7-1.2 1.2-.2 2.2.6.6 1.2 2.2 1.2 3.5 0 1.9.5 2.3 2.9 2.3 1.7 0 3.1-.6 3.5-1.6.4-1 1.4-1.4 2.6-1.1 1.1.3 3.3.1 4.8-.4s4.4-1.1 6.5-1.4c2-.3 3.7-1 3.7-1.4 0-.4-4.1-.2-9.1.6-7.2 1.2-9.3 1.2-9.9.2-.5-.6-1.6-.9-2.5-.5-1.4.5-1.6.2-1.2-1.4.6-2.2 0-2.5-2.3-1zM1433.5 591.1c-.4.6-.5 1.2-.2 1.5.2.3.7-.2 1-1.1.7-1.7.1-2-.8-.4zM825 595.1c0 .5.5.7 1 .4.6-.3 1-.8 1-1.1 0-.2-.4-.4-1-.4-.5 0-1 .5-1 1.1zM1450.1 596.6c0 1.1.3 1.4.6.6.3-.7.2-1.6-.1-1.9-.3-.4-.6.2-.5 1.3zM1787.2 599.6c-.7.8-1.2 2.2-.9 3.2.3 1.3.7 1 1.6-1.2 1.3-3.3 1.1-4-.7-2zM1444 600.8c0 .5.6 1.6 1.3 2.6 1.3 1.8 1.4 1.8 2 .2.4-1 .5-2.2.1-2.7-.7-1.1-3.4-1.2-3.4-.1zM1755.7 602.7c-1 .9-.8 1.5.8 3.7.7 1 1.9 1.5 2.5 1.1.8-.5.8-1.1-.1-2.2-1-1.2-1-1.6.2-2.4 1.1-.7 1-.9-.7-.9-1.1 0-2.4.3-2.7.7zM1431.8 604.2c.9.9 1.5.9 2.4 0 .9-.9.7-1.2-1.2-1.2s-2.1.3-1.2 1.2zM1789 606c.8.5 2.2.9 3 .9 1 0 .8-.3-.5-.9-2.7-1.2-4.3-1.2-2.5 0zM550.6 614.2c-.7 2.2-.7 2.2-1.7.3-.7-1.6-.8-1.4-.3 1 .9 4.7 2.2 5.1 3 1.1.7-4.2 0-5.9-1-2.4zM1435 616c0 1.3.7 2 2 2s2-.7 2-2-.7-2-2-2-2 .7-2 2zM625 619.3c0 .6.8 1.9 1.7 2.9.9 1 2.8 4.1 4.2 7 1.4 2.8 3 5 3.5 4.9.5-.2 1.2.3 1.7 1 1.6 2.6 2 0 .5-2.8-1.7-2.9-2.4-4.1-6.2-10.4-2-3.3-5.4-4.9-5.4-2.6zM547 620.6c0 1.1.7 2.9 1.5 4 1.9 2.6 2-.1 0-3.6-1.3-2.3-1.4-2.3-1.5-.4zM444.7 625.7c-.9.9-.9 6.3.1 6.3.4 0 .8-1.6.9-3.5.3-3.6.1-4-1-2.8zM546.6 627.6c1.2 4.9 2.3 6.3 2.4 2.8 0-1.7-.7-3.7-1.6-4.5-1.3-1.1-1.4-.9-.8 1.7zM817.3 628.5c0 2.2.2 3 .4 1.7.2-1.2.2-3 0-4-.3-.9-.5.1-.4 2.3zM1244.3 628.5c0 2.2.2 3 .4 1.7.2-1.2.2-3 0-4-.3-.9-.5.1-.4 2.3zM1437.6 626.5c-.3.9 0 1.5.9 1.5.8 0 1.5-.7 1.5-1.5s-.4-1.5-.9-1.5-1.1.7-1.5 1.5zM441 629.9c0 1.1.5 2.3 1 2.6.6.3 1-.3 1-1.4 0-1.1-.4-2.3-1-2.6-.5-.3-1 .3-1 1.4zM813 629.9c0 1.1.5 2.3 1 2.6.6.3 1-.3 1-1.4 0-1.1-.4-2.3-1-2.6-.5-.3-1 .3-1 1.4zM1240.8 630.7c.5 2.1.7 2.3 1 .9.2-1 0-2.2-.6-2.8-.6-.6-.7 0-.4 1.9zM1716.4 630.3c-.8 2.1.2 3.5 1.6 2.1.5-.5.6-1.5 0-2.4-.8-1.2-1-1.2-1.6.3zM1720.5 630c-.4.6-.3 1.6.3 2.2.6.6 1.2.6 1.7-.2.4-.6.3-1.6-.3-2.2-.6-.6-1.2-.6-1.7.2zM1536 638c0 .5.9 1 2.1 1 1.1 0 1.7-.5 1.4-1-.3-.6-1.3-1-2.1-1s-1.4.4-1.4 1zM1700 638.9c0 .6.4 1.3 1 1.6.6.3.7-.1.4-.9-.7-1.8-1.4-2.1-1.4-.7zM1530.1 642.7c0 .4.4 1.7.9 2.8.8 1.9.9 1.9.9-.2.1-1.2-.3-2.5-.9-2.8-.5-.3-1-.3-.9.2zM640.5 644.1c-.4.6.3 1.3 1.5 1.6 1.2.3 1.7.9 1.2 1.2-.7.4-.5 1.3.4 2.6 1.3 1.8 1.4 1.7 1.1-1.2-.6-4.8-2.6-6.8-4.2-4.2zM1433.5 646c-.3.6.1.7.9.4 1.8-.7 2.1-1.4.7-1.4-.6 0-1.3.4-1.6 1zM1537 646.5c-.8.9-.8 1.5-.2 1.5 1.2 0 2.6-1.9 1.9-2.6-.2-.2-1 .2-1.7 1.1zM515 650.4c0 1.9-.3 4.3-.6 5.3-.5 1.4-.4 1.5.5.7 1.7-1.6 2.7-9.4 1.2-9.4-.6 0-1.1 1.5-1.1 3.4zM1234.4 650.5c-1.6 2.4-1.5 2.9.4 7.8 1.9 4.6 2.1 4.9 2.1 2.2.1-1.7-.6-4.1-1.5-5.3-.9-1.3-1.3-2.6-1-2.9.3-.4.6 0 .6.8.1 1.8 3-1.9 3-3.8 0-2.1-1.8-1.5-3.6 1.2zM1427 650.1c0 .5.5.7 1 .4.6-.3 1-.8 1-1.1 0-.2-.4-.4-1-.4-.5 0-1 .5-1 1.1zM518.1 655.7c-.1 2.6 0 4.5.2 4.2.1-.2.9-1.3 1.7-2.3 1.1-1.5 1.2-1.8.1-1.2-1 .7-1.2.2-.6-2.3.4-1.7.2-3.1-.3-3.1s-1 2.1-1.1 4.7zM509.3 658.5c0 2.2.2 3 .4 1.7.2-1.2.2-3 0-4-.3-.9-.5.1-.4 2.3zM649.6 656.5c-.3.8-.1 1.5.4 1.5 1.3 0 2.2-1.8 1.1-2.4-.5-.3-1.1.1-1.5.9zM1428 657.8c0 1.3 1.5 2.8 3.3 3.5 2.7 1 2-1.6-.8-3-1.4-.6-2.5-.8-2.5-.5zM1415.5 661c-.9 1-1.5 2.6-1.2 3.5.8 2 3.7 2 3.7-.1 0-.8.4-1.3.9-1 .4.3.6-.6.3-1.9-.5-3-1.3-3.1-3.7-.5zM533.4 664.6c.3.9.6 2.1.6 2.7 0 .7.4.7.9-.2 1-1.6.4-4.1-1.1-4.1-.6 0-.7.7-.4 1.6zM436.1 666.2c0 1.3.4 3.2.9 4.3.7 1.5.9 1 .9-2.3.1-2.3-.3-4.2-.9-4.2-.5 0-1 1-.9 2.2zM519.2 664.9c.4 1.3 1.8 1.6 1.9.4 0-.4-.5-.9-1.1-1.2-.7-.2-1.1.2-.8.8zM808.8 665.2c-.2.7-.1 2.6.3 4.3.6 2.8.7 2.6.8-1.3.1-4.2-.3-5.3-1.1-3zM1236 669.7c0 3.5.3 6.3.8 6.3 1 0 1.2-9.2.2-11-.6-1-.9.6-1 4.7zM513 667.1c0 .5.5.7 1 .4.6-.3 1-.8 1-1.1 0-.2-.4-.4-1-.4-.5 0-1 .5-1 1.1zM653.1 671.7c1.3 2.4 2.8 4.3 3.2 4.3 1 0-2.3-5.7-4.2-7.3-.8-.7-.3.7 1 3zM1428.5 670c.3.5 1.1 1 1.6 1 .6 0 .7-.5.4-1-.3-.6-1.1-1-1.6-1-.6 0-.7.4-.4 1zM536.8 673.5c-.3 1.4-.1 2.5.3 2.5.5 0 .9-1.1.9-2.5s-.2-2.5-.4-2.5-.6 1.1-.8 2.5zM1421.8 671.7c.7.3 1.6.2 1.9-.1.4-.3-.2-.6-1.3-.5-1.1 0-1.4.3-.6.6zM648.6 673.7c-.4.9-.2 2.1.4 2.7.8.8.9.5.4-.9-.7-1.8-.6-1.8.9-.6 1.8 1.4 2 1.2 1.1-1.3-.8-2.1-2-2-2.8.1zM428.5 676.7c.7 4 1.2 4.9 2 4.2.8-.9-.7-7.9-1.7-7.9-.6 0-.7 1.5-.3 3.7zM800 674.9c0 1.1.4 2.2 1 2.6.5.3.7 1.2.3 2-.3.8 0 1.5.7 1.5.9 0 1.1-1 .6-3.1-.3-1.7-.6-3.5-.6-4s-.4-.9-1-.9c-.5 0-1 .9-1 1.9zM1228.3 676.3c.1 4 1.1 5.5 2.2 3.7.4-.6.2-1.6-.3-2.3-.5-.7-1.2-2.1-1.5-3.2-.3-1.1-.5-.3-.4 1.8zM1434.8 673.7c.7.3 1.6.2 1.9-.1.4-.3-.2-.6-1.3-.5-1.1 0-1.4.3-.6.6zM437 674.9c0 .5.5 1.3 1 1.6.6.3 1 .2 1-.4 0-.5-.4-1.3-1-1.6-.5-.3-1-.2-1 .4zM809 675c0 .5.5 1 1 1 .6 0 1-.5 1-1 0-.6-.4-1-1-1-.5 0-1 .4-1 1zM1427 674.7c.8.3 1.9 1.1 2.3 1.7.6.7.7.6.4-.4-.2-.8-1.2-1.6-2.3-1.7-1.3-.2-1.5-.1-.4.4zM1534.7 677.6c-.8.8.1 2.4 1.4 2.4.5 0 .9-.7.9-1.5 0-1.5-1.2-2-2.3-.9zM1426 680.5c0 1.4.4 2.5.9 2.5s1.1.8 1.3 1.7c.3 1 .4-.1.4-2.5 0-2.7-.5-4.2-1.3-4.2-.7 0-1.3 1.1-1.3 2.5zM1600 679.1c0 .5.5.7 1 .4.6-.3 1-.8 1-1.1 0-.2-.4-.4-1-.4-.5 0-1 .5-1 1.1zM804 682.5c0 1.5.4 2.4 1 2 .6-.3 1-1.2 1-2s-.4-1.7-1-2c-.6-.4-1 .5-1 2zM432.2 683c0 1.4.2 1.9.5 1.2.2-.6.2-1.8 0-2.5-.3-.6-.5-.1-.5 1.3zM1231.5 682.8c-.6 1.8-1 2-1.6 1-.7-1-.9-.9-.9.4 0 2 .8 2.2 2.8.9.8-.5 1.2-1.7.9-2.7-.4-1.7-.6-1.6-1.2.4zM1447.5 682.4c1.1.8 2.4 1.2 2.8.9 1.1-.7-1.2-2.3-3.2-2.3-1.1 0-.9.4.4 1.4zM409 685.2c0 1.7.2 1.8 1.5.8.8-.7 1.5-1.4 1.5-1.5 0-.2-.7-.5-1.5-.9-1-.4-1.5.1-1.5 1.6zM429 684.4c0 .9.5 1.6 1 1.6.6 0 1-.4 1-.9 0-.6-.4-1.3-1-1.6-.5-.3-1 .1-1 .9zM438 683.9c0 .5.5 1.3 1 1.6.6.3 1 .2 1-.4 0-.5-.4-1.3-1-1.6-.5-.3-1-.2-1 .4zM781 685.1c0 1.2.5 1.9 1.2 1.7 1.8-.6 2-2.5.3-3.1-1-.5-1.5 0-1.5 1.4zM801 683.9c0 .6.5 1.3 1 1.6.6.3 1-.1 1-.9 0-.9-.4-1.6-1-1.6-.5 0-1 .4-1 .9zM810 683.9c0 .5.5 1.3 1 1.6.6.3 1 .2 1-.4 0-.5-.4-1.3-1-1.6-.5-.3-1-.2-1 .4zM1208.2 684.6c.3 1.7 2.1 2.1 2.6.6.1-.5-.4-1.2-1.3-1.6-1.1-.4-1.5-.1-1.3 1zM1237.6 684.3c.3 1 .9 1.5 1.2 1.2.3-.3 0-1.1-.7-1.8-1-.9-1.1-.8-.5.6zM1609 687.5c0 .8.2 1.5.4 1.5s.6-.7 1-1.5c.3-.8.1-1.5-.4-1.5-.6 0-1 .7-1 1.5zM650.2 688.6c-.9 1.4-1.4 1.6-2 .7-.4-.7-1.3-.9-2.1-.4-.9.6-.7 1 .8 1.4 1.4.3 1.9 1 1.5 2-.3.9-1.2 1.3-2.1 1-1.2-.5-1 .3.6 3.5 1.1 2.2 2.5 4.3 3.1 4.7 1.4.9 1.3-.1-.5-3.5-1.3-2.4-1.3-2.9 0-3.4.8-.3 1.2-1.2.9-2-.9-2.2 1.7-3.1 3.3-1.1.7 1.1 1.3 1.5 1.3.9 0-.5-.9-2-1.9-3.3-1.8-2.3-1.9-2.3-2.9-.5zM1442.5 687.9c-.3.5-.1 1.2.5 1.6.5.3 1-.1 1-.9 0-1.8-.6-2.1-1.5-.7zM1767 692.3c-5.6 2.8-5.9 10.7-.5 12.7 6.9 2.6 13.5.1 13.5-5.1 0-3.1-4-7.9-6.6-7.9-.7 0-1.8-.2-2.6-.5-.7-.3-2.4.1-3.8.8zM422.6 693.5c.4.8.8 1.5 1 1.5.2 0 .4-.7.4-1.5s-.4-1.5-1-1.5c-.5 0-.7.7-.4 1.5zM795 693.4c0 .9.5 1.6 1 1.6.6 0 1-.4 1-.9 0-.6-.4-1.3-1-1.6-.5-.3-1 .1-1 .9zM1222 692.9c0 .5.5 1.3 1 1.6.6.3 1 .2 1-.4 0-.5-.4-1.3-1-1.6-.5-.3-1-.2-1 .4zM1439.5 693c-.3.6.1.7.9.4 1.8-.7 2.1-1.4.7-1.4-.6 0-1.3.4-1.6 1zM1610.4 693.1c-.3.6-.1 1.6.5 2.2.8.8 1.1.5 1.1-1.1 0-2.4-.5-2.8-1.6-1.1zM656 694.5c0 .5.5 1.7 1 2.5s1 1 1 .5c0-.6-.5-1.7-1-2.5s-1-1.1-1-.5zM415 697.9c0 1.8 1.8 2.1 3 .6 1-1.3.9-1.5-.9-1.5-1.1 0-2.1.4-2.1.9zM788 698.7c0 .7.4 1.3.9 1.3s1.1-.6 1.4-1.3c.3-.8-.1-1.4-.9-1.4s-1.4.6-1.4 1.4zM1215 698.7c0 .8.5 1.3 1.2 1.1 1.8-.6 2.1-2.5.3-2.5-.8 0-1.5.7-1.5 1.4zM1438.6 701.9c-.3.5.6 1.2 2 1.5 2.9.8 3.9.3 2.9-1.3-.8-1.3-4.2-1.4-4.9-.2zM647 702.6c0 .6 1.6 3.2 3.5 5.7s3.5 4.9 3.5 5.2c0 .4 1.1 2 2.5 3.7 3.4 4 3.1 3-1-3.9-4.1-6.8-8.4-12.3-8.5-10.7zM1443 706.9c0 .6.5 1.3 1 1.6.6.3 1-.1 1-.9 0-.9-.4-1.6-1-1.6-.5 0-1 .4-1 .9zM1449.5 710c-.9 1.5 2.3 2.4 3.9 1.1.9-.8 1.5-.8 1.8-.2.2.6 1.4.8 2.8.4l2.5-.7-3-.7c-4.6-1-7.3-1-8 .1zM1437.5 712c-.3.5.1 1 .9 1s1.8-.5 2.1-1c.3-.6-.1-1-.9-1s-1.8.4-2.1 1zM1446 713.1c0 .5.5.7 1 .4.6-.3 1-.8 1-1.1 0-.2-.4-.4-1-.4-.5 0-1 .5-1 1.1zM1621.9 714.6c-1.1 1.3-1 1.7.2 2.5 3.4 2.1 5.6-.5 2.5-3-1-.9-1.6-.7-2.7.5zM652 714.5c0 .5.5 1.7 1 2.5s1 1 1 .5c0-.6-.5-1.7-1-2.5s-1-1.1-1-.5zM1453.5 715c.3.5.8 1 1.1 1 .2 0 .4-.5.4-1 0-.6-.5-1-1.1-1-.5 0-.7.4-.4 1zM1463.1 715.6c0 1.1.3 1.4.6.6.3-.7.2-1.6-.1-1.9-.3-.4-.6.2-.5 1.3zM1442 719.8c0 1.2 1.9 2.6 2.6 1.9.2-.2-.2-1-1.1-1.7-.9-.8-1.5-.8-1.5-.2zM1437.3 722.5c-.3.9-.3 1.8-.1 2.1.3.3.8-.4 1.1-1.6.6-2.3-.1-2.7-1-.5zM1692.4 733.1c-.3.6-.1 1.6.5 2.2.8.8 1.1.5 1.1-1.1 0-2.4-.5-2.8-1.6-1.1zM985 753.5c0 1.9 4.7 3.8 6.9 2.9 1.1-.4 1.2-.8.4-1.1-.7-.2-.9-1.1-.6-1.9.4-1-.4-1.4-3.1-1.4-2.6 0-3.6.4-3.6 1.5zM1013.8 752.7c2.3.2 4.2.8 4.2 1.4 0 .5 1.8.9 4.1.9 2.8 0 3.9-.4 3.7-1.3-.3-.8-3-1.2-8.4-1.3-4.3-.1-6 .1-3.6.3zM1032 753.5c0 .9.9 1.5 2.4 1.5 3.3 0 4.2-1.6 1.3-2.4-3.3-.9-3.7-.8-3.7.9zM1095.5 753.1c-.4.5 1.4.9 4.1.9 5.5 0 5.5-.5.2-1.3-2.1-.3-4-.1-4.3.4z"/><path d="M939 754.2c-6.9.4-28 1.2-47 1.7s-46.4 1.6-61 2.5c-14.6.8-39.3 2-55 2.6-15.7.6-46.9 2-69.5 3.1-25.5 1.3-67.5 2.4-111 2.9-38.5.5-73.6 1.4-78 1.9-4.4.5-8.8 1-9.8 1-1.7.1-1.8.7-1.2 5.3 2.4 18.5 8.7 32.3 17.7 38.9l4.1 2.9h42.1c73 0 141.9-3 264.6-11.5 35-2.5 49.6-3.1 50.1-2.4.5.8.8.8 1.3 0 .5-.7 1.2-.7 2.6.1 1.5 1 3.2.9 7.7-.1 3.2-.7 6.5-1.2 7.3-1.2 11.1 1.2 19.2 1.1 25.4-.4 5.7-1.4 7.6-1.5 10.6-.5 5.4 1.8 20.8 1 22.3-1.1.9-1.2 1.8-1.4 3.7-.7 1.4.5 3.3.7 4.2.4 1-.2 1.6 0 1.2.5-1 1.6 10 1 12.4-.7 1.9-1.3 4.1-1.5 12-1 5.3.3 14.9.9 21.2 1.2 6.5.4 21.2.1 34-.7 24-1.4 26.2-1.4 35.5-.4 4.2.4 5.6.3 4.5-.4-1.2-.8-1-1.2 1-1.9 1.5-.6 2.6-.6 2.8-.1.8 1.9 4.3 3.1 5.7 1.9 2.1-1.7 66.7-1 67.3.7.2.7 1.2 1.3 2.3 1.3 1.1 0 2.9-.6 4-1.3 1.7-1 2.3-1 2.6 0 .6 1.6 5.3 1.7 5.3.2 0-1.2 4.3-.1 4.8 1.2.5 1.1 4.5 1.2 5.8.1.5-.5 2.8-1.4 5.2-2.1 4.2-1.2 6.7-.8 5.7.9-.3.5 0 1.2.6 1.6.6.3 1.5.1 1.9-.5.4-.7 2.7-1.5 5.1-1.8 4-.6 4.3-.5 3 1-1.2 1.5-1.1 1.7 1.3 1.7 1.7 0 2.6-.5 2.6-1.5 0-1.3.8-1.5 3.8-1 6.1 1.1 6.9 1.4 5.2 2.5-2.2 1.4 8.9 1.3 13-.1 2.4-.9 3.4-.9 3.9 0 .4.6 1.5.9 2.4.5 1-.3 2.4-.1 3.2.6.8.7 3.3 1.2 5.6 1.2 4.7-.1 6.7-1.2 2.3-1.3-1.6 0-3.8-.4-4.9-.9-1.8-.7-1.7-.8.9-1.5 2-.5 3.1-.4 3.4.3.2.7 1.5.9 3.1.6 1.6-.3 3.8-.1 5 .6 1.7.9 2.6.9 3.7-.1 1.1-.9 1.8-.9 2.6-.1.7.7 2 1.2 3 1.2 2.1 0 2.4 1.6.6 2.3-.7.3-.3.6.9.6 1.3.1 2.7-.8 3.4-2 .8-1.5 1.4-1.8 2.2-1 1.4 1.4 10.5 1.4 14.6 0 2.4-.9 3.5-.9 4.4 0 1.6 1.6 3.7 1.4 5.9-.6 1.4-1.3 1.9-1.4 1.6-.3-.4 1.8 7.3 3.2 16.1 2.8l6.6-.3-5.2-2.4c-2.9-1.3-5.3-2.7-5.3-3.2s-.5-.9-1-.9c-.6 0-1 .8-.8 1.7.6 3.7-13.6.6-14.6-3.1-.5-1.6-.8-1.8-1.5-.8-.4.8-2.1 1.3-3.7 1.1-1.6-.2-3.9.2-5.1.9-3.2 1.7-4.1 1.5-3.6-1.1.4-2 0-2.2-4.1-2.4-2.6-.1-4.4.3-4.1.8.4.5-.5 1.4-2 2.1-2.2 1-2.8.8-4.8-1-2.5-2.4-5.3-2.9-5.9-1-.3.7-1.4.9-3.4.3l-2.9-.8 2.5-.6c2.4-.7 2.4-.8.5-1.8-1.5-.9-2.2-.8-3 .4-.9 1.2-1.6 1.3-3.1.5-1.4-.8-1.5-1.2-.4-1.2.8 0 2.5-.8 3.7-1.8 2.2-1.7 2.2-1.7-4-1.7-3.4-.1-11.7-.5-18.5-1-9.7-.6-12.8-.5-14.8.5-1.7 1-2.7 1.1-3.2.3-1.3-1.9-4.9-2.5-5.6-.8-.3.8-1 1.5-1.7 1.5-.6 0-.9-.7-.5-1.5.5-1.3-1-1.5-9.9-1.5-5.8 0-10.7-.4-11-1-.4-.6 1.5-1 4.9-1 3 0 5.8-.5 6.1-1 .9-1.5 4.5-1.2 5.1.5.7 1.7 5.4 2.1 5.4.5 0-.6-.8-1-1.9-1-1 0-2.4-.7-3.1-1.5-1.1-1.3-1.6-1.3-4.8 0-1.9.9-4.5 1.2-5.6.9-1.2-.4-3.8-.6-5.8-.5-3.9.2-4.4-.3-2.9-2.8.6-.9 2.2-1.2 4.9-.9 2.2.2 3.8 0 3.6-.4-.3-.5-1.7-.8-3.2-.8-1.5 0-3.4-.5-4.2-1-1.3-.8-1.2-1.1.4-2.3 1.9-1.4 1.9-1.5-.3-2.2-1.2-.4-3.6-.1-5.2.5-2.7 1.2-2.8 1.4-1.2 2.5 1.7 1.2 1.6 1.4-1 2.1-1.6.3-5.8.2-9.5-.4-3.6-.6-6.9-.9-7.4-.6-2.2 1.4.9 2 9.8 2.2 5.3.1 9.9.3 10.1.6 2.5 2.5-8.4 3.6-13.2 1.4-2.1-1-2.8-.9-3.5.2-.5.8-3 1.7-5.7 2.1-4.1.5-3.5.7 3.9.8 9.5.1 11.8.6 11.8 2.7 0 1.6-1.6 1.9-2.5.4-.9-1.4-2.5-1.2-2.5.3 0 .9-1.2 1.1-4 .9-3.2-.3-4-.1-4 1.2 0 .9-.7 1.6-1.5 1.6-.9 0-1.4-.8-1.2-2.3.2-2.1-.2-2.2-6.3-2.3-3.6 0-7.1-.4-7.8-.8-.7-.4-3.4-.5-6-.2-2.6.4-5.4.2-6.2-.4-1.1-.7.3-1 5-1 3.6 0 7-.4 7.5-.8.6-.4 1.1-2.1 1.3-3.8.3-2.9 0-3.2-3.4-3.7-2.2-.4-4.3-.2-5.1.5-1.8 1.5-2.9.2-1.4-1.6.7-.8.8-1.6.4-1.9-1.3-.8-17.1-1.2-17.9-.4-1.1 1.1-2.1.9-3.9-.9-1.3-1.4-2-1.4-4.6-.4-1.8.8-4.9 1-7.8.7-4.2-.5-5-.3-5.4 1.2-.6 2.3-4.3 3.3-5.8 1.5-.9-1.1-.7-1.4 1.5-1.4 1.4 0 2.6-.5 2.6-1 0-.7-2.2-1-5.2-.9-2.9 0-6.5-.2-8-.6-2.4-.6-2.8-.4-2.8 1.4 0 2.2-1.6 2.9-2.2.9-.3-.7-3-1.2-7.5-1.2-3.9-.1-7.4-.4-7.8-.8-1.4-1.4.7-2.8 4.1-2.8 1.9 0 3.4-.3 3.4-.8 0-.9-13.6 0-14.6 1.1-.4.4 0 .7.9.7 2.5 0 2.9 1.8.7 3-1.6.9-2.5.8-3.6 0-.9-.9-3.4-1-8-.5-5.3.5-6.5.4-6.2-.7.3-.8 2.7-1.5 6.3-1.8 3.8-.3 6-1 6.3-1.9.4-1.1-.4-1.2-3.9-.6-2.4.5-6.1.8-8.1.8-3.3-.1-3.7.2-4 2.5-.3 2.8-.9 2.9-13.8 2.2-3.8-.2-4.1-.3-2-1 1.4-.4 4.2-.8 6.3-.9 4.1-.1 5.2-2.1 1.1-2.1-1.6 0-2.4-.5-2.2-1.3.5-1.4 10.9-2.9 15.6-2.1 1.8.3 6-.1 9.5-.7 5-1 5.7-1.4 3.7-1.9-1.5-.4-2.4-1.3-2.4-2.3.2-1.5-1.9-1.7-22.3-1.7-19.5 0-22.4.2-21.4 1.4.9 1.1.9 2 .2 3.5-1.7 3.1-1.4 3.3 3.4 2.5 6-.8 8.1.7 5.8 4.2-1.7 2.6-3.3 3.2-3.3 1.1 0-.6-.4-1.8-.9-2.6-1-1.6-3.6-.3-3.6 1.9 0 1.2-1.4 1.5-6.5 1.6-3.6.1-7.4-.2-8.5-.6-1.8-.7-1.7-.9.9-1.6 2-.5 3.1-.3 3.4.4.5 1.6 4.3 1.5 6.5-.2s2.2-2.2-.5-3.1c-1.4-.4-1.8-.8-1-1.2 3-1.2.5-2.1-8-2.8-6.2-.5-8.6-1-7.3-1.6 3.7-1.4-33.6-.9-37.7.5-2.1.8-3.8 1-3.8.5s-2.7-.9-6.1-.9c-3.3 0-5.8-.4-5.5-.8.3-.5 3-.7 5.9-.4 3.4.3 5.7 0 6.1-.7.5-.7-.2-1.1-1.6-1.2-2.1-.1-2-.2.7-1.4 2.1-1 2.4-1.4 1-1.3-1.1.1-7.6.5-14.5 1zm110 4.7c0 1.5-2.8 2.1-6.3 1.4-3.1-.7-3.1-.7-.7-1.4 3.6-1 7-1 7 0zm-122.3.7c-.3.3-1.2.4-1.9.1-.8-.3-.5-.6.6-.6 1.1-.1 1.7.2 1.3.5zm64.1.9c.1.1-.5.8-1.5 1.6-1.1.9-1.4 1-.9.1.5-.8-.1-1.2-1.8-1.2-1.4 0-2.6-.4-2.6-1 0-.8 5.7-.4 6.8.5zm46.2-.5c-.8.5-2.3 1-3.2 1-1 0-2.8 1-4 2.2-2.3 2.3-2.3 2.3-2.6.2-.2-1.1-1.5-2.5-3-3.1-2.3-.9-1.3-1.1 5.8-1.2 5.8 0 8 .2 7 .9zm-148.7.7c-.7.2-2.1.2-3 0-1-.3-.4-.5 1.2-.5 1.7 0 2.4.2 1.8.5zM1003 763c0 .5-.7 1-1.6 1-.8 0-1.2-.5-.9-1 .3-.6 1-1 1.6-1 .5 0 .9.4.9 1zm-49.1.9c.9.6 1.1 1.6.7 2.7-.7 1.8-.8 1.8-2.2 0-2.3-3.2-1.6-4.6 1.5-2.7zM989 765l2.5 2h-3.2c-3.3 0-4.9-1.2-3.8-3 .9-1.4 1.6-1.2 4.5 1zm-6.4.1c.3.6.2 1.5-.2 1.9-1.2 1.2-3.8-.5-3-1.9.9-1.4 2.3-1.4 3.2 0zm25.1-.5c-.3.3-1.2.4-1.9.1-.8-.3-.5-.6.6-.6 1.1-.1 1.7.2 1.3.5zm-96.7 1.2c0 1.7-3.8 4.4-4.5 3.3-.3-.6.1-1.1.9-1.1.9 0 1.6-.7 1.6-1.5s.5-1.5 1-1.5c.6 0 1 .4 1 .8zm28.5 1.2c-.3.5-1.3 1-2.1 1s-1.2-.5-.9-1c.3-.6 1.3-1 2.1-1s1.2.4.9 1zm-24.2 1.7c.3.5-.1 1.4-.9 2.1-1.2 1.1-1.4.9-1.4-.8 0-2 1.4-2.7 2.3-1.3zm-85.4 2.7c-1.2 1-6 1.6-5.4.6.3-.5 1.8-1 3.2-1 1.5 0 2.4.2 2.2.4zm71.6.6c-.3.5-1.5 1-2.6 1s-1.7-.5-1.4-1c.3-.6 1.5-1 2.6-1s1.7.4 1.4 1zm47 0c.3.5-.1 1-1 1s-1.3-.5-1-1c.3-.6.8-1 1-1 .2 0 .7.4 1 1zm65 1.7c-2.8 2-4.1 1.6-2-.7 1-1.1 2.2-1.7 2.8-1.3.6.4.3 1.2-.8 2zm53.3-1.5c-.6 1.8-2.8 2.1-2.8.4 0-.9.7-1.6 1.6-1.6.9 0 1.4.5 1.2 1.2zm5.8 1.7c-1 1.6-3.6 1.3-3.6-.3 0-1.7 2.1-2.7 3.4-1.6.4.5.5 1.3.2 1.9zm20.1-2.3c-.3.3-1.2.4-1.9.1-.8-.3-.5-.6.6-.6 1.1-.1 1.7.2 1.3.5zm30.3.4c0 .5-1.8 1-3.9 1-2.2 0-4.3-.5-4.6-1-.4-.6 1.2-1 3.9-1 2.5 0 4.6.4 4.6 1zm9 0c1.2.8 1.3 1.2.2 1.9s-1.1.9.2 1.4c.9.4 1.5.3 1.4-.1-.4-1.9 1.7-4.2 3.8-4.2 2.8 0 3.2 2.4.7 3.8-1.4.9-1.4 1 .6 1.7 1.3.4 3.7.4 5.4.1 1.8-.3 3.8-.2 4.5.3 1.8 1.1-6.1 3.1-12.3 3.1-4.2 0-4.6.2-4 2 .6 1.7.2 2-2.9 2-1.9 0-3.8.4-4.1 1-1.2 1.9-3 1-3.1-1.5-.2-2.4.1-2.5 3.1-1.9 4.1.7 5.6-1.2 2-2.6-2.7-1-2.6-3 .3-3 1.3 0 1.3-.2-.3-1.4-1.8-1.3-1.8-1.3.1-2.4 2.3-1.4 2.5-1.4 4.4-.2zm-206 1c0 .5-.4 1-1 1-.5 0-1-.5-1-1 0-.6.5-1 1-1 .6 0 1 .4 1 1zm156 .1c0 .6-.6.9-1.4.6-.8-.3-1.7-.1-1.9.6-.2.7-.8.8-1.3.4s-.2-1.2.6-1.7c2-1.3 4-1.2 4 .1zm-216.4 1.4c2 1.9.5 1.9-2 0-1.1-.9-1.4-1.5-.7-1.5s1.9.7 2.7 1.5zm39.4-1.1c0 1.1-1.9 1.5-2.5.6-.3-.5.1-1 .9-1 .9 0 1.6.2 1.6.4zm36 .6c0 .5-.7 1-1.5 1s-1.5-.5-1.5-1c0-.6.7-1 1.5-1s1.5.4 1.5 1zm10 .4c0 .3-.4.8-1 1.1-.5.3-1 .1-1-.4 0-.6.5-1.1 1-1.1.6 0 1 .2 1 .4zm29 .6c0 .5-.4 1-.9 1-.6 0-1.3-.5-1.6-1-.3-.6.1-1 .9-1 .9 0 1.6.4 1.6 1zm88.9 1c10.2 1.2 12.1 1.7 11.5 3.4-.7 1.7 3.4 2.8 7.5 2 1.8-.4 2.9-.9 2.7-1.2-.3-.3.2-1.1 1.2-1.9.9-.8 1.1-1.2.5-.8-.7.3-2.1.1-3-.4-1.3-.7 2.9-1 14.5-1.1 15.5 0 16.2.1 16.2 2 0 2.3-1.5 2.5-5 .5-3.9-2.2-10.7-1.9-12 .5-.9 1.7-.7 2.2 1.2 3 2.7 1 2.7 1-3.2 1.6-5.6.5-6.3.5-24-.4-8.1-.4-13.7-1-12.7-1.4 1-.5 4.3-.5 7.3-.2 5.9.7 7.7-.9 2.3-2.1-2.3-.5-2.8-.9-1.8-1.6 1.8-1.1-12.3-1.2-17.1 0-1.9.4-5.7.5-8.5.1-5.1-.7-4.9-.9 2-2.3 3.7-.8 11.9-.7 20.4.3zM908 777c0 .5-.9 1-2 1s-2-.5-2-1c0-.6.9-1 2-1s2 .4 2 1zm115.9.3c1.1 1.4.6 2.7-1 2.7-.5 0-1.3-.9-1.9-2-.8-1.6-.8-2 .3-2 .8 0 2 .6 2.6 1.3zm8.8.5c-1 1-1.4 2.2-1 2.5 1.3 1.4-2.3.7-4.5-.9-3.4-2.3-2.6-3.4 2.5-3.4 4.4 0 4.5.1 3 1.8zm6.3-1.4c0 1.5-1.4 3.5-2.1 3-1.5-.9-1-3.4.6-3.4.8 0 1.5.2 1.5.4zm-72.2 1.5c1.9 1.2-6.1 2.3-9.6 1.4-2.4-.7-2.1-.9 2.3-1.4 2.8-.3 5.2-.6 5.5-.7.3-.1 1.1.2 1.8.7zm19 1.1c-1 1.6-1.4 1.7-1.6.6-.2-.8-1.1-1.7-2-1.9-.9-.3-.2-.5 1.6-.6 3-.1 3.1 0 2 1.9zm14.5.1 2.2 2.1-2.5-.4c-1.4-.2-2.6-1.1-2.8-2.1-.5-2.3.4-2.2 3.1.4zm10.2-1.2c-.3.5.3 1.1 1.2 1.4 1.7.4 1.7.5-.1 1.2-1.3.6-2.2.3-3-.7-.8-1.1-2.1-1.4-3.9-1.1-1.6.3-2.7.1-2.7-.6 0-.6 1.9-1.1 4.6-1.1 2.5 0 4.3.4 3.9.9zM937 779c0 .5-2.4 1.1-5.2 1.1-5 .1-12.8 1.5-10 1.8.7 0 1.1.5.7 1-.3.5.5 1.3 1.7 1.6 2 .7 1.9.8-1.2 2.1-2.2 1-3.7 1.1-4.3.5-.6-.6-4-.8-8.4-.4-5.2.4-7.3.3-7.3-.6 0-.7 2.5-1.1 7.4-1.1 7.3 0 10.7-1.4 9.1-3.9-.6-1.1 1.7-1.8 7.5-2.4 7.2-.8 10-.7 10 .3zm13 .2c-1.4.5-3.9 1-5.7.9-1.9 0-3.6.6-4.1 1.5-.6 1.1-2 1.4-4.8 1.2l-3.9-.3 5.5-2.2c5.6-2.2 18.3-3.3 13-1.1zm161.9-.8c-1.2 1-5.9 1.5-5.9.6 0-.5 1.4-1 3.2-1 1.7 0 2.9.2 2.7.4zm-199.9 2c0 .7-.7 1.9-1.5 2.6-1.3 1.1-1.9.8-4-1.4l-2.4-2.6h3.9c2.7 0 4 .4 4 1.4zm140.2 2.8c-.6.6-1.5.7-2.2.3-.8-.5-.6-1.2.7-2.5 1.5-1.4 1.9-1.5 2.1-.2.2.8-.1 1.9-.6 2.4zm-13.2-.2c0 1.2-2.2 1.8-4.2 1.2-3.1-.8-2.1-2.9 1.2-2.4 1.7.2 3 .8 3 1.2zm-48.5 0c2.6.6 2.2.8-2.3.9-3.3.1-5.1-.3-4.7-.9.7-1.1 2.6-1.1 7 0zm29.5 0c0 .5-1.8 1-4 1s-4-.5-4-1c0-.6 1.8-1 4-1s4 .4 4 1zm9 0c1.2.8 1 1-1 1s-2.2.2-1 1c1.2.8 1.1 1-.7 1-1.6 0-2.3-.6-2.3-2 0-2.2 2.4-2.7 5-1zm88.7-.4c-.3.3-1.2.4-1.9.1-.8-.3-.5-.6.6-.6 1.1-.1 1.7.2 1.3.5zm-161.7.8c0 1.1-1.9 1.5-2.5.6-.3-.5.1-1 .9-1 .9 0 1.6.2 1.6.4zm10.8 1.9c.3 1.2-.3 1.7-2 1.7s-1.9-.3-.9-.9c.8-.5 1-1.4.6-2.1-.5-.8-.3-1.1.6-.8.8.3 1.5 1.2 1.7 2.1zm91.7 0c0 2-.3 2.1-2.1 1.3-2-.9-2-1.2-.5-2.3 2.3-1.7 2.6-1.6 2.6 1zm-185.8-.7c-.3.3-1.2.4-1.9.1-.8-.3-.5-.6.6-.6 1.1-.1 1.7.2 1.3.5zm71.8.4c-.3.5-2.4 1-4.6 1-2.4 0-3.8-.4-3.4-1 .3-.6 2.4-1 4.6-1 2.4 0 3.8.4 3.4 1zm18.2-.4c-.3.3-1.2.4-1.9.1-.8-.3-.5-.6.6-.6 1.1-.1 1.7.2 1.3.5zm86.8 3.4c0 1.8-5.6 2.6-8.2 1.1-1.6-.9-1.6-1.1.7-2 3.5-1.4 7.5-.9 7.5.9zm-196.5-.1c0 1.4-5.6 2.4-8.2 1.5-2.1-.7-2-.9 1.2-1.5 5.3-1 7-1 7 0zm6.5.1c-.3.5-1.4 1-2.3.9-1.4 0-1.3-.2.3-.9 2.7-1.1 2.7-1.1 2 0zm158.2-.4c-.3.3-1.2.4-1.9.1-.8-.3-.5-.6.6-.6 1.1-.1 1.7.2 1.3.5zm58.6.1c-.7.2-1.9.2-2.5 0-.7-.3-.2-.5 1.2-.5s1.9.2 1.3.5zm48.2.3c-.3.5-1.3 1-2.1 1s-1.2.4-.9 1c.3.5.2 1-.4 1-.5 0-1.2-.4-1.6-1-.3-.5-1.2-.7-2-.3-.9.3-1.5-.1-1.5-1.1 0-1.2 1-1.6 4.6-1.6 2.7 0 4.3.4 3.9 1zm26.9-.1c.5.8-8.4.3-9.3-.5-.2-.2 1.6-.4 4.2-.4 2.5 0 4.8.4 5.1.9zm7.6.1c0 .5-.4 1-1 1-.5 0-1-.5-1-1 0-.6.5-1 1-1 .6 0 1 .4 1 1zm14 0c0 .5-.7 1-1.6 1-.8 0-1.2-.5-.9-1 .3-.6 1-1 1.6-1 .5 0 .9.4.9 1zm12.5.9c-.8 1.3-3.5 1.5-3.5.2 0-.5.8-1.1 1.8-1.3 2.1-.5 2.6-.2 1.7 1.1zm49-.9c.3.5 0 .7-.8.4-.8-.3-1.8 0-2.2.7-.6.9 1.5 1 8.8.4 7.7-.5 10-.4 11.7.8 2 1.4 2.1 1.5.1 2-1.1.2-2.3.2-2.6-.2-1.3-1.2-6.3-.7-5.8.6.7 1.8-.5 1.6-2.3-.2-1.8-1.7-8.6-2-11.5-.5-2 1.1-5.9-.2-5.9-1.9 0-.5.9-.7 2-.4 1.4.4 2 0 2-1.1 0-1.8 5.4-2.3 6.5-.6zm-13.8 5.6c-.6.7-3.7-.7-3.7-1.6 0-.5.8-1.6 1.8-2.6 1.6-1.7 1.7-1.7 2 1 .2 1.5.2 3-.1 3.2zm-24.9-3.9c-1.6.2-4 .2-5.5 0-1.6-.2-.3-.4 2.7-.4s4.3.2 2.8.4zm18.2 1.9c0 2-.3 2.4-1.2 1.6-.7-.5-2.9-1.7-4.8-2.5l-3.5-1.5 4.8-.1c4.4-.1 4.7 0 4.7 2.5zm-207-.2c0 .3-.4.8-1 1.1-.5.3-1 .1-1-.4 0-.6.5-1.1 1-1.1.6 0 1 .2 1 .4zm249.6 3.1c-2.5 1.9-4.6 1.9-4.6 0 0-1 1-1.5 3.3-1.5 3 .1 3.1.1 1.3 1.5zm9.4 2.5c0 .5-.2 1-.4 1-.3 0-.8-.5-1.1-1-.3-.6-.1-1 .4-1 .6 0 1.1.4 1.1 1zm-74 1c0 .5-.9 1-2.1 1-1.1 0-1.7-.5-1.4-1 .3-.6 1.3-1 2.1-1s1.4.4 1.4 1zm-163.7.7c-.7.2-1.9.2-2.5 0-.7-.3-.2-.5 1.2-.5s1.9.2 1.3.5z"/><path d="M1099.8 777.7c.7.3 1.6.2 1.9-.1.4-.3-.2-.6-1.3-.5-1.1 0-1.4.3-.6.6zM960 753.9c0 .5-.9 1.1-2 1.4-4.3 1.1-1.7 2.2 3.9 1.7 6.1-.6 9.4-1.9 5-2.1-2.2 0-2.3-.1-.4-.9 1.5-.7 1-.9-2.2-.9-2.4-.1-4.3.3-4.3.8zM1061.8 753.7c.6.2 1.8.2 2.5 0 .6-.3.1-.5-1.3-.5-1.4 0-1.9.2-1.2.5zM1088.8 753.7c.7.3 1.6.2 1.9-.1.4-.3-.2-.6-1.3-.5-1.1 0-1.4.3-.6.6zM1069.7 755.5c-.9.7-1.7 2-1.7 2.9 0 .9-.5 1.6-1.1 1.6-.8 0-.7.5.2 1.6 1.2 1.5 2.3 1.5 6.3-.2 1.4-.5 1.7-.4 1.2.4s.1 1.2 1.8 1.2c3.7 0 3.2-1.5-1.1-3.3l-3.8-1.5 3.3-.1c1.7-.1 3.2-.6 3.2-1.2 0-.5-.5-.7-1-.4-.6.4-2.1 0-3.3-.8-1.9-1.2-2.6-1.2-4-.2zM1090.6 756.8c-.2.4 2.1.8 5.2.9 4.2.1 5.1 0 3.2-.7-3.3-1.1-7.8-1.2-8.4-.2zM1121 757c-2.2.5 1.7.7 10 .8 8.1 0 12.3-.3 10.5-.8-3.8-1-15.9-1-20.5 0zM1147.3 757.1c-2.5.9-3 1.9-1 1.9 1.5 0 4.3-1.7 3.7-2.3-.3-.3-1.5-.1-2.7.4zM998.5 758c-.4.6 1.7 1 5.4 1 3.4 0 6.1-.4 6.1-1s-2.4-1-5.4-1c-3 0-5.8.4-6.1 1zM1170.8 758.7c.6.2 1.8.2 2.5 0 .6-.3.1-.5-1.3-.5-1.4 0-1.9.2-1.2.5zM1099.8 760.7c.7.3 1.6.2 1.9-.1.4-.3-.2-.6-1.3-.5-1.1 0-1.4.3-.6.6zM1111.8 760.7c.6.2 1.8.2 2.5 0 .6-.3.1-.5-1.3-.5-1.4 0-1.9.2-1.2.5zM1119 761c0 .5.9 1 2 1s2-.5 2-1c0-.6-.9-1-2-1s-2 .4-2 1zM1139.6 760.8c-1.2 2.1 6.5 3 9.4 1.2 1.2-.7.8-1-1.5-1-1.6 0-4-.3-5.1-.6-1.2-.3-2.4-.1-2.8.4zM1175.8 761.7c.7.3 1.6.2 1.9-.1.4-.3-.2-.6-1.3-.5-1.1 0-1.4.3-.6.6zM1182 762.9c0 .9.8 1.1 2.8.6 4.5-1.1 5.1-2.6.9-2.3-2.3.2-3.7.8-3.7 1.7zM1191.8 762.7c.7.3 1.6.2 1.9-.1.4-.3-.2-.6-1.3-.5-1.1 0-1.4.3-.6.6zM1207.8 762.7c.7.3 1.6.2 1.9-.1.4-.3-.2-.6-1.3-.5-1.1 0-1.4.3-.6.6zM1118 765.5c0 .8.7 1.5 1.5 1.5s1.5-.7 1.5-1.5-.7-1.5-1.5-1.5-1.5.7-1.5 1.5zM1097 766c0 .5 1.9 1 4.2 1 4.9 0 4.7-.5-.4-1.4-2.4-.4-3.8-.3-3.8.4zM1107.8 766.7c.7.3 1.6.2 1.9-.1.4-.3-.2-.6-1.3-.5-1.1 0-1.4.3-.6.6zM1128.5 767c.8 1.3 5.5 1.3 7.5 0 1.1-.7.2-1-3.3-1-3 0-4.6.4-4.2 1zM1170.5 767.1c-.7 1 0 1.2 3.5.9 2.4-.2 2.4-.1.7 1.7-2.4 2.8-2.2 3.3 1.6 3.3 2.8 0 3.3-.4 3.3-2.3-.1-1.6.5-2.3 2.2-2.5 1.2-.2 2.2-.7 2.2-1.1 0-1.1-12.9-1.1-13.5 0zM1112.8 767.7c.7.3 1.6.2 1.9-.1.4-.3-.2-.6-1.3-.5-1.1 0-1.4.3-.6.6zM1191.8 767.7c.7.3 1.6.2 1.9-.1.4-.3-.2-.6-1.3-.5-1.1 0-1.4.3-.6.6zM1157 769.5c-1 1.2-1 1.5.4 1.5.9 0 1.6-.7 1.6-1.5s-.2-1.5-.4-1.5-.9.7-1.6 1.5z"/><path d="M1151 771c0 .6 1.5 1.7 3.3 2.5 2.8 1.2 3 1.4 1.3 2.1-1.8.7-1.8.8.4 1.6 1.4.5 2.7.5 3.3-.1.5-.5 1.5-.7 2.3-.4.7.2 2.1 0 3.1-.7 1.6-1 1.5-1.1-.7-.7-2.7.6-6.9-.6-5.4-1.5.5-.3 2.2-.8 3.7-1.2 1.5-.4 2.5-1.1 2.2-1.5-.3-.6-2-.5-4 0-2.3.7-4.1.6-5.4-.1-2.5-1.3-4.1-1.3-4.1 0zM1215 773.3l3.5 1.1-3.2.4c-1.8.2-3.3.8-3.3 1.4 0 .6 1.1.8 2.9.5 1.5-.3 3.3-.1 3.8.4.8.8 1.3.7 1.7 0 .5-.7 1.5-.6 3.1.5 2.5 1.6 6.1 1.2 5.1-.5-.4-.5-2-1.2-3.7-1.6-1.7-.4-2.8-1.2-2.6-1.9.3-.8-1.4-1.2-5.2-1.3-5.5-.2-5.5-.2-2.1 1zM1227.4 773.9c.3.4 1.9 1.1 3.6 1.4 1.8.4 3 1.3 3 2.2 0 1.1 1.1 1.5 4.3 1.4 3.7-.1 3.8-.2 1.3-.8-3.1-.6-4.8-3.1-2.2-3.1.9 0 1.6-.5 1.6-1 0-.6-2.7-1-6.1-1-3.3 0-5.8.4-5.5.9zM1206 777c0 .5.9 1 2 1s2-.5 2-1c0-.6-.9-1-2-1s-2 .4-2 1zM1268.8 779.7c.6.2 1.8.2 2.5 0 .6-.3.1-.5-1.3-.5-1.4 0-1.9.2-1.2.5zM1233.7 781.4c-.3.8-1.6 1.6-2.9 1.9-1.3.2-.2.5 2.3.6 3.9.1 4.8-.2 5.2-1.9.4-1.6 0-2-1.8-2-1.3 0-2.5.6-2.8 1.4zM1156.8 781.7c.7.3 1.6.2 1.9-.1.4-.3-.2-.6-1.3-.5-1.1 0-1.4.3-.6.6zM1218.2 782.2c.5 1.5 8.8 2.4 8.8 1 0-.5-1.4-1.2-3.1-1.6-4.7-.9-6.1-.7-5.7.6zM1254.6 782.5c-.8 2.2-.3 2.8 1.9 2.3 1.4-.3 1.4-.5.2-2.2-1.3-1.8-1.4-1.8-2.1-.1zM1239.5 783c-.3.5 0 1 .8 1s2.9.3 4.6.6c2.4.5 3.1.3 3.1-1 0-1.2-1-1.6-3.9-1.6-2.2 0-4.3.4-4.6 1zM1274.8 785.7c1.8.2 4.5.2 6 0s0-.4-3.3-.4-4.5.2-2.7.4zM1270 789.5c-1.1 1.3-.8 1.5 1.3 1.5 3.2 0 5.7-.9 5.7-2.1 0-1.5-5.7-1-7 .6zM1134 799c-1.9 1.3 4.6 1.3 7.5 0 1.6-.7 1.1-.9-2-.9-2.2 0-4.7.4-5.5.9zM1156.5 799c-.4.6 1.1 1 3.7.9 3.6-.1 3.9-.2 1.8-.9-3.6-1.1-4.8-1.1-5.5 0zM1336.6 803.4c.7 1.8 7.9 2.3 8.9.6.4-.6-.8-1-2.9-1-1.9 0-4.2-.3-5-.6-1.2-.5-1.5-.2-1 1z"/>
<style>
 path {
  fill: #000;
 }

 @media (prefers-color-scheme: dark) {
  path {
   fill: #fff;
  }
 }
</style>
</svg>